<svg width="17" height="15" viewBox="0 0 17 15" fill="none" xmlns="http://www.w3.org/2000/svg">
<path d="M1 7C0.723858 7 0.5 7.22386 0.5 7.5C0.5 7.77614 0.723858 8 1 8V7ZM16 7.5L16.3536 7.85355C16.5488 7.65829 16.5488 7.34171 16.3536 7.14645L16 7.5ZM9.85355 0.646447C9.65829 0.451184 9.34171 0.451184 9.14645 0.646447C8.95118 0.841709 8.95118 1.15829 9.14645 1.35355L9.85355 0.646447ZM9.14645 13.6464C8.95118 13.8417 8.95118 14.1583 9.14645 14.3536C9.34171 14.5488 9.65829 14.5488 9.85355 14.3536L9.14645 13.6464ZM1 8H16V7H1V8ZM16.3536 7.14645L9.85355 0.646447L9.14645 1.35355L15.6464 7.85355L16.3536 7.14645ZM15.6464 7.14645L9.14645 13.6464L9.85355 14.3536L16.3536 7.85355L15.6464 7.14645Z" fill="white"/>
</svg>
