<svg width="24" height="24" viewBox="0 0 24 24" fill="none" xmlns="http://www.w3.org/2000/svg">
<path fill-rule="evenodd" clip-rule="evenodd" d="M23 12C23 18.0751 18.0751 23 12 23C5.92487 23 1 18.0751 1 12C1 5.92487 5.92487 1 12 1C18.0751 1 23 5.92487 23 12ZM24 12C24 18.6274 18.6274 24 12 24C5.37258 24 0 18.6274 0 12C0 5.37258 5.37258 0 12 0C18.6274 0 24 5.37258 24 12ZM7 11.4231C6.72386 11.4231 6.5 11.647 6.5 11.9231C6.5 12.1993 6.72386 12.4231 7 12.4231H17C17.2761 12.4231 17.5 12.1993 17.5 11.9231C17.5 11.647 17.2761 11.4231 17 11.4231H7Z" fill="#333333" fill-opacity="0.5"/>
</svg>
