<svg width="16" height="16" viewBox="0 0 16 16" fill="none" xmlns="http://www.w3.org/2000/svg">
<g clip-path="url(#clip0)">
<path d="M2.83214 3.96777C4.39408 3.96777 5.66479 5.22874 5.66479 6.77859V9.20021C5.66479 10.7621 4.39411 12.0326 2.83214 12.0326C1.27042 12.0326 -0.000300407 10.7621 -0.000300407 9.20021V6.80021C-0.000300407 5.23827 1.27039 3.96777 2.83214 3.96777ZM1.29698 9.20021C1.29698 10.0467 1.98564 10.7353 2.83211 10.7353C3.67861 10.7353 4.36745 10.0467 4.36745 9.20021V6.77859C4.36745 5.94399 3.67858 5.26509 2.83211 5.26509C1.98564 5.26509 1.29698 5.95374 1.29698 6.80021V9.20021Z" fill="#333333" fill-opacity="0.8"/>
<path d="M5.01622 7.34033H15.3513C15.7096 7.34033 16 7.63071 16 7.98899V10.7998C16 11.1581 15.7096 11.4485 15.3513 11.4485C14.9931 11.4485 14.7027 11.1581 14.7027 10.7996V8.63764H5.01619C4.65791 8.63764 4.36753 8.34727 4.36753 7.98899C4.36756 7.63071 4.65794 7.34033 5.01622 7.34033Z" fill="#333333" fill-opacity="0.8"/>
<path d="M13.1458 7.34033C13.5041 7.34033 13.7944 7.63071 13.7944 7.98899V10.1511C13.7944 10.5094 13.5041 10.7998 13.1458 10.7998C12.7875 10.7998 12.4971 10.5094 12.4971 10.1511V7.98899C12.4972 7.63071 12.7875 7.34033 13.1458 7.34033Z" fill="#333333" fill-opacity="0.8"/>
<path d="M10.897 7.34033C11.2553 7.34033 11.5457 7.63071 11.5457 7.98899V10.6917C11.5457 11.05 11.2553 11.3403 10.897 11.3403C10.5387 11.3403 10.2483 11.05 10.2483 10.6917V7.98899C10.2483 7.63071 10.5387 7.34033 10.897 7.34033Z" fill="#333333" fill-opacity="0.8"/>
</g>
<defs>
<clipPath id="clip0">
<rect width="16" height="16" fill="white" transform="matrix(-1 0 0 1 16 0)"/>
</clipPath>
</defs>
</svg>
