<svg width="24" height="24" viewBox="0 0 24 24" fill="none" xmlns="http://www.w3.org/2000/svg">
<path fill-rule="evenodd" clip-rule="evenodd" d="M12 23C18.0751 23 23 18.0751 23 12C23 5.92487 18.0751 1 12 1C5.92487 1 1 5.92487 1 12C1 18.0751 5.92487 23 12 23ZM12 24C18.6274 24 24 18.6274 24 12C24 5.37258 18.6274 0 12 0C5.37258 0 0 5.37258 0 12C0 18.6274 5.37258 24 12 24ZM6.5 11.9231C6.5 11.647 6.72386 11.4231 7 11.4231H11.4231V7C11.4231 6.72386 11.647 6.5 11.9231 6.5C12.1993 6.5 12.4231 6.72386 12.4231 7V11.4231H17C17.2761 11.4231 17.5 11.647 17.5 11.9231C17.5 12.1993 17.2761 12.4231 17 12.4231H12.4231V17C12.4231 17.2761 12.1993 17.5 11.9231 17.5C11.647 17.5 11.4231 17.2761 11.4231 17V12.4231H7C6.72386 12.4231 6.5 12.1993 6.5 11.9231Z" fill="#333333" fill-opacity="0.5"/>
</svg>
