<svg width="12" height="12" viewBox="0 0 12 12" fill="none" xmlns="http://www.w3.org/2000/svg">
<circle cx="6" cy="6" r="6" fill="#333333" fill-opacity="0.5"/>
<path d="M5.16797 7.10547V6.81641C5.16797 6.56641 5.22135 6.34896 5.32812 6.16406C5.4349 5.97917 5.63021 5.78255 5.91406 5.57422C6.1875 5.37891 6.36719 5.22005 6.45312 5.09766C6.54167 4.97526 6.58594 4.83854 6.58594 4.6875C6.58594 4.51823 6.52344 4.38932 6.39844 4.30078C6.27344 4.21224 6.09896 4.16797 5.875 4.16797C5.48438 4.16797 5.03906 4.29557 4.53906 4.55078L4.11328 3.69531C4.69401 3.36979 5.3099 3.20703 5.96094 3.20703C6.4974 3.20703 6.92318 3.33594 7.23828 3.59375C7.55599 3.85156 7.71484 4.19531 7.71484 4.625C7.71484 4.91146 7.64974 5.15885 7.51953 5.36719C7.38932 5.57552 7.14193 5.8099 6.77734 6.07031C6.52734 6.25521 6.36849 6.39583 6.30078 6.49219C6.23568 6.58854 6.20312 6.71484 6.20312 6.87109V7.10547H5.16797ZM5.04297 8.44141C5.04297 8.22266 5.10156 8.05729 5.21875 7.94531C5.33594 7.83333 5.50651 7.77734 5.73047 7.77734C5.94661 7.77734 6.11328 7.83464 6.23047 7.94922C6.35026 8.0638 6.41016 8.22786 6.41016 8.44141C6.41016 8.64714 6.35026 8.8099 6.23047 8.92969C6.11068 9.04688 5.94401 9.10547 5.73047 9.10547C5.51172 9.10547 5.34245 9.04818 5.22266 8.93359C5.10286 8.81641 5.04297 8.65234 5.04297 8.44141Z" fill="white"/>
</svg>
