<svg width="16" height="16" viewBox="0 0 16 16" fill="none" xmlns="http://www.w3.org/2000/svg">
<path d="M11.4633 1.37677C10.1286 1.36964 8.85973 1.95582 7.99998 2.97676C7.14562 1.94884 5.87325 1.361 4.53668 1.37677C2.03113 1.37677 0 3.40791 0 5.91346C0 10.2072 7.49366 14.3995 7.79747 14.5616C7.92005 14.6435 8.07992 14.6435 8.20253 14.5616C8.50634 14.3995 16 10.2679 16 5.91346C16 3.40791 13.9688 1.37677 11.4633 1.37677ZM7.99998 13.7514C6.8253 13.0628 0.810128 9.39703 0.810128 5.91346C0.810128 3.85534 2.47857 2.18686 4.53672 2.18686C5.79708 2.17031 6.97656 2.80603 7.6557 3.86786C7.79359 4.05801 8.05956 4.10038 8.24971 3.96245C8.28603 3.93609 8.31798 3.90419 8.3443 3.86786C9.47064 2.14531 11.7802 1.66197 13.5027 2.78831C14.5572 3.47784 15.1919 4.65349 15.1898 5.91342C15.1899 9.4375 9.17466 13.0831 7.99998 13.7514Z" fill="#333333"/>
</svg>
