<svg width="24" height="24" viewBox="0 0 24 24" fill="none" xmlns="http://www.w3.org/2000/svg">
<path d="M0.146294 13.6464C-0.0489681 13.8417 -0.0489682 14.1583 0.146294 14.3535C0.341556 14.5488 0.658138 14.5488 0.853401 14.3535L0.146294 13.6464ZM4.99985 9.5L5.3534 9.14645C5.15814 8.95118 4.84156 8.95118 4.64629 9.14645L4.99985 9.5ZM8.99985 13.5L8.6463 13.8535C8.84156 14.0488 9.15814 14.0488 9.3534 13.8535L8.99985 13.5ZM14.4998 8L14.8534 7.64645C14.6581 7.45118 14.3416 7.45118 14.1463 7.64645L14.4998 8ZM19.1463 13.3536C19.3416 13.5488 19.6581 13.5488 19.8534 13.3535C20.0487 13.1583 20.0487 12.8417 19.8534 12.6464L19.1463 13.3536ZM0.853401 14.3535L5.3534 9.85355L4.64629 9.14645L0.146294 13.6464L0.853401 14.3535ZM4.64629 9.85355L8.6463 13.8535L9.3534 13.1464L5.3534 9.14645L4.64629 9.85355ZM9.3534 13.8535L14.8534 8.35355L14.1463 7.64645L8.6463 13.1464L9.3534 13.8535ZM14.1463 8.35355L19.1463 13.3536L19.8534 12.6464L14.8534 7.64645L14.1463 8.35355Z" fill="#626696"/>
<path d="M10.4997 7C10.4997 7.82842 9.82809 8.49999 8.99966 8.49999C8.17124 8.49999 7.49966 7.82842 7.49966 7C7.49966 6.17157 8.17124 5.5 8.99966 5.5C9.82809 5.5 10.4997 6.17157 10.4997 7Z" stroke="#626696"/>
<rect x="0.5" y="1.5" width="19" height="19" rx="3.5" stroke="#626696"/>
<path d="M23.5003 18C23.5003 20.4853 21.4856 22.5 19.0003 22.5C16.5151 22.5 14.5003 20.4853 14.5003 18C14.5003 15.5147 16.5151 13.5 19.0003 13.5C21.4856 13.5 23.5003 15.5147 23.5003 18Z" fill="#E3E3E4" stroke="#626696"/>
<path d="M18.5003 20.5C18.5003 20.7761 18.7242 21 19.0003 21C19.2765 21 19.5003 20.7761 19.5003 20.5H18.5003ZM19.0003 15.5L19.3677 15.1609C19.2731 15.0583 19.1399 15 19.0003 15C18.8608 15 18.7276 15.0583 18.6329 15.1609L19.0003 15.5ZM16.6329 17.3275C16.4456 17.5304 16.4583 17.8468 16.6612 18.0341C16.8641 18.2214 17.1804 18.2087 17.3677 18.0058L16.6329 17.3275ZM20.6329 18.0058C20.8202 18.2087 21.1366 18.2214 21.3395 18.0341C21.5424 17.8468 21.555 17.5304 21.3677 17.3275L20.6329 18.0058ZM19.5003 20.5V15.5H18.5003V20.5H19.5003ZM18.6329 15.1609L16.6329 17.3275L17.3677 18.0058L19.3677 15.8391L18.6329 15.1609ZM18.6329 15.8391L20.6329 18.0058L21.3677 17.3275L19.3677 15.1609L18.6329 15.8391Z" fill="#626696"/>
</svg>
