<svg width="24" height="24" viewBox="0 0 24 24" fill="none" xmlns="http://www.w3.org/2000/svg">
<path d="M0.146447 13.6464C-0.0488155 13.8417 -0.0488155 14.1583 0.146447 14.3536C0.341709 14.5488 0.658291 14.5488 0.853553 14.3536L0.146447 13.6464ZM5 9.5L5.35355 9.14645C5.15829 8.95118 4.84171 8.95118 4.64645 9.14645L5 9.5ZM9 13.5L8.64645 13.8536C8.84171 14.0488 9.15829 14.0488 9.35355 13.8536L9 13.5ZM14.5 8L14.8536 7.64645C14.6583 7.45118 14.3417 7.45118 14.1464 7.64645L14.5 8ZM19.1464 13.3536C19.3417 13.5488 19.6583 13.5488 19.8536 13.3536C20.0488 13.1583 20.0488 12.8417 19.8536 12.6464L19.1464 13.3536ZM0.853553 14.3536L5.35355 9.85355L4.64645 9.14645L0.146447 13.6464L0.853553 14.3536ZM4.64645 9.85355L8.64645 13.8536L9.35355 13.1464L5.35355 9.14645L4.64645 9.85355ZM9.35355 13.8536L14.8536 8.35355L14.1464 7.64645L8.64645 13.1464L9.35355 13.8536ZM14.1464 8.35355L19.1464 13.3536L19.8536 12.6464L14.8536 7.64645L14.1464 8.35355Z" fill="#333333"/>
<circle cx="9" cy="7" r="1.5" stroke="#333333"/>
<rect x="0.5" y="1.5" width="19" height="19" rx="3.5" stroke="#333333"/>
<circle cx="19" cy="18" r="4.5" fill="white" stroke="#333333"/>
<path d="M18.5 20.5C18.5 20.7761 18.7239 21 19 21C19.2761 21 19.5 20.7761 19.5 20.5H18.5ZM19 15.5L19.3674 15.1609C19.2727 15.0583 19.1395 15 19 15C18.8605 15 18.7273 15.0583 18.6326 15.1609L19 15.5ZM16.6326 17.3275C16.4453 17.5304 16.4579 17.8468 16.6609 18.0341C16.8638 18.2214 17.1801 18.2087 17.3674 18.0058L16.6326 17.3275ZM20.6326 18.0058C20.8199 18.2087 21.1362 18.2214 21.3391 18.0341C21.5421 17.8468 21.5547 17.5304 21.3674 17.3275L20.6326 18.0058ZM19.5 20.5V15.5H18.5V20.5H19.5ZM18.6326 15.1609L16.6326 17.3275L17.3674 18.0058L19.3674 15.8391L18.6326 15.1609ZM18.6326 15.8391L20.6326 18.0058L21.3674 17.3275L19.3674 15.1609L18.6326 15.8391Z" fill="#333333"/>
</svg>
