<svg width="77" height="39" viewBox="0 0 77 39" fill="none" xmlns="http://www.w3.org/2000/svg">
<path d="M5.3267 11.8288C5.34414 11.6953 5.38775 11.5701 5.45752 11.4532C5.5273 11.3197 5.6494 11.1862 5.82384 11.0527L6.73962 10.2516C6.56519 9.96786 6.31225 9.826 5.98083 9.826C5.56218 9.826 5.17843 9.95117 4.82956 10.2015C4.48069 10.4519 4.18415 10.7857 3.93994 11.2029C3.71317 11.6201 3.54746 12.1041 3.4428 12.6549C3.35558 13.2057 3.3643 13.7731 3.46896 14.3573C3.60851 15.0082 3.86144 15.5172 4.22776 15.8844C4.61151 16.2516 5.13482 16.4518 5.79767 16.4852C6.26865 16.4852 6.73962 16.4101 7.2106 16.2599C7.69901 16.093 8.16127 15.876 8.59735 15.609C9.03344 15.3253 9.43464 14.9998 9.80095 14.6326C10.1847 14.2655 10.5074 13.8566 10.7691 13.406C10.8737 13.2391 10.9958 13.1556 11.1354 13.1556C11.2749 13.1556 11.4145 13.2224 11.554 13.3559C11.6936 13.4894 11.7721 13.6062 11.7895 13.7064C11.807 13.7898 11.807 13.8816 11.7895 13.9817C11.7895 14.0652 11.7721 14.157 11.7372 14.2571C11.5976 14.6911 11.3098 15.1667 10.8737 15.6841C10.4376 16.2015 9.90562 16.6855 9.27765 17.1361C8.66713 17.5867 7.98683 17.9623 7.23676 18.2627C6.48669 18.5631 5.73662 18.7133 4.98655 18.7133C3.50385 18.7133 2.3613 18.3962 1.5589 17.762C0.773941 17.1111 0.276801 16.1431 0.0674788 14.858C-0.0546257 14.1403 -0.011017 13.3976 0.198305 12.6299C0.407627 11.8621 0.756497 11.1612 1.24492 10.527C1.73333 9.87607 2.34386 9.33365 3.07648 8.89972C3.82655 8.44909 4.68129 8.18206 5.64068 8.09861C5.83256 8.06523 6.04188 8.04854 6.26865 8.04854C6.49541 8.03185 6.73962 8.04019 7.00127 8.07357C7.26293 8.10695 7.52458 8.15702 7.78623 8.22378C8.04788 8.29054 8.28337 8.39902 8.49269 8.54923C8.71946 8.68275 8.91134 8.85799 9.06833 9.07496C9.24276 9.27524 9.36487 9.52558 9.43464 9.826C9.50442 10.2766 9.49569 10.7022 9.40848 11.1028C9.3387 11.4866 9.2166 11.8288 9.04216 12.1292C8.86773 12.4129 8.65841 12.6382 8.4142 12.8051C8.18743 12.972 7.94322 13.0555 7.68157 13.0555C7.48969 13.0555 7.26293 13.0304 7.00127 12.9804C6.73962 12.9136 6.48669 12.8302 6.24248 12.73C6.01571 12.6299 5.81511 12.5047 5.64068 12.3545C5.46624 12.2043 5.36158 12.029 5.3267 11.8288Z" fill="#FB3957"/>
<path d="M19.0422 15.2585C18.798 15.6591 18.4927 16.0763 18.1264 16.5102C17.7775 16.9275 17.3676 17.303 16.8966 17.6368C16.4431 17.9706 15.9373 18.246 15.3791 18.4629C14.8209 18.6799 14.2365 18.7884 13.626 18.7884C13.1027 18.7884 12.6143 18.6966 12.1607 18.513C11.7072 18.3461 11.2973 18.1208 10.931 17.8371C10.5821 17.5367 10.2943 17.1945 10.0675 16.8107C9.8233 16.4101 9.66631 15.9845 9.59654 15.5339C9.45699 14.6827 9.52676 13.8232 9.80586 12.9553C10.085 12.0875 10.4949 11.2947 11.0356 10.577C11.5764 9.85938 12.2043 9.27524 12.9195 8.82461C13.6522 8.37399 14.4022 8.14868 15.1697 8.14868C15.6233 8.14868 16.0419 8.26551 16.4257 8.49916C16.7397 8.41571 17.0188 8.37399 17.263 8.37399C17.9956 8.37399 18.5625 8.56592 18.9637 8.94978C19.3823 9.33365 19.6702 9.80096 19.8272 10.3517C20.0016 10.8858 20.0626 11.4616 20.0103 12.0791C19.9754 12.6799 19.8533 13.2057 19.644 13.6563C19.8533 13.8399 20.0888 13.9317 20.3505 13.9317C20.7168 13.9317 21.022 13.8065 21.2662 13.5562C21.5105 13.3058 21.7808 13.0137 22.0774 12.6799C22.2518 12.4797 22.3826 12.3795 22.4698 12.3795C22.6792 12.4129 22.8362 12.488 22.9408 12.6048C23.0629 12.705 23.1414 12.8302 23.1763 12.9804C23.1938 13.2641 23.1327 13.5645 22.9932 13.8816C22.871 14.182 22.6792 14.4658 22.4175 14.7328C22.1733 14.9831 21.8768 15.1918 21.5279 15.3587C21.179 15.5256 20.8127 15.609 20.429 15.609C20.2022 15.609 19.9667 15.584 19.7225 15.5339C19.4957 15.4838 19.269 15.392 19.0422 15.2585ZM14.3848 16.4852C14.7511 16.4685 15.0825 16.3517 15.3791 16.1347C15.693 15.9011 15.9547 15.6173 16.164 15.2836C16.3908 14.9331 16.5652 14.5492 16.6873 14.132C16.8094 13.698 16.8705 13.2724 16.8705 12.8552C16.7484 12.7551 16.6175 12.6132 16.478 12.4296C16.3385 12.246 16.2076 12.0457 16.0855 11.8288C15.9634 11.6118 15.8588 11.3865 15.7715 11.1528C15.6843 10.9025 15.6233 10.6605 15.5884 10.4268C15.5709 10.3434 15.5709 10.2683 15.5884 10.2015C15.6058 10.1181 15.6233 10.0513 15.6407 10.0012C15.257 10.1514 14.8906 10.4018 14.5418 10.7523C14.1929 11.1028 13.8964 11.5033 13.6522 11.9539C13.4079 12.3879 13.2161 12.8468 13.0765 13.3308C12.9544 13.8149 12.9282 14.2738 12.998 14.7078C13.0329 14.9247 13.0852 15.1417 13.155 15.3587C13.2248 15.5589 13.312 15.7425 13.4167 15.9094C13.5213 16.0763 13.6522 16.2182 13.8091 16.335C13.9836 16.4351 14.1755 16.4852 14.3848 16.4852Z" fill="#FB3957"/>
<path d="M35.2205 14.5826C35.2031 14.9664 35.0025 15.4004 34.6187 15.8844C34.2349 16.3517 33.7552 16.8023 33.1796 17.2363C32.6214 17.6535 32.0109 18.004 31.348 18.2877C30.7026 18.5714 30.1096 18.7133 29.5688 18.7133C28.8362 18.7133 28.2257 18.5714 27.7372 18.2877C27.2488 17.9873 26.9523 17.5617 26.8476 17.0109C26.7778 16.577 26.8215 16.0847 26.9784 15.5339C27.1529 14.9664 27.3448 14.4157 27.5541 13.8816C27.7634 13.3475 27.9553 12.8552 28.1297 12.4046C28.3216 11.9373 28.4001 11.5868 28.3652 11.3531C28.121 11.303 27.8506 11.3281 27.5541 11.4282C27.0133 11.6118 26.5598 11.9706 26.1935 12.5047C25.8272 13.0388 25.5306 13.6396 25.3039 14.3072C25.0771 14.9748 24.9027 15.6507 24.7806 16.335C24.6759 17.0026 24.6149 17.5617 24.5974 18.0123C24.58 18.2627 24.4666 18.4296 24.2573 18.513C24.0654 18.6132 23.7078 18.6632 23.1845 18.6632C23.0449 18.6632 22.8094 18.5965 22.478 18.4629C22.164 18.3294 21.8937 18.029 21.6669 17.5617C21.5797 17.3781 21.5099 17.1695 21.4576 16.9358C21.4052 16.7022 21.3704 16.4435 21.3529 16.1598V16.1848C21.318 15.6173 21.3355 15.0082 21.4052 14.3573C21.4576 13.7064 21.5535 13.0638 21.6931 12.4296C21.8326 11.7954 21.9983 11.1862 22.1902 10.6021C22.3821 10.0179 22.5914 9.50889 22.8182 9.07496C23.0624 8.62434 23.3066 8.2655 23.5508 7.99847C23.8125 7.73143 24.0741 7.59791 24.3358 7.59791C24.5451 7.59791 24.7806 7.6146 25.0422 7.64798C25.3039 7.68136 25.5481 7.73978 25.7748 7.82323C26.0016 7.88999 26.1935 7.98178 26.3505 8.09861C26.5075 8.21544 26.6034 8.34895 26.6383 8.49916C26.6557 8.56592 26.6296 8.6744 26.5598 8.82461C26.49 8.97482 26.4115 9.15006 26.3243 9.35034C26.2371 9.53393 26.1412 9.7342 26.0365 9.95117C25.9493 10.1681 25.8882 10.3768 25.8533 10.577C26.1324 10.2599 26.4377 9.95952 26.7691 9.67579C27.1006 9.37537 27.4407 9.11668 27.7896 8.89972C28.1384 8.68275 28.4873 8.50751 28.8362 8.37399C29.2025 8.24047 29.5426 8.17371 29.8566 8.17371C30.1183 8.17371 30.3799 8.20709 30.6416 8.27385C30.9207 8.34061 31.1736 8.44075 31.4004 8.57427C31.6446 8.69109 31.8452 8.8413 32.0022 9.02489C32.1766 9.20848 32.2813 9.42544 32.3162 9.67579C32.3685 10.0763 32.29 10.5603 32.0807 11.1278C31.8713 11.6953 31.6359 12.2794 31.3742 12.8802C31.1126 13.4811 30.8771 14.0652 30.6677 14.6326C30.4759 15.1834 30.4061 15.6424 30.4584 16.0096C30.4933 16.2933 30.6677 16.4351 30.9817 16.4351C31.3132 16.4351 31.7231 16.2766 32.2115 15.9595C32.6999 15.6257 33.1447 15.1918 33.5459 14.6577L34.1739 13.8566C34.1913 13.8399 34.2262 13.8065 34.2786 13.7564C34.3309 13.7064 34.3919 13.6813 34.4617 13.6813C34.6885 13.6813 34.8629 13.7898 34.985 14.0068C35.1071 14.2071 35.1856 14.399 35.2205 14.5826Z" fill="#FB3957"/>
<path d="M36.9938 15.2585C37.0636 15.5422 37.238 15.8093 37.5171 16.0596C37.7962 16.31 38.084 16.4351 38.3806 16.4351C38.8515 16.4351 39.2789 16.1931 39.6627 15.7091C40.0639 15.2251 40.3953 14.5826 40.6569 13.7815C40.9186 12.9637 41.1018 12.0374 41.2064 11.0026C41.3111 9.96786 41.3111 8.89972 41.2064 7.79819C41.1192 7.09722 40.9797 6.49639 40.7878 5.9957C40.6133 5.47831 40.4302 5.01935 40.2383 4.61879C40.0464 4.21824 39.872 3.85106 39.715 3.51727C39.558 3.18347 39.4708 2.84133 39.4534 2.49085C39.401 2.19043 39.4446 1.94843 39.5842 1.76484C39.7237 1.56457 39.9069 1.41436 40.1336 1.31422C40.3779 1.19739 40.6395 1.12229 40.9186 1.08891C41.2151 1.03884 41.4855 1.00546 41.7297 0.98877C42.0612 0.98877 42.3839 1.13063 42.6978 1.41436C43.0293 1.68139 43.3258 2.05691 43.5875 2.54092C43.8491 3.00823 44.0759 3.55899 44.2678 4.1932C44.4771 4.82741 44.6253 5.50335 44.7126 6.22101C44.7998 7.02212 44.8434 7.88164 44.8434 8.79958C44.8608 9.70082 44.8085 10.6021 44.6864 11.5033C44.5643 12.3879 44.355 13.2474 44.0584 14.0819C43.7619 14.8997 43.3607 15.6424 42.8548 16.31C42.349 16.9609 41.7123 17.5033 40.9448 17.9372C40.1773 18.3712 39.2615 18.6298 38.1974 18.7133C37.9532 18.7467 37.7003 18.755 37.4386 18.7383C37.1944 18.7383 36.9502 18.7216 36.706 18.6883C35.9385 18.5547 35.2843 18.246 34.7436 17.762C34.2203 17.278 33.8889 16.6521 33.7493 15.8844C33.54 14.5659 33.5662 13.4143 33.8278 12.4296C34.072 11.4449 34.4732 10.6271 35.0314 9.97621C35.6071 9.3253 36.2786 8.8413 37.0461 8.5242C37.8137 8.1904 38.6073 8.0235 39.4272 8.0235C39.7063 8.0235 39.9418 8.08192 40.1336 8.19875C40.3255 8.29888 40.4389 8.45744 40.4738 8.6744C40.5436 9.02489 40.4302 9.2502 40.1336 9.35034C39.6452 9.48386 39.183 9.72586 38.7469 10.0763C38.3108 10.4101 37.9445 10.8357 37.6479 11.3531C37.3514 11.8705 37.1334 12.463 36.9938 13.1306C36.8717 13.7982 36.8717 14.5075 36.9938 15.2585Z" fill="#FB3957"/>
<path d="M52.9902 14.4073C53.0425 14.8079 52.8855 15.2669 52.5192 15.7842C52.1703 16.2849 51.7168 16.7522 51.1586 17.1862C50.6004 17.6201 49.9986 17.9873 49.3532 18.2877C48.7253 18.5881 48.1496 18.7383 47.6263 18.7383C46.8414 18.7383 46.2832 18.5881 45.9517 18.2877C45.6377 17.9873 45.4284 17.5116 45.3238 16.8607C45.2714 16.5436 45.2453 16.1264 45.2453 15.609C45.2278 15.0749 45.254 14.5075 45.3238 13.9066C45.3761 13.2891 45.472 12.6633 45.6116 12.029C45.7511 11.3948 45.9343 10.819 46.1611 10.3017C46.4053 9.76758 46.6931 9.3253 47.0245 8.97482C47.3559 8.60764 47.7484 8.39068 48.2019 8.32392C48.6555 8.27385 49.048 8.29054 49.3794 8.37399C49.7108 8.45744 49.9376 8.58261 50.0597 8.74951C50.1818 8.91641 50.2603 9.07496 50.2952 9.22517C50.3126 9.54227 50.2952 9.83434 50.2428 10.1014C50.208 10.3517 50.1382 10.6188 50.0335 10.9025C49.9463 11.1695 49.8416 11.4616 49.7195 11.7787C49.5974 12.0958 49.4666 12.4797 49.3271 12.9303C49.2049 13.3142 49.0741 13.7648 48.9346 14.2822C48.795 14.7829 48.7078 15.3002 48.6729 15.8343C48.7078 16.1013 48.8735 16.2349 49.1701 16.2349C49.5364 16.2349 49.9637 16.0179 50.4522 15.584C50.958 15.1333 51.4813 14.616 52.0221 14.0318C52.057 13.9817 52.1093 13.9233 52.1791 13.8566C52.2488 13.7898 52.3012 13.7564 52.3361 13.7564C52.4756 13.7731 52.6064 13.8482 52.7285 13.9817C52.8681 14.0986 52.9553 14.2404 52.9902 14.4073ZM49.955 6.82184C49.5364 6.80515 49.1526 6.69667 48.8037 6.49639C48.4723 6.27942 48.2368 5.88721 48.0973 5.31976C48.045 4.86914 48.0537 4.46024 48.1235 4.09307C48.2107 3.72589 48.3328 3.40878 48.4898 3.14175C48.6642 2.85802 48.8648 2.64106 49.0916 2.49085C49.3358 2.34064 49.5887 2.26554 49.8504 2.26554C50.0597 2.26554 50.3126 2.29892 50.6091 2.36568C50.9231 2.43243 51.2197 2.52423 51.4988 2.64106C51.7953 2.75788 52.0482 2.89975 52.2576 3.06664C52.4843 3.23354 52.6152 3.41713 52.65 3.61741C52.6849 3.81768 52.5541 4.05969 52.2576 4.34341C52.0482 4.54369 51.8651 4.78569 51.7081 5.06942C51.5511 5.35314 51.4028 5.62852 51.2633 5.89556C51.1237 6.14591 50.9755 6.36287 50.8185 6.54646C50.6789 6.73005 50.5219 6.82184 50.3475 6.82184H49.955Z" fill="#FB3957"/>
<path d="M28.0427 28.5622C28.4575 28.5622 28.7944 28.6718 29.0536 28.8909C29.3301 29.1101 29.5289 29.3883 29.6498 29.7255C29.7708 30.0458 29.8313 30.3998 29.8313 30.7876C29.8313 31.1754 29.7708 31.5379 29.6498 31.875C29.9781 32.0605 30.2892 32.2038 30.583 32.305C30.8767 32.3893 31.1446 32.4483 31.3865 32.482C31.6284 32.5157 31.8358 32.541 32.0086 32.5579C32.1987 32.5579 32.3629 32.5663 32.5011 32.5831C32.743 32.5326 32.8899 32.6084 32.9418 32.8107C32.9936 33.0131 33.0022 33.2407 32.9677 33.4936C32.9331 33.8307 32.7949 34.0668 32.5529 34.2017C32.3283 34.3365 32.0864 34.4208 31.8272 34.4545C31.6198 34.4714 31.3865 34.4545 31.1273 34.404C30.8681 34.3365 30.6089 34.2607 30.3497 34.1764C30.1078 34.0752 29.8658 33.9656 29.6239 33.8476C29.3993 33.7296 29.2092 33.6116 29.0536 33.4936C28.8808 33.8813 28.6303 34.3702 28.3019 34.9603C27.9909 35.5335 27.5762 36.0899 27.0577 36.6294C26.5566 37.1521 25.9604 37.6073 25.2692 37.995C24.578 38.3659 23.7831 38.5514 22.8845 38.5514C21.9168 38.5514 21.1824 38.2816 20.6812 37.7421C20.1801 37.2026 19.9554 36.4102 20.0073 35.365C20.0246 34.8086 20.0678 34.0921 20.1369 33.2154C20.206 32.3387 20.3097 31.403 20.4479 30.4083C20.5862 29.4136 20.7676 28.4104 20.9923 27.3989C21.2342 26.3704 21.5193 25.4263 21.8477 24.5665C22.1933 23.6898 22.5907 22.948 23.04 22.341C23.5066 21.7341 24.0423 21.3463 24.6471 21.1777C24.889 21.144 25.1569 21.1524 25.4507 21.203C25.7444 21.2367 26.0123 21.3126 26.2542 21.4306C26.6344 21.5149 26.9541 21.6835 27.2133 21.9364C27.4898 22.1893 27.6539 22.459 27.7058 22.7457C27.7403 22.8974 27.7317 23.0491 27.6798 23.2009C27.628 23.3526 27.5243 23.5043 27.3688 23.6561C27.0405 24.0101 26.7035 24.4822 26.3579 25.0723C26.0296 25.6455 25.7099 26.2946 25.3988 27.0195C25.0878 27.7445 24.794 28.5116 24.5175 29.3208C24.2583 30.1132 24.0337 30.8972 23.8436 31.6727C23.6708 32.4483 23.5412 33.1901 23.4548 33.8982C23.3856 34.5894 23.3856 35.1964 23.4548 35.719C23.5412 36.0393 23.7831 36.1995 24.1805 36.1995C24.5434 36.1995 24.9063 36.0815 25.2692 35.8454C25.6321 35.6094 25.9604 35.3059 26.2542 34.935C26.548 34.5641 26.7813 34.1511 26.9541 33.6959C27.1441 33.2238 27.2305 32.7686 27.2133 32.3303C26.8158 31.9593 26.4616 31.5547 26.1505 31.1164C25.8567 30.678 25.6926 30.2734 25.658 29.9025C25.6407 29.5147 25.8049 29.1944 26.1505 28.9415C26.4961 28.6886 27.1269 28.5622 28.0427 28.5622Z" fill="#FB3957"/>
<path d="M45.4659 33.8729C45.5005 34.2438 45.345 34.6906 44.9994 35.2132C44.6538 35.719 44.2131 36.2164 43.6774 36.7053C43.159 37.1773 42.5887 37.582 41.9666 37.9192C41.3445 38.2563 40.7829 38.4249 40.2818 38.4249C39.6079 38.4249 39.0549 38.2985 38.6229 38.0456C38.2081 37.7927 37.9316 37.3207 37.7934 36.6294C37.3787 37.2701 36.8775 37.7421 36.29 38.0456C35.7025 38.3491 35.1581 38.5177 34.657 38.5514C33.8102 38.5514 33.0758 38.3322 32.4537 37.8939C31.8489 37.4387 31.4687 36.7306 31.3132 35.7696C31.175 34.8929 31.2959 33.9909 31.6761 33.0636C32.0563 32.1195 32.5833 31.2597 33.2573 30.4841C33.9312 29.7086 34.6829 29.0764 35.5124 28.5875C36.3591 28.0817 37.1713 27.8288 37.9489 27.8288C38.139 27.8288 38.3118 27.8541 38.4673 27.9046C38.6401 27.9384 38.7957 27.9805 38.9339 28.0311L39.1672 27.3483C39.2018 27.2471 39.2968 27.1628 39.4523 27.0954C39.6079 27.028 39.7547 26.9942 39.893 26.9942C40.1176 26.9942 40.3682 27.028 40.6447 27.0954C40.9212 27.1628 41.1804 27.2556 41.4223 27.3736C41.6642 27.4916 41.8802 27.6349 42.0703 27.8035C42.2604 27.9721 42.39 28.1575 42.4591 28.3599C42.4419 28.579 42.3295 29.1354 42.1222 30.0289C41.9321 30.9225 41.6124 32.2628 41.1631 34.0499C41.0249 34.5726 40.9212 35.0868 40.8521 35.5926C40.8693 35.8792 41.0594 36.0225 41.4223 36.0225C41.8025 36.0225 42.1913 35.8454 42.5887 35.4914C43.0035 35.1374 43.4441 34.6906 43.9107 34.1511L44.5069 33.3924C44.6451 33.2575 44.792 33.1901 44.9475 33.1901C45.0858 33.1901 45.1981 33.2744 45.2845 33.443C45.3709 33.5947 45.4314 33.738 45.4659 33.8729ZM36.0049 35.7949C36.3678 35.778 36.6529 35.7106 36.8603 35.5926C37.0849 35.4577 37.2577 35.2891 37.3787 35.0868C37.5169 34.8676 37.6206 34.6231 37.6897 34.3534C37.7761 34.0668 37.8625 33.7717 37.9489 33.4683C38.0872 32.8107 38.2254 32.1701 38.3637 31.5463C38.5192 30.9056 38.6661 30.265 38.8043 29.6243C38.7179 29.5063 38.5192 29.4641 38.2081 29.4979C37.7416 29.599 37.3009 29.8603 36.8862 30.2818C36.4887 30.7033 36.1431 31.1922 35.8493 31.7486C35.5729 32.305 35.3568 32.8698 35.2013 33.443C35.0631 34.0162 35.0199 34.5051 35.0717 34.9098C35.1236 35.2469 35.2272 35.483 35.3828 35.6178C35.5383 35.7359 35.7457 35.7949 36.0049 35.7949Z" fill="#FB3957"/>
<path d="M49.5242 35.0109C49.4723 34.6906 49.265 34.3534 48.9021 33.9993C48.5392 33.6453 48.1417 33.2744 47.7097 32.8866C47.2777 32.4988 46.8803 32.1027 46.5174 31.698C46.1545 31.2934 45.9385 30.8888 45.8693 30.4841C45.8002 30.0627 45.8434 29.658 45.9989 29.2703C46.1545 28.8656 46.405 28.52 46.7506 28.2334C47.0963 27.9299 47.5196 27.6939 48.0208 27.5253C48.5392 27.3399 49.1094 27.2471 49.7315 27.2471C50.7511 27.2471 51.6238 27.4242 52.3495 27.7782C53.0753 28.1323 53.4987 28.6296 53.6197 29.2703C53.6542 29.5063 53.6369 29.7255 53.5678 29.9278C53.4987 30.1301 53.395 30.3071 53.2568 30.4589C53.1358 30.5937 52.9889 30.7033 52.8161 30.7876C52.6606 30.8719 52.5051 30.9141 52.3495 30.9141C52.0212 30.9141 51.7534 30.8129 51.546 30.6106C51.3386 30.3914 51.1572 30.1638 51.0017 29.9278C50.8461 29.6749 50.6906 29.4473 50.5351 29.245C50.3796 29.0258 50.1808 28.9162 49.9389 28.9162C49.6451 28.9162 49.4118 28.9921 49.239 29.1438C49.0662 29.2956 48.9971 29.4641 49.0317 29.6496C49.0662 29.9025 49.1958 30.1722 49.4205 30.4589C49.6451 30.7455 49.913 31.0405 50.224 31.344C50.5351 31.6306 50.8634 31.9256 51.209 32.2291C51.5719 32.5326 51.9089 32.8276 52.2199 33.1142C52.531 33.4008 52.7988 33.679 53.0235 33.9488C53.2481 34.2185 53.3777 34.463 53.4123 34.6821C53.4814 35.1374 53.4296 35.5926 53.2568 36.0478C53.084 36.4861 52.7902 36.8907 52.3755 37.2616C51.978 37.6157 51.4596 37.9107 50.8202 38.1468C50.1981 38.3828 49.4637 38.5177 48.6169 38.5514C48.1504 38.5851 47.6838 38.5598 47.2172 38.4755C46.0421 38.3406 45.1176 37.9697 44.4437 37.3628C43.787 36.739 43.4241 36.014 43.355 35.1879C43.3205 34.9182 43.3377 34.64 43.4069 34.3534C43.476 34.0668 43.597 33.8055 43.7698 33.5694C43.9426 33.3165 44.1586 33.1142 44.4178 32.9625C44.677 32.7939 44.9708 32.6927 45.2991 32.659C45.4892 32.6253 45.7225 32.6506 45.9989 32.7349C46.2754 32.8192 46.5433 32.9541 46.8025 33.1395C46.9407 33.2238 47.079 33.3503 47.2172 33.5188C47.3555 33.6706 47.4419 33.8476 47.4764 34.0499C47.5283 34.3702 47.4937 34.6231 47.3727 34.8086C47.2518 34.9772 47.1049 35.1121 46.9321 35.2132C46.7766 35.3144 46.6297 35.4071 46.4914 35.4914C46.3532 35.5588 46.2927 35.6516 46.31 35.7696C46.3446 36.0056 46.4914 36.1911 46.7506 36.3259C47.0099 36.444 47.4419 36.503 48.0467 36.503C48.5997 36.503 48.9971 36.3512 49.239 36.0478C49.4982 35.7443 49.5933 35.3987 49.5242 35.0109Z" fill="#FB3957"/>
<path d="M65.3652 33.1142C65.417 33.0299 65.5121 32.9878 65.6503 32.9878C65.9441 32.9878 66.1428 33.0721 66.2465 33.2407C66.3675 33.4093 66.4107 33.6116 66.3761 33.8476C66.2724 34.3871 66.0132 34.9266 65.5985 35.4661C65.201 36.0056 64.6826 36.503 64.0432 36.9582C63.4211 37.3965 62.7126 37.759 61.9177 38.0456C61.1228 38.3154 60.2934 38.4502 59.4293 38.4502C58.8073 38.4502 58.2197 38.3659 57.6667 38.1973C57.131 38.0456 56.6558 37.818 56.2411 37.5145C55.8264 37.2111 55.4808 36.8486 55.2043 36.4271C54.9278 36.0056 54.7377 35.5251 54.634 34.9856C54.4958 34.2101 54.4871 33.4008 54.6081 32.5579C54.7118 31.7149 54.9623 30.9562 55.3598 30.2818C55.5672 29.9278 55.8264 29.5906 56.1374 29.2703C56.4657 28.9499 56.8459 28.6718 57.2779 28.4357C57.7272 28.1828 58.237 27.9889 58.8073 27.8541C59.3775 27.7023 60.0082 27.6265 60.6995 27.6265C61.6845 27.6265 62.4362 27.8288 62.9546 28.2334C63.4903 28.6212 63.8186 29.1438 63.9396 29.8013C64.026 30.4083 63.9309 30.9815 63.6544 31.521C63.3779 32.0436 62.9719 32.5073 62.4362 32.9119C61.9177 33.2997 61.2956 33.6116 60.5699 33.8476C59.8614 34.0836 59.1097 34.2017 58.3148 34.2017C58.3666 34.7749 58.5394 35.2469 58.8332 35.6178C59.1269 35.9719 59.6367 36.1742 60.3625 36.2248C61.3993 36.1911 62.3325 35.8792 63.1619 35.2891C64.0087 34.699 64.7431 33.974 65.3652 33.1142ZM58.2111 32.6843C58.6085 32.7349 58.9887 32.6927 59.3516 32.5579C59.7318 32.4061 60.0514 32.2038 60.3107 31.9509C60.5871 31.698 60.7945 31.4114 60.9328 31.0911C61.0883 30.7539 61.1401 30.4336 61.0883 30.1301C61.0537 29.9278 60.976 29.7592 60.855 29.6243C60.7513 29.4894 60.5785 29.422 60.3366 29.422C60.0947 29.422 59.8527 29.5063 59.6108 29.6749C59.3862 29.8435 59.1701 30.0795 58.9628 30.383C58.7727 30.6696 58.6085 31.0152 58.4703 31.4198C58.332 31.8076 58.2456 32.2291 58.2111 32.6843Z" fill="#FB3957"/>
<path d="M68.4913 38.5008C68.2494 38.5008 68.0074 38.4587 67.7655 38.3744C67.5236 38.3069 67.2989 38.2058 67.0916 38.0709C66.8842 37.936 66.7114 37.7759 66.5732 37.5904C66.4349 37.3881 66.3571 37.1605 66.3399 36.9076C66.3053 36.4187 66.4868 35.9972 66.8842 35.6431C67.2817 35.2722 67.8433 35.0868 68.5691 35.0868C69.0356 35.0868 69.4072 35.1964 69.6837 35.4155C69.9601 35.6178 70.1329 35.896 70.2021 36.2501C70.2366 36.5198 70.2193 36.7896 70.1502 37.0593C70.0984 37.3291 69.9947 37.5735 69.8392 37.7927C69.7009 37.995 69.5108 38.1636 69.2689 38.2985C69.0443 38.4334 68.7851 38.5008 68.4913 38.5008ZM70.0465 21.8352C70.4613 21.1103 70.876 20.5792 71.2907 20.242C71.7055 19.888 72.2412 19.7362 72.8978 19.7868C72.9669 19.8037 73.0533 19.829 73.157 19.8627C73.278 19.8796 73.399 19.9133 73.5199 19.9639C73.8137 20.065 74.1247 20.2336 74.4531 20.4696C74.7814 20.6888 74.9628 20.9586 74.9974 21.2789C75.0147 21.4138 74.9456 21.6161 74.79 21.8858C74.6518 22.1556 74.4876 22.4085 74.2976 22.6445C73.8655 23.2852 73.4594 23.9848 73.0793 24.7435C72.6991 25.4853 72.3535 26.2609 72.0424 27.0701C71.7314 27.8625 71.4549 28.6633 71.213 29.4726C70.9711 30.265 70.7723 31.0321 70.6168 31.7739C70.565 32.0942 70.5304 32.3893 70.5131 32.659C70.4958 32.9288 70.444 33.1564 70.3576 33.3418C70.2885 33.5273 70.1675 33.6706 69.9947 33.7717C69.8219 33.8729 69.5627 33.9066 69.2171 33.8729C68.4567 33.8223 67.9556 33.5441 67.7137 33.0384C67.6273 32.8866 67.5668 32.718 67.5322 32.5326C67.5149 32.3471 67.5063 32.1448 67.5063 31.9256C67.5581 31.0995 67.6618 30.2228 67.8174 29.2956C67.9729 28.3683 68.163 27.4579 68.3876 26.5643C68.6123 25.6539 68.8628 24.7941 69.1393 23.9848C69.4331 23.1587 69.7355 22.4422 70.0465 21.8352Z" fill="#FB3957"/>
</svg>
