<svg width="331" height="283" viewBox="0 0 331 283" fill="none" xmlns="http://www.w3.org/2000/svg">
<g clip-path="url(#clip0)">
<g opacity="0.5">
<path opacity="0.5" d="M182.748 0.00931756L151.838 204.801L300.112 227.164L331.022 22.3723L182.748 0.00931756Z" fill="url(#paint0_linear)"/>
</g>
<path d="M184.409 1.80298L154.182 202.068L298.683 223.862L328.911 23.597L184.409 1.80298Z" fill="#F5F5F5"/>
<path d="M294.835 107.284L190.542 91.5542L189.588 97.8734L293.881 113.603L294.835 107.284Z" fill="#E0E0E0"/>
<path d="M292.451 123.078L188.158 107.349L187.205 113.668L291.497 129.397L292.451 123.078Z" fill="#E0E0E0"/>
<path d="M302.462 56.7352L248.735 48.6318L247.781 54.951L301.509 63.0544L302.462 56.7352Z" fill="#E0E0E0"/>
<path d="M295.34 71.819L251.093 65.1455L250.139 71.4647L294.386 78.1382L295.34 71.819Z" fill="#FD9CAB"/>
<path d="M277.425 136.969L185.772 123.146L184.818 129.465L276.472 143.288L277.425 136.969Z" fill="#E0E0E0"/>
<path d="M262.396 150.859L183.386 138.942L182.432 145.262L261.442 157.178L262.396 150.859Z" fill="#E0E0E0"/>
<path d="M250.532 165.224L181.002 154.738L180.048 161.057L249.578 171.544L250.532 165.224Z" fill="#E0E0E0"/>
<path d="M267.109 183.881L178.618 170.535L177.664 176.854L266.155 190.2L267.109 183.881Z" fill="#E0E0E0"/>
<path d="M211 191.572L176.237 186.329L175.283 192.648L210.046 197.891L211 191.572Z" fill="#FB3957"/>
<g opacity="0.5">
<path opacity="0.5" d="M238.552 57.3235C239.1 53.6831 238.697 49.9626 237.381 46.5242C236.065 43.0859 233.881 40.0467 231.041 37.7024C228.201 35.3582 224.803 33.7888 221.176 33.1469C217.55 32.5051 213.819 32.8126 210.346 34.0397C206.874 35.2668 203.779 37.3715 201.361 40.1491C198.944 42.9267 197.288 46.2826 196.553 49.89C195.818 53.4975 196.03 57.2337 197.168 60.735C198.306 64.2364 200.331 67.3835 203.047 69.8703C203.047 69.9006 203.047 69.9346 203.047 69.9649C203.635 70.7324 204.369 71.3754 205.208 71.8567L205.25 71.7659C206.109 72.7611 210.064 74.7437 214.845 75.4513H214.951C217.979 75.9129 221.344 75.8713 224.467 74.7437C224.467 74.7437 224.501 74.6908 224.558 74.5924C225.342 74.3584 226.083 73.9994 226.753 73.5291L226.821 73.2946C229.925 71.7815 232.614 69.5373 234.657 66.7552C236.7 63.9731 238.037 60.7363 238.552 57.3235Z" fill="url(#paint1_linear)"/>
</g>
<path d="M237.824 56.4515C239.529 45.155 231.75 34.6156 220.449 32.9112C209.149 31.2068 198.605 38.9828 196.9 50.2793C195.195 61.5758 202.974 72.1151 214.275 73.8195C225.576 75.5239 236.119 67.748 237.824 56.4515Z" fill="#F5F5F5"/>
<path d="M207.93 60.1803C207.93 60.1803 203.009 59.8436 202.945 68.9169C203.516 69.6587 204.229 70.2799 205.042 70.7445L209.182 61.8792L207.93 60.1803Z" fill="#FDA57D"/>
<path d="M223.752 62.5679C223.752 62.5679 228.566 63.703 225.939 72.3866C225.175 72.9296 224.31 73.3154 223.396 73.5218L222.052 63.8316L223.752 62.5679Z" fill="#FDA57D"/>
<path d="M210.337 45.666C210.337 45.666 206.998 52.0643 205.829 51.2394C205.829 51.2394 216.45 63.6236 228.824 54.7053C227.861 52.2949 226.613 50.0084 225.107 47.8946L210.337 45.666Z" fill="#333333"/>
<path d="M227.348 47.5891C228.103 42.5824 224.656 37.9114 219.647 37.156C214.639 36.4006 209.966 39.8469 209.21 44.8536C208.455 49.8602 211.902 54.5313 216.911 55.2867C221.919 56.0421 226.592 52.5958 227.348 47.5891Z" fill="#333333"/>
<path opacity="0.1" d="M223.657 62.5527L207.835 60.1689L205.405 66.2721C205.405 66.2721 204.095 69.0683 204.981 70.5212C205.867 71.9742 215.5 76.42 223.528 73.5482C224.429 71.9587 224.782 70.1176 224.535 68.3077C224.138 65.2278 224.357 68.0656 224.357 68.0656L223.657 62.5527Z" fill="black"/>
<path opacity="0.1" d="M223.869 62.5864L208.047 60.2026L205.621 66.302C205.621 66.302 204.311 69.0982 205.197 70.5511C206.082 72.0041 215.716 76.45 223.744 73.5781C224.644 71.9886 224.998 70.1476 224.751 68.3377C224.353 65.2577 224.573 68.0955 224.573 68.0955L223.869 62.5864Z" fill="black"/>
<path d="M223.752 62.5678L207.93 60.1841L205.5 66.2872C205.5 66.2872 204.19 69.0834 205.076 70.5364C205.961 71.9893 215.595 76.4352 223.623 73.5633C224.523 71.9738 224.877 70.1328 224.63 68.3229C224.232 65.2429 224.452 68.0807 224.452 68.0807L223.752 62.5678Z" fill="#FDD835"/>
<path opacity="0.1" d="M213.57 55.6832L219.899 56.6377L219.037 62.3471C218.936 63.0149 218.574 63.6153 218.031 64.0163C217.487 64.4172 216.806 64.5859 216.138 64.4851L214.843 64.2898C214.175 64.1891 213.575 63.8271 213.173 63.2837C212.772 62.7402 212.604 62.0598 212.704 61.392L213.566 55.6826L213.57 55.6832Z" fill="black"/>
<path d="M213.601 55.4487L219.93 56.4033L219.068 62.1126C218.967 62.7804 218.605 63.3809 218.062 63.7818C217.518 64.1828 216.837 64.3514 216.169 64.2507L214.878 64.0559C214.21 63.9552 213.609 63.5933 213.208 63.0498C212.807 62.5064 212.638 61.8259 212.739 61.1581L213.601 55.4487Z" fill="#FDA57D"/>
<path opacity="0.1" d="M213.482 56.3437C215.407 57.4132 217.651 57.7581 219.807 57.3161L219.925 56.5404L213.596 55.5869L213.482 56.3437Z" fill="black"/>
<path d="M227.051 49.5554C227.806 44.5488 224.359 39.8777 219.35 39.1223C214.342 38.3669 209.669 41.8132 208.913 46.8199C208.158 51.8266 211.605 56.4976 216.614 57.253C221.622 58.0084 226.295 54.5621 227.051 49.5554Z" fill="#FDA57D"/>
<path d="M209.811 43.4295C209.811 43.4295 215.161 43.3162 218.533 43.8192C221.955 44.3295 227.109 46.0365 227.109 46.0365C227.109 46.0365 226.685 38.8474 220.08 38.2912C213.475 37.735 209.811 43.4295 209.811 43.4295Z" fill="#333333"/>
<path d="M209.999 46.5855C210.13 45.7114 209.86 44.946 209.395 44.8759C208.93 44.8057 208.446 45.4574 208.314 46.3315C208.182 47.2055 208.452 47.9709 208.918 48.0411C209.383 48.1112 209.867 47.4595 209.999 46.5855Z" fill="#FDA57D"/>
<path d="M227.719 49.2593C227.85 48.3853 227.58 47.6198 227.115 47.5497C226.65 47.4795 226.166 48.1312 226.034 49.0053C225.902 49.8793 226.172 50.6448 226.638 50.7149C227.103 50.785 227.587 50.1334 227.719 49.2593Z" fill="#FDA57D"/>
<path opacity="0.1" d="M209.784 43.6643C209.784 43.6643 215.146 43.7659 218.533 44.276C221.924 44.7867 227.083 46.2713 227.083 46.2713C227.083 46.2713 226.659 39.0822 220.053 38.526C213.448 37.9698 209.784 43.6643 209.784 43.6643Z" fill="black"/>
<path d="M209.376 43.2071C209.376 43.2071 208.964 36.8721 209.584 35.9706C209.584 35.9706 208.751 33.3486 208.848 32.7736C208.948 31.8039 208.79 30.8219 208.388 29.9185C207.9 28.8321 207.945 24.1694 212.041 23.7296C216.136 23.2898 219.299 22.8127 219.88 22.1413C220.462 21.4699 227.1 23.0507 228.443 26.2306C229.786 29.4106 231.056 29.0314 231.056 29.0314C231.056 29.0314 233.579 31.1669 233.329 32.6621C233.078 34.1573 232.105 34.7634 232.894 35.2499C233.684 35.7364 231.99 41.8382 228.245 41.3905L227.369 44.614C227.369 44.614 219.411 30.9305 209.376 43.2071Z" fill="#FB3957"/>
<path opacity="0.1" d="M212.853 25.0861C212.853 25.0861 211.186 29.7435 212.49 31.6162L212.853 25.0861Z" fill="black"/>
<path opacity="0.1" d="M217.079 24.6599C217.079 24.6599 214.018 29.4331 214.387 30.5109L217.079 24.6599Z" fill="black"/>
<path opacity="0.1" d="M219.255 23.3395C219.255 23.3395 216.647 29.7849 217.27 30.4405L219.255 23.3395Z" fill="black"/>
<path opacity="0.1" d="M221.508 25.5743C221.508 25.5743 218.946 29.5597 219.589 30.2768L221.508 25.5743Z" fill="black"/>
<path opacity="0.1" d="M224.9 26.6635C224.9 26.6635 222.143 29.8037 222.485 30.4994L224.9 26.6635Z" fill="black"/>
<path opacity="0.1" d="M228.785 30.8252C228.785 30.8252 226.367 31.0314 226.724 31.817L228.785 30.8252Z" fill="black"/>
<path opacity="0.1" d="M230.374 34.8357C230.374 34.8357 228.132 35.4489 228.433 36.0218L230.374 34.8357Z" fill="black"/>
<path opacity="0.1" d="M209.584 35.9686C209.584 35.9686 223.731 33.0544 228.247 41.3909C228.247 41.3909 222.211 34.5789 209.584 35.9686Z" fill="black"/>
<g opacity="0.5">
<path opacity="0.5" d="M148.577 29.4341L0.124268 53.4175L33.2743 258.456L181.727 234.473L148.577 29.4341Z" fill="url(#paint2_linear)"/>
</g>
<path d="M146.345 30.6311L2.13293 54.2637L34.91 254.127L179.122 230.495L146.345 30.6311Z" fill="#F5F5F5"/>
<path d="M139.66 120.717L35.5763 137.774L36.6105 144.08L140.694 127.024L139.66 120.717Z" fill="#E0E0E0"/>
<path d="M142.245 136.482L38.1614 153.539L39.1956 159.846L143.279 142.789L142.245 136.482Z" fill="#E0E0E0"/>
<path d="M131.391 70.2717L77.7708 79.0586L78.805 85.3651L132.425 76.5782L131.391 70.2717Z" fill="#E0E0E0"/>
<path d="M129.243 86.8124L85.0847 94.0488L86.119 100.355L130.278 93.1189L129.243 86.8124Z" fill="#FD9CAB"/>
<path d="M132.216 154.314L40.7466 169.304L41.7808 175.61L133.251 160.621L132.216 154.314Z" fill="#E0E0E0"/>
<path d="M122.183 172.143L43.3313 185.065L44.3656 191.371L123.218 178.45L122.183 172.143Z" fill="#E0E0E0"/>
<path d="M115.307 189.461L45.9167 200.833L46.951 207.139L116.341 195.768L115.307 189.461Z" fill="#E0E0E0"/>
<path d="M136.816 202.121L48.5023 216.594L49.5366 222.9L137.85 208.428L136.816 202.121Z" fill="#E0E0E0"/>
<path d="M85.7836 226.675L51.0902 232.36L52.1245 238.667L86.8178 232.982L85.7836 226.675Z" fill="#FD9CAB"/>
<g opacity="0.5">
<path opacity="0.5" d="M72.69 89.0916C72.077 85.3569 70.5072 81.8444 68.1334 78.896C65.7596 75.9476 62.6627 73.6637 59.144 72.2667C55.6254 70.8696 51.8048 70.4068 48.0542 70.9235C44.3035 71.4402 40.7506 72.9187 37.7411 75.2151C34.7316 77.5115 32.3681 80.5476 30.8806 84.0279C29.3931 87.5083 28.8323 91.3142 29.2527 95.0755C29.6731 98.8367 31.0604 102.425 33.2797 105.491C35.4989 108.558 38.4745 110.998 41.9167 112.573L41.947 112.668C42.765 113.229 43.6861 113.623 44.6572 113.826V113.724C45.8117 114.427 50.3084 115.12 55.2102 114.303H55.3162C58.4238 113.799 61.7017 112.694 64.4005 110.606C64.4005 110.606 64.4005 110.545 64.4384 110.432C65.1322 109.956 65.7444 109.37 66.2515 108.699C66.2515 108.613 66.2515 108.53 66.2515 108.449C68.8154 105.987 70.7414 102.938 71.8631 99.5655C72.9849 96.193 73.2687 92.5982 72.69 89.0916Z" fill="url(#paint3_linear)"/>
</g>
<path d="M54.4944 113.615C66.0881 111.715 73.9459 100.78 72.0453 89.1907C70.1447 77.6013 59.2054 69.7464 47.6116 71.6463C36.0179 73.5462 28.16 84.4815 30.0607 96.0709C31.9613 107.66 42.9006 115.515 54.4944 113.615Z" fill="#F5F5F5"/>
<path d="M50.5335 94.6995C55.6723 93.8574 59.1552 89.0105 58.3128 83.8736C57.4704 78.7368 52.6216 75.2552 47.4828 76.0973C42.344 76.9394 38.8611 81.7863 39.7036 86.9232C40.546 92.06 45.3948 95.5416 50.5335 94.6995Z" fill="#FFB820"/>
<path d="M59.4458 99.686L43.215 102.335L42.7646 109.073C42.7646 109.073 42.3861 112.225 43.692 113.364C44.9978 114.503 55.8499 115.816 62.7729 110.458C63.1518 108.619 62.9165 106.706 62.1029 105.014C60.7403 102.127 61.8493 104.832 61.8493 104.832L59.4458 99.686Z" fill="#4D8AF0"/>
<path d="M59.6616 99.6519L43.4309 102.3L42.9804 109.039C42.9804 109.039 42.6019 112.191 43.9078 113.33C45.2137 114.469 56.0657 115.782 62.9887 110.424C63.3677 108.585 63.1323 106.672 62.3188 104.979C60.9561 102.092 62.0651 104.798 62.0651 104.798L59.6616 99.6519Z" fill="#4D8AF0"/>
<path fill-rule="evenodd" clip-rule="evenodd" d="M59.5404 99.6707C59.5404 99.6707 64.6087 99.2583 64.7791 108.589C64.2578 109.278 63.6187 109.868 62.8919 110.332C62.8841 110.373 62.876 110.414 62.8675 110.454C56.0362 115.741 45.3792 114.533 43.8435 113.406L43.8207 113.587C42.8773 113.387 41.9831 113.001 41.19 112.452C38.4092 103.625 43.239 102.349 43.3089 102.331L43.3097 102.319L59.5404 99.6708L59.5404 99.6707Z" fill="#A2C2FD"/>
<path opacity="0.1" d="M47.4104 96.1263L53.9023 95.0625L54.8741 100.988C54.9834 101.655 54.8234 102.337 54.4292 102.886C54.035 103.434 53.4391 103.804 52.7723 103.913L51.3044 104.154C50.6377 104.263 49.9548 104.103 49.4061 103.709C48.8574 103.315 48.4877 102.719 48.3784 102.053L47.4066 96.127L47.4104 96.1263Z" fill="black"/>
<path d="M47.3717 95.8861L53.8636 94.8222L54.8354 100.748C54.9447 101.414 54.7847 102.097 54.3905 102.645C53.9964 103.194 53.4004 103.564 52.7336 103.673L51.2657 103.913C50.599 104.023 49.9161 103.863 49.3674 103.469C48.8187 103.075 48.449 102.479 48.3397 101.812L47.3679 95.8867L47.3717 95.8861Z" fill="#FFCCB5"/>
<path opacity="0.1" d="M47.5302 96.8217C49.7506 97.2613 52.055 96.8908 54.0255 95.7774L53.893 94.979L47.4015 96.046L47.5302 96.8217Z" fill="black"/>
<path d="M50.8675 96.719C56.0063 95.8769 59.4892 91.03 58.6468 85.8931C57.8043 80.7563 52.9556 77.2747 47.8168 78.1168C42.678 78.9589 39.1951 83.8058 40.0376 88.9427C40.88 94.0796 45.7287 97.5611 50.8675 96.719Z" fill="#FFCCB5"/>
<path opacity="0.1" d="M39.8993 85.5843C39.8993 85.5843 45.0697 84.0977 48.4614 83.5308C52.0149 82.9368 57.6479 82.6784 57.6479 82.6784C57.6479 82.6784 54.9566 75.7617 48.325 77.3206C41.6935 78.8795 39.8993 85.5843 39.8993 85.5843Z" fill="black"/>
<path d="M39.8577 85.3459C39.8577 85.3459 44.953 83.853 48.2985 83.2859C51.9029 82.675 57.6214 82.4362 57.6214 82.4362C57.6214 82.4362 54.9301 75.5195 48.2985 77.0784C41.667 78.6373 39.8577 85.3459 39.8577 85.3459Z" fill="#FFB820"/>
<path d="M39.4795 85.7372C39.4795 85.7372 37.4769 79.6955 37.8814 78.6696C37.8814 78.6696 36.3792 76.3314 36.3333 75.7502C36.1932 74.7853 35.7872 73.8718 35.1528 73.0942C34.3856 72.1603 33.265 67.6283 37.3132 66.1995C41.3613 64.7708 44.4537 63.5339 44.8766 62.7405C45.2994 61.9471 52.435 61.855 54.5942 64.6096C56.7534 67.3641 57.9481 66.6856 57.9481 66.6856C57.9481 66.6856 61.0448 68.1385 61.1641 69.6496C61.2834 71.1607 60.447 71.9866 61.3705 72.265C62.2941 72.5434 62.1003 78.8744 58.1855 79.3571L58.1024 82.6969C58.1024 82.6969 46.5985 71.3774 39.4795 85.7372Z" fill="#FB3957"/>
<path opacity="0.1" d="M38.4796 67.3179C38.4796 67.3179 37.952 72.2422 39.7444 73.7387L38.4796 67.3179Z" fill="black"/>
<path opacity="0.1" d="M42.6638 65.8692C42.6638 65.8692 40.7499 71.2471 41.394 72.2018L42.6638 65.8692Z" fill="black"/>
<path opacity="0.1" d="M44.5438 64.0551C44.5438 64.0551 43.5078 70.9438 44.3041 71.427L44.5438 64.0551Z" fill="black"/>
<path opacity="0.1" d="M47.3896 65.67C47.3896 65.67 45.785 70.1619 46.6174 70.6998L47.3896 65.67Z" fill="black"/>
<path opacity="0.1" d="M51.1056 65.895C51.1056 65.895 49.0923 69.6148 49.613 70.2058L51.1056 65.895Z" fill="black"/>
<path opacity="0.1" d="M56.0905 68.9786C56.0905 68.9786 53.6876 69.7704 54.2466 70.4447L56.0905 68.9786Z" fill="black"/>
<path opacity="0.1" d="M58.7053 72.4786C58.7053 72.4786 56.5831 73.6218 57.032 74.1036L58.7053 72.4786Z" fill="black"/>
<path opacity="0.1" d="M37.88 78.6691C37.88 78.6691 51.5159 72.3802 58.1857 79.3568C58.1857 79.3568 50.3536 74.2304 37.88 78.6691Z" fill="black"/>
<path d="M40.5399 90.6956C41.0201 90.6181 41.2914 89.8256 41.1459 88.9257C41.0004 88.0258 40.4932 87.3591 40.013 87.4367C39.5329 87.5143 39.2616 88.3067 39.4071 89.2066C39.5526 90.1065 40.0598 90.7732 40.5399 90.6956Z" fill="#FFCCB5"/>
<path d="M58.6062 87.1573C59.0848 87.0789 59.3536 86.2881 59.2065 85.391C59.0593 84.494 58.5521 83.8303 58.0735 83.9088C57.5949 83.9872 57.3262 84.778 57.4733 85.675C57.6204 86.5721 58.1276 87.2357 58.6062 87.1573Z" fill="#FFCCB5"/>
<g opacity="0.5">
<path opacity="0.5" d="M256.932 62.6094H106.98V269.719H256.932V62.6094Z" fill="url(#paint4_linear)"/>
</g>
<path d="M255.024 64.1343H108.887V266.666H255.024V64.1343Z" fill="white"/>
<g opacity="0.5">
<path opacity="0.5" d="M128.011 110.051C128.011 106.181 129.014 102.378 130.921 99.0103C132.828 95.6428 135.575 92.8263 138.894 90.8348C142.214 88.8433 145.992 87.7448 149.862 87.646C153.732 87.5472 157.561 88.4516 160.978 90.2711C164.394 92.0907 167.281 94.7634 169.358 98.0292C171.435 101.295 172.63 105.042 172.828 108.907C173.026 112.772 172.22 116.622 170.488 120.083C168.756 123.543 166.157 126.497 162.944 128.656V128.754C162.212 129.457 161.347 130.007 160.401 130.373L160.37 130.275C159.322 131.176 154.901 132.617 149.821 132.602H149.711C146.494 132.602 143.004 132.035 139.93 130.373C139.93 130.373 139.904 130.313 139.862 130.203C139.083 129.837 138.369 129.348 137.746 128.754L137.712 128.501C134.72 126.442 132.273 123.687 130.583 120.473C128.893 117.259 128.01 113.682 128.011 110.051Z" fill="url(#paint5_linear)"/>
</g>
<path d="M150.675 132.034C162.687 132.034 172.424 122.3 172.424 110.293C172.424 98.2857 162.687 88.5518 150.675 88.5518C138.663 88.5518 128.925 98.2857 128.925 110.293C128.925 122.3 138.663 132.034 150.675 132.034Z" fill="#F5F5F5"/>
<path d="M142.291 118.756C142.291 118.756 137.109 119.176 138.48 128.635C139.19 129.317 140.029 129.85 140.948 130.205L143.862 120.341L142.291 118.756Z" fill="#FDA57D"/>
<path d="M159.109 118.756C159.109 118.756 164.291 119.176 162.92 128.635C162.21 129.317 161.371 129.85 160.453 130.205L157.549 120.311L159.109 118.756Z" fill="#FDA57D"/>
<path d="M142.515 103.284C142.515 103.284 142.117 104.446 141.55 105.789C140.316 108.725 141.724 120.008 144.676 121.211C147.988 122.562 152.345 123.425 156.868 121.775C160.801 120.341 162.012 107.499 159.234 104.37C158.908 103.992 158.568 103.64 158.212 103.284H142.515Z" fill="#8C6000"/>
<path d="M150.838 112.252C156.163 112.252 160.479 107.937 160.479 102.615C160.479 97.2922 156.163 92.9775 150.838 92.9775C145.514 92.9775 141.198 97.2922 141.198 102.615C141.198 107.937 145.514 112.252 150.838 112.252Z" fill="#8C6000"/>
<path opacity="0.1" d="M159.01 118.756H142.193L140.622 125.48C140.622 125.48 139.699 128.594 140.845 129.963C141.992 131.333 152.704 134.447 160.577 130.186C161.263 128.393 161.342 126.425 160.801 124.583C159.904 121.446 160.577 124.36 160.577 124.36L159.01 118.756Z" fill="black"/>
<path opacity="0.1" d="M159.234 118.756H142.409L140.838 125.48C140.838 125.48 139.914 128.594 141.061 129.963C142.208 131.333 152.92 134.447 160.793 130.186C161.479 128.393 161.558 126.425 161.016 124.583C160.119 121.446 160.793 124.36 160.793 124.36L159.234 118.756Z" fill="black"/>
<path d="M159.109 118.756H142.291L140.721 125.48C140.721 125.48 139.797 128.594 140.944 129.963C142.091 131.333 152.803 134.447 160.676 130.186C161.362 128.393 161.44 126.425 160.899 124.583C160.002 121.446 160.676 124.36 160.676 124.36L159.109 118.756Z" fill="#F8F8FA"/>
<path opacity="0.1" d="M147.451 113.175H154.177V119.373C154.177 120.048 153.908 120.696 153.431 121.173C152.953 121.651 152.305 121.919 151.629 121.919H149.994C149.319 121.919 148.671 121.651 148.193 121.173C147.715 120.696 147.447 120.048 147.447 119.373V113.175H147.451Z" fill="black"/>
<path d="M147.451 112.925H154.177V119.123C154.177 119.798 153.908 120.446 153.431 120.924C152.953 121.401 152.305 121.67 151.629 121.67H149.994C149.319 121.67 148.671 121.401 148.193 120.924C147.715 120.446 147.447 119.798 147.447 119.123V112.925H147.451Z" fill="#FDA57D"/>
<path opacity="0.1" d="M147.462 113.879C149.632 114.682 152.018 114.682 154.188 113.879V113.054H147.462V113.879Z" fill="black"/>
<path d="M150.838 114.344C156.163 114.344 160.479 110.029 160.479 104.707C160.479 99.3845 156.163 95.0698 150.838 95.0698C145.514 95.0698 141.198 99.3845 141.198 104.707C141.198 110.029 145.514 114.344 150.838 114.344Z" fill="#FDA57D"/>
<path d="M141.618 101.048C141.618 101.048 147.207 99.4987 150.87 99.5063C154.489 99.5138 160.006 101.048 160.006 101.048C160.006 101.048 158.435 93.6244 151.486 94.1011C144.536 94.5779 141.618 101.048 141.618 101.048Z" fill="#8C6000"/>
<path d="M141.398 105.979C141.894 105.979 142.295 105.226 142.295 104.299C142.295 103.371 141.894 102.619 141.398 102.619C140.903 102.619 140.501 103.371 140.501 104.299C140.501 105.226 140.903 105.979 141.398 105.979Z" fill="#FDA57D"/>
<path d="M160.233 105.979C160.728 105.979 161.13 105.226 161.13 104.299C161.13 103.371 160.728 102.619 160.233 102.619C159.738 102.619 159.336 103.371 159.336 104.299C159.336 105.226 159.738 105.979 160.233 105.979Z" fill="#FDA57D"/>
<path opacity="0.1" d="M141.618 101.294C141.618 101.294 147.22 99.9563 150.87 99.9629C154.476 99.9694 160.006 101.294 160.006 101.294C160.006 101.294 158.435 93.8705 151.486 94.3472C144.536 94.824 141.618 101.294 141.618 101.294Z" fill="#333333"/>
<path d="M233.847 151.955H128.373V158.345H233.847V151.955Z" fill="#E0E0E0"/>
<path d="M233.847 167.929H128.373V174.32H233.847V167.929Z" fill="#E0E0E0"/>
<path d="M233.85 100.836H179.515V107.227H233.85V100.836Z" fill="#E0E0E0"/>
<path d="M229.055 116.811H184.307V123.202H229.055V116.811Z" fill="#FD9CAB"/>
<path d="M221.064 183.904H128.373V190.295H221.064V183.904Z" fill="#E0E0E0"/>
<path d="M208.278 199.879H128.373V206.27H208.278V199.879Z" fill="#E0E0E0"/>
<path d="M198.69 215.858H128.373V222.249H198.69V215.858Z" fill="#E0E0E0"/>
<path d="M217.866 231.833H128.373V238.223H217.866V231.833Z" fill="#E0E0E0"/>
<path d="M163.53 247.808H128.373V254.198H163.53V247.808Z" fill="#FD9CAB"/>
<g opacity="0.5">
<path opacity="0.5" d="M246.818 283.004C264.46 283.004 278.761 268.708 278.761 251.073C278.761 233.438 264.46 219.142 246.818 219.142C229.177 219.142 214.875 233.438 214.875 251.073C214.875 268.708 229.177 283.004 246.818 283.004Z" fill="url(#paint6_linear)"/>
</g>
<path d="M246.818 281.123C263.421 281.123 276.88 267.669 276.88 251.073C276.88 234.476 263.421 221.022 246.818 221.022C230.216 221.022 216.757 234.476 216.757 251.073C216.757 267.669 230.216 281.123 246.818 281.123Z" fill="#626696"/>
<path fill-rule="evenodd" clip-rule="evenodd" d="M265.502 241.318L244.393 268.416L228.023 252.072L231.902 248.199L243.878 260.155L261.172 237.956L265.502 241.318Z" fill="#FFF4F6"/>
</g>
<defs>
<linearGradient id="paint0_linear" x1="225.975" y1="215.983" x2="256.862" y2="11.1874" gradientUnits="userSpaceOnUse">
<stop stop-color="#808080" stop-opacity="0.25"/>
<stop offset="0.54" stop-color="#808080" stop-opacity="0.12"/>
<stop offset="1" stop-color="#808080" stop-opacity="0.1"/>
</linearGradient>
<linearGradient id="paint1_linear" x1="25001.3" y1="31370.8" x2="25724.8" y2="26573.9" gradientUnits="userSpaceOnUse">
<stop stop-color="#808080" stop-opacity="0.25"/>
<stop offset="0.54" stop-color="#808080" stop-opacity="0.12"/>
<stop offset="1" stop-color="#808080" stop-opacity="0.1"/>
</linearGradient>
<linearGradient id="paint2_linear" x1="83287.2" y1="67614" x2="65155.1" y2="-44620.2" gradientUnits="userSpaceOnUse">
<stop stop-color="#808080" stop-opacity="0.25"/>
<stop offset="0.54" stop-color="#808080" stop-opacity="0.12"/>
<stop offset="1" stop-color="#808080" stop-opacity="0.1"/>
</linearGradient>
<linearGradient id="paint3_linear" x1="17182.8" y1="-1691.72" x2="16356.5" y2="-6733.75" gradientUnits="userSpaceOnUse">
<stop stop-color="#808080" stop-opacity="0.25"/>
<stop offset="0.54" stop-color="#808080" stop-opacity="0.12"/>
<stop offset="1" stop-color="#808080" stop-opacity="0.1"/>
</linearGradient>
<linearGradient id="paint4_linear" x1="72190.6" y1="147699" x2="72190.6" y2="34333.1" gradientUnits="userSpaceOnUse">
<stop stop-color="#808080" stop-opacity="0.25"/>
<stop offset="0.54" stop-color="#808080" stop-opacity="0.12"/>
<stop offset="1" stop-color="#808080" stop-opacity="0.1"/>
</linearGradient>
<linearGradient id="paint5_linear" x1="22782.3" y1="19314.1" x2="22782.3" y2="13970.1" gradientUnits="userSpaceOnUse">
<stop stop-color="#808080" stop-opacity="0.25"/>
<stop offset="0.54" stop-color="#808080" stop-opacity="0.12"/>
<stop offset="1" stop-color="#808080" stop-opacity="0.1"/>
</linearGradient>
<linearGradient id="paint6_linear" x1="41872.9" y1="47983.9" x2="41872.9" y2="37205.9" gradientUnits="userSpaceOnUse">
<stop stop-color="#808080" stop-opacity="0.25"/>
<stop offset="0.54" stop-color="#808080" stop-opacity="0.12"/>
<stop offset="1" stop-color="#808080" stop-opacity="0.1"/>
</linearGradient>
<clipPath id="clip0">
<rect width="331" height="283" fill="white"/>
</clipPath>
</defs>
</svg>
