<svg width="600" height="455" viewBox="0 0 600 455" fill="none" xmlns="http://www.w3.org/2000/svg">
<g clip-path="url(#clip0)">
<path opacity="0.1" d="M369.52 51.0775C343.774 69.0874 310.38 67.9216 281.116 58.5517C251.852 49.1819 224.973 32.499 196.457 20.6414C172.695 10.7384 147.66 4.21725 122.083 1.26872C85.7461 -2.88463 45.1656 2.17466 19.8461 31.2895C-8.34863 63.7107 -6.18384 122.189 24.3129 151.954C39.8242 167.093 60.1359 174.523 77.8495 186.344C95.5632 198.165 111.96 217.791 110.451 240.606C109.055 261.728 92.8185 277.934 76.0167 288.103C63.03 295.962 47.0344 304.546 45.4692 320.823C43.9547 336.574 57.4025 348.915 70.2449 355.934C112.14 378.831 163.757 378.611 205.491 355.357C220.382 347.06 234.069 336.028 249.685 329.561C290.682 312.584 335.859 329.674 379.271 335.923C416.16 341.202 453.755 338.468 489.49 327.908C510.99 321.563 532.569 311.864 547.672 293.795C558.564 280.766 565.349 264.277 571.718 247.993C578.511 230.628 585.041 213.14 591.306 195.53C595.068 184.959 598.769 174.183 599.74 162.874C601.501 142.377 594.085 122.12 583.987 104.821C560.012 63.7545 519.633 34.8775 475.925 27.5417C432.218 20.206 385.908 34.533 351.99 65.8832" fill="#FB3957"/>
<path d="M505.518 299.231L503.966 298.335C505.417 295.829 501.524 285.162 498.31 279.791C496.08 276.065 494.681 272.677 494.034 269.434C493.002 264.271 493.982 259.794 496.946 256.128C503.096 248.523 503.042 234.006 503.041 233.86L504.834 233.844C504.839 234.465 504.897 249.146 498.34 257.254C493.982 262.643 494.49 269.916 499.848 278.872C502.374 283.092 507.768 295.345 505.518 299.231Z" fill="#D4D5E0"/>
<path d="M525.153 218.413C525.56 203.868 515.986 191.801 503.77 191.46C491.553 191.119 481.319 202.633 480.913 217.178C480.518 231.3 489.532 243.085 501.238 244.07C501.03 245.543 500.4 246.923 499.425 248.047C497.65 249.858 505.007 248.203 505.007 248.203C504.522 246.882 504.254 245.491 504.214 244.085C515.566 243.245 524.768 232.189 525.153 218.413Z" fill="#FB3957"/>
<path opacity="0.2" d="M487.355 228.123C485.546 222.588 487.214 217.031 491.078 215.362C490.9 215.403 490.722 215.451 490.545 215.509C486.315 216.889 484.417 222.69 486.305 228.466C488.138 234.074 492.867 237.596 497.012 236.532C497.096 236.972 489.185 233.722 487.355 228.123Z" fill="white"/>
<path d="M514.701 319.383L516.492 319.458C516.614 316.566 525.629 309.653 531.227 306.844C535.11 304.896 538.11 302.787 540.399 300.398C544.043 296.595 545.621 292.292 545.089 287.609C543.985 277.895 551.828 265.674 551.908 265.552L550.404 264.578C550.066 265.099 542.131 277.455 543.308 287.812C544.09 294.696 539.754 300.561 530.422 305.244C526.024 307.451 514.891 314.897 514.701 319.383Z" fill="#D4D5E0"/>
<path d="M541.548 240.662C549.018 228.171 563.579 223.123 574.07 229.386C584.562 235.648 587.011 250.851 579.541 263.342C572.288 275.469 558.351 280.58 547.944 275.135C547.329 276.489 547.119 277.992 547.338 279.462C547.863 281.942 542.545 276.601 542.545 276.601C543.663 275.746 544.636 274.716 545.426 273.551C536.298 266.756 534.472 252.493 541.548 240.662Z" fill="#FB3957"/>
<path opacity="0.2" d="M568.225 269.122C572.725 265.422 574.303 259.839 571.938 256.358C572.068 256.488 572.192 256.625 572.31 256.768C575.137 260.2 573.623 266.113 568.927 269.974C564.368 273.723 558.486 274.16 555.56 271.04C555.253 271.366 563.674 272.865 568.225 269.122Z" fill="white"/>
<path d="M196.33 391.566L194.539 391.641C194.417 388.749 185.402 381.837 179.805 379.028C175.922 377.079 172.922 374.97 170.633 372.582C166.989 368.778 165.411 364.475 165.943 359.793C167.046 350.078 159.203 337.858 159.124 337.735L160.627 336.761C160.966 337.282 168.9 349.638 167.724 359.995C166.942 366.879 171.277 372.744 180.609 377.427C185.007 379.634 196.141 387.081 196.33 391.566Z" fill="#D4D5E0"/>
<path d="M169.483 312.845C162.013 300.354 147.453 295.305 136.961 301.568C126.47 307.831 124.02 323.034 131.49 335.524C138.743 347.652 152.68 352.763 163.087 347.317C163.702 348.671 163.912 350.174 163.693 351.645C163.168 354.125 168.487 348.783 168.487 348.783C167.368 347.929 166.395 346.899 165.606 345.734C174.734 338.938 176.559 324.676 169.483 312.845Z" fill="#FB3957"/>
<path opacity="0.2" d="M142.806 341.305C138.306 337.605 136.728 332.021 139.093 328.541C138.964 328.671 138.84 328.807 138.722 328.95C135.894 332.383 137.408 338.296 142.104 342.157C146.663 345.906 152.545 346.342 155.472 343.222C155.779 343.548 147.358 345.048 142.806 341.305Z" fill="white"/>
<path d="M255.335 203.59L253.544 203.666C253.422 200.774 244.407 193.861 238.81 191.052C234.927 189.103 231.927 186.995 229.638 184.606C225.994 180.802 224.416 176.5 224.948 171.817C226.051 162.103 218.208 149.882 218.129 149.76L219.633 148.785C219.971 149.306 227.906 161.662 226.729 172.019C225.947 178.903 230.282 184.768 239.615 189.452C244.012 191.659 255.146 199.105 255.335 203.59Z" fill="#D4D5E0"/>
<path d="M228.489 124.869C221.019 112.378 206.458 107.33 195.967 113.593C185.475 119.855 183.026 135.058 190.496 147.549C197.749 159.676 211.686 164.787 222.093 159.342C222.707 160.696 222.918 162.199 222.698 163.669C222.174 166.149 227.492 160.808 227.492 160.808C226.373 159.953 225.4 158.923 224.611 157.758C233.739 150.963 235.564 136.7 228.489 124.869Z" fill="#FB3957"/>
<path opacity="0.2" d="M201.811 153.33C197.311 149.63 195.734 144.046 198.098 140.566C197.969 140.696 197.845 140.832 197.727 140.975C194.899 144.408 196.413 150.321 201.109 154.182C205.669 157.931 211.55 158.367 214.477 155.247C214.784 155.573 206.363 157.073 201.811 153.33Z" fill="white"/>
<path d="M234.739 283.119L232.948 283.194C232.826 280.302 223.811 273.389 218.214 270.58C214.331 268.632 211.331 266.523 209.042 264.134C205.398 260.331 203.82 256.028 204.352 251.345C205.455 241.631 197.612 229.41 197.533 229.288L199.036 228.313C199.375 228.834 207.309 241.191 206.133 251.547C205.351 258.431 209.686 264.297 219.018 268.98C223.416 271.187 234.55 278.633 234.739 283.119Z" fill="#D4D5E0"/>
<path d="M207.892 204.397C200.423 191.907 185.862 186.858 175.37 193.121C164.879 199.384 162.43 214.586 169.9 227.077C177.152 239.205 191.089 244.315 201.496 238.87C202.111 240.224 202.322 241.727 202.102 243.198C201.577 245.677 206.896 240.336 206.896 240.336C205.777 239.481 204.804 238.452 204.015 237.287C213.143 230.491 214.968 216.228 207.892 204.397Z" fill="#FB3957"/>
<path opacity="0.2" d="M181.215 232.858C176.715 229.158 175.137 223.574 177.502 220.094C177.373 220.224 177.249 220.36 177.131 220.503C174.303 223.936 175.817 229.849 180.513 233.71C185.072 237.459 190.954 237.895 193.881 234.775C194.188 235.101 185.767 236.601 181.215 232.858Z" fill="white"/>
<path d="M481.856 388.366L480.718 386.982C482.957 385.146 483.063 373.792 481.943 367.635C481.166 363.364 481.048 359.701 481.582 356.437C482.432 351.241 484.924 347.394 488.988 345.002C497.42 340.041 502.475 326.43 502.525 326.293L504.209 326.908C503.996 327.491 498.887 341.256 489.898 346.545C483.922 350.061 481.839 357.049 483.707 367.315C484.587 372.153 485.328 385.518 481.856 388.366Z" fill="#D4D5E0"/>
<path d="M528.66 319.592C534.156 306.118 529.436 291.459 518.118 286.852C506.8 282.244 493.17 289.432 487.674 302.907C482.338 315.99 486.633 330.188 497.247 335.22C496.534 336.525 495.458 337.597 494.15 338.306C491.852 339.378 499.322 340.411 499.322 340.411C499.332 339.004 499.571 337.609 500.027 336.278C510.951 339.476 523.455 332.355 528.66 319.592Z" fill="#FB3957"/>
<path opacity="0.2" d="M489.856 315.416C490.109 309.599 493.625 304.981 497.83 304.775C497.649 304.751 497.465 304.733 497.28 304.725C492.834 304.533 489.017 309.298 488.753 315.368C488.497 321.262 491.686 326.219 495.941 326.679C495.865 327.12 489.601 321.3 489.856 315.416Z" fill="white"/>
<path opacity="0.1" d="M337.044 405.53C430.025 405.53 505.4 399.934 505.4 393.03C505.4 386.127 430.025 380.53 337.044 380.53C244.063 380.53 168.688 386.127 168.688 393.03C168.688 399.934 244.063 405.53 337.044 405.53Z" fill="#FB3957"/>
<path d="M322.862 67.386V87.0339H324.924V66.4355L322.862 67.386Z" fill="#53425A"/>
<path d="M365.049 72.6146V90.8366H367.904L367.269 70.5547L365.049 72.6146Z" fill="#53425A"/>
<path d="M283.848 76.1006L281.945 78.1605V95.907H283.848V76.1006Z" fill="#53425A"/>
<path d="M291.778 128.388H279.407V92.8979H288.923C288.824 93.1712 288.751 93.4528 288.704 93.7393C288.333 95.7786 288.447 99.6242 288.794 104.031C289.622 114.593 291.778 128.388 291.778 128.388Z" fill="#FB3957"/>
<path d="M334.917 128.387L319.373 130.289V84.0229H329.208C329.141 84.5458 329.098 85.14 329.075 85.8007C329.046 89.2917 329.251 92.7806 329.688 96.2442C330.021 99.2579 330.459 102.495 330.94 105.713C331.311 108.209 331.711 110.69 332.105 113.053C333.533 121.528 334.917 128.387 334.917 128.387Z" fill="#FB3957"/>
<path d="M376.787 123.634L361.561 124.903V87.8262H372.029C371.658 88.6152 371.496 89.9462 371.491 91.6385C371.558 94.6972 371.832 97.7479 372.309 100.77C373.794 111.156 376.787 123.634 376.787 123.634Z" fill="#FB3957"/>
<path d="M286.385 40.1328C286.385 40.1328 287.337 43.9356 277.345 54.3933C267.354 64.851 271.319 85.9248 281.945 85.291C281.945 85.291 291.878 86.928 295.452 80.1716C296.195 78.7135 296.529 77.0813 296.417 75.4488C296.305 73.8163 295.753 72.2446 294.818 70.9011C291.534 66.07 285.201 55.9171 286.385 51.0658V40.1328Z" fill="#FFC13D"/>
<path opacity="0.5" d="M284.377 54.5044C284.377 54.5044 284.971 56.8796 278.73 63.4115C272.49 69.9433 274.966 83.106 281.603 82.7101C281.603 82.7101 287.946 83.7555 290.112 79.37C290.539 78.4685 290.719 77.4705 290.636 76.477C290.552 75.4835 290.207 74.5296 289.636 73.7119C287.698 70.859 284.073 65.0567 284.295 61.8702C284.33 61.3721 284.377 60.8749 284.377 60.3756V54.5044Z" fill="white"/>
<path d="M368.846 35.3633C368.846 35.3633 369.798 39.1661 359.806 49.6238C349.815 60.0814 353.78 81.1553 364.406 80.5215C364.406 80.5215 374.339 82.1585 377.913 75.402C378.656 73.944 378.99 72.3118 378.878 70.6792C378.766 69.0467 378.214 67.475 377.279 66.1315C373.995 61.3004 367.662 51.1476 368.846 46.2963V35.3633Z" fill="#FFC13D"/>
<path opacity="0.5" d="M367.586 58.0293C367.586 58.0293 368.031 59.8091 363.355 64.7034C358.679 69.5978 360.534 79.4606 365.507 79.164C365.507 79.164 370.156 79.9301 371.829 76.768C372.177 76.0856 372.333 75.3217 372.281 74.5577C372.228 73.7936 371.97 73.0581 371.532 72.4293C369.995 70.1683 367.031 65.4166 367.586 63.1461V58.0293Z" fill="white"/>
<path d="M326.775 21.6099C326.775 21.6099 327.932 26.2341 315.783 38.9506C303.633 51.6672 308.454 77.293 321.375 76.5223C321.375 76.5223 333.455 78.513 337.8 70.2971C338.704 68.5241 339.11 66.5393 338.974 64.5542C338.838 62.569 338.166 60.6579 337.029 59.0241C333.036 53.1495 325.335 40.8036 326.775 34.9045V21.6099Z" fill="#FFC13D"/>
<path opacity="0.5" d="M325.501 44.5625C325.501 44.5625 326.147 47.1424 319.368 54.2373C312.59 61.3322 315.279 75.6294 322.488 75.1994C322.488 75.1994 329.228 76.31 331.652 71.7262C332.157 70.737 332.383 69.6296 332.307 68.5221C332.231 67.4145 331.856 66.3482 331.222 65.4368C328.994 62.1592 324.698 55.2711 325.501 51.9798V44.5625Z" fill="white"/>
<path opacity="0.5" d="M288.794 104.031C285.887 107.087 281.872 112.558 279.407 116.024V103.484C282.124 100.214 286.016 96.3299 288.704 93.7393C288.333 95.7785 288.447 99.6241 288.794 104.031Z" fill="white"/>
<path opacity="0.5" d="M329.688 96.2442C326.057 99.1495 322.611 102.28 319.373 105.618V93.6298C322.303 90.6645 325.557 88.0382 329.075 85.8008C329.046 89.2917 329.251 92.7806 329.688 96.2442Z" fill="white"/>
<path d="M332.105 113.053C328.285 116.399 323.027 121.157 319.373 124.475V115.895C323.189 112.387 327.857 108.347 330.94 105.713C331.311 108.209 331.71 110.69 332.105 113.053Z" fill="#FB3957"/>
<path opacity="0.5" d="M372.31 100.77C368.641 103.84 364.388 108.062 361.561 110.966V99.0108C364.564 96.0257 368.546 93.3875 371.491 91.6382C371.559 94.6969 371.832 97.7476 372.31 100.77Z" fill="white"/>
<path d="M407.87 136.944H252.606V207.933H407.87V136.944Z" fill="#C99398"/>
<path opacity="0.1" d="M407.87 136.944V147.63C404.901 148.205 401.009 147.316 397.75 146.227C395.825 145.578 393.778 145.372 391.763 145.626C389.747 145.879 387.815 146.586 386.112 147.692C377.167 153.534 370.183 152.298 365.311 149.393C362.898 147.922 360.171 147.042 357.353 146.825C354.535 146.607 351.706 147.059 349.096 148.143C346.818 149.08 344.369 149.528 341.907 149.46C339.028 149.421 336.198 150.201 333.747 151.708C326.401 156.153 319.078 153.581 314.477 150.895C311.463 149.16 307.897 148.646 304.514 149.46C303.067 149.809 301.574 149.931 300.09 149.821C296.693 149.503 293.281 150.238 290.317 151.927C278.189 159.005 274.183 150.41 271.795 149.146C269.097 147.72 268.783 152.63 267.988 152.63C267.194 152.63 264.501 146.137 263.863 148.352C263.568 149.393 261.07 150.643 258.501 151.68C256.633 152.433 254.589 152.644 252.606 152.288V136.944H407.87Z" fill="black"/>
<path d="M258.792 122.791C258.792 122.791 233.346 134.136 246.925 148.313C248.394 149.822 250.281 150.858 252.344 151.289C254.407 151.719 256.551 151.524 258.502 150.728C261.069 149.694 263.567 148.444 263.865 147.403C264.499 145.185 267.195 151.681 267.988 151.681C268.781 151.681 269.098 146.769 271.795 148.195C274.183 149.458 278.188 158.056 290.315 150.974C293.28 149.287 296.694 148.553 300.092 148.87C301.576 148.981 303.067 148.859 304.513 148.508C307.896 147.695 311.462 148.208 314.478 149.943C319.079 152.629 326.402 155.2 333.746 150.759C336.198 149.25 339.029 148.469 341.908 148.508C344.37 148.578 346.818 148.129 349.095 147.19C351.705 146.108 354.535 145.657 357.353 145.874C360.171 146.091 362.898 146.971 365.312 148.441C370.183 151.349 377.169 152.583 386.112 146.742C387.814 145.635 389.746 144.927 391.761 144.673C393.776 144.419 395.823 144.624 397.748 145.274C404.252 147.451 413.289 148.839 412.469 139.322C411.2 124.586 393.755 120.308 386.459 120.15C379.164 119.991 367.111 118.723 353.471 120.15C339.832 121.576 312.078 121.417 312.078 121.417C312.078 121.417 265.475 119.568 258.792 122.791Z" fill="#F8F8FA"/>
<path d="M442.364 207.933H220.885V294.841H442.364V207.933Z" fill="#C99398"/>
<path opacity="0.1" d="M407.87 193.106V207.933H321.529C321.381 207.914 321.234 207.899 321.086 207.89C320.355 207.835 319.621 207.849 318.893 207.933H252.606V194.713C259.828 195.593 267.113 196.71 274.292 196.681C283.822 196.638 293.238 194.661 302.787 195.193C336.173 197.047 370.168 197.598 403.421 193.648C404.901 193.472 406.385 193.287 407.87 193.106Z" fill="black"/>
<path opacity="0.1" d="M442.364 207.933V215.771C439.957 215.467 437.64 214.507 435.313 213.746C433.215 213.062 430.946 212.529 428.814 213.095C427.691 213.394 426.668 213.984 425.56 214.326C420.925 215.771 416.092 212.762 411.234 212.743C406.419 212.724 402.113 215.624 397.412 216.679C390.147 218.31 382.72 215.448 375.759 212.795C372.942 211.726 369.678 210.704 367.047 212.168C365.891 212.81 365.02 213.865 363.893 214.559C360.596 216.593 356.28 215.006 352.992 212.952C350.913 211.655 348.396 210.129 346.203 211.222C345.071 211.783 344.362 212.919 343.424 213.76C340.455 216.418 335.783 215.705 332.143 214.088C328.508 212.472 325.054 210.086 321.086 209.791C315.491 209.368 310.59 213.138 305.709 215.899C300.827 218.661 294.057 220.296 290.074 216.342C288.756 215.034 287.781 213.142 285.978 212.691C282.995 211.949 280.754 215.638 277.747 216.285C274.04 217.083 271.024 213.142 267.308 212.368C263.463 211.564 259.886 214.236 256.493 216.208C253.101 218.181 248.172 219.293 245.712 216.237C244.927 215.262 244.499 213.95 243.423 213.304C242.603 212.903 241.682 212.756 240.778 212.881C237.559 213.059 234.399 213.814 231.448 215.11C228.06 216.603 224.782 218.842 221.085 218.771C221.018 218.771 220.952 218.766 220.885 218.761V207.933H442.364Z" fill="black"/>
<path d="M274.291 197.631C257.301 197.703 239.754 191.339 223.737 196.999C217.925 199.052 212.031 203.911 212.644 210.04C212.914 212.119 213.908 214.038 215.45 215.461C216.993 216.883 218.987 217.718 221.084 217.821C224.783 217.892 228.061 215.651 231.447 214.16C234.398 212.862 237.56 212.106 240.78 211.928C241.685 211.806 242.605 211.954 243.426 212.355C244.499 212.998 244.929 214.314 245.713 215.288C248.174 218.344 253.1 217.231 256.493 215.258C259.886 213.285 263.466 210.613 267.309 211.415C271.022 212.19 274.039 216.132 277.746 215.334C280.752 214.686 282.993 211 285.977 211.742C287.783 212.191 288.756 214.082 290.076 215.393C294.055 219.345 300.826 217.711 305.708 214.948C310.59 212.185 315.489 208.418 321.084 208.838C325.055 209.136 328.506 211.523 332.145 213.138C335.784 214.754 340.458 215.465 343.423 212.811C344.364 211.969 345.073 210.831 346.203 210.269C348.396 209.179 350.914 210.705 352.991 212.002C356.279 214.054 360.596 215.643 363.895 213.607C365.019 212.914 365.892 211.859 367.046 211.217C369.678 209.752 372.944 210.774 375.759 211.847C382.718 214.498 390.148 217.36 397.414 215.727C402.111 214.672 406.421 211.775 411.235 211.793C416.09 211.811 420.925 214.821 425.561 213.377C426.668 213.032 427.691 212.444 428.812 212.146C430.947 211.578 433.214 212.11 435.314 212.796C438.1 213.707 440.875 214.905 443.807 214.913C446.739 214.922 449.946 213.323 450.647 210.479C451.184 208.301 450.138 206.045 448.833 204.221C444.093 197.597 435.875 194.188 427.775 193.282C419.676 192.376 411.514 193.64 403.421 194.601C370.167 198.548 336.171 197.999 302.788 196.144C293.239 195.613 283.822 197.591 274.291 197.631Z" fill="#F8F8FA"/>
<path d="M450.791 286.997H205.898V387.771H450.791V286.997Z" fill="#C99398"/>
<path opacity="0.1" d="M451.876 284.235C439.627 286.876 427.219 288.718 414.731 289.749C410.539 289.019 406.231 289.347 402.199 290.705C402.122 290.729 402.046 290.752 401.97 290.781C394.253 293.509 387.611 299.979 379.427 299.874C372.895 299.789 367.247 295.477 360.971 293.671C359.177 293.154 357.328 292.852 355.462 292.773C354.194 292.708 352.923 292.743 351.66 292.877C344.071 293.077 336.483 293.158 328.894 293.001C317.76 292.777 306.651 292.041 295.541 291.309C283.665 290.524 271.79 289.74 259.914 288.956C248.743 288.219 237.57 287.482 226.395 286.745C223.654 286.565 220.911 286.382 218.164 286.199C215.209 286.004 213.016 286.641 211.821 284.002C210.404 280.846 211.655 277.704 213.392 274.957C214.886 274.985 216.384 275.09 217.873 275.194C240.502 276.787 263.126 278.435 285.745 280.138L282.267 280.751C305.892 277.034 329.816 275.555 353.72 276.335C364.878 276.701 376.097 277.557 387.173 276.135C394.957 275.137 402.584 273.027 410.406 272.366C421.149 271.458 431.916 273.312 442.545 275.161C444.783 275.513 447 275.983 449.187 276.568C449.754 279.287 450.386 282.001 451.876 284.235Z" fill="black"/>
<path opacity="0.1" d="M450.791 286.997V296.471C447.736 296.019 444.743 295.572 442.888 297.74C442.017 298.762 441.679 300.15 440.832 301.196C439.086 303.349 435.675 303.344 433.182 302.123C430.693 300.901 428.795 298.762 426.649 297.003C423.234 294.262 419.18 292.429 414.866 291.673C410.551 290.918 406.115 291.265 401.97 292.682C394.253 295.411 387.611 301.88 379.427 301.776C372.895 301.69 367.247 297.379 360.971 295.572C357.42 294.576 353.692 294.38 350.055 294.997C346.419 295.614 342.964 297.03 339.942 299.142C335.498 302.294 331.301 307.185 325.892 306.562C323.056 306.234 320.672 304.39 318.265 302.855C313.419 299.777 307.975 297.761 302.293 296.941C299.814 296.59 297.183 296.485 294.899 297.512C292.02 298.809 290.16 301.676 287.486 303.359C281.277 307.261 273.227 303.739 266.827 300.159C260.423 296.58 252.501 292.915 246.159 296.594C244.665 297.459 243.385 298.695 241.806 299.389C232.885 303.302 224.125 288.228 214.971 291.56C212.906 292.311 211.26 293.932 209.228 294.769C208.174 295.197 207.03 295.357 205.898 295.235V286.997H450.791Z" fill="black"/>
<path d="M285.747 281.087C263.127 279.386 240.502 277.739 217.874 276.146C213.945 275.869 209.915 275.604 206.139 276.724C202.364 277.845 198.835 280.662 198.028 284.514C196.807 290.337 203.723 296.08 209.23 293.817C211.262 292.981 212.907 291.359 214.973 290.608C224.125 287.279 232.886 302.349 241.804 298.437C243.385 297.743 244.663 296.511 246.157 295.645C252.501 291.964 260.423 295.631 266.825 299.211C273.227 302.79 281.277 306.308 287.487 302.406C290.161 300.726 292.018 297.86 294.899 296.563C297.184 295.534 299.811 295.638 302.292 295.993C307.976 296.81 313.421 298.826 318.266 301.906C320.673 303.439 323.057 305.282 325.892 305.61C331.302 306.236 335.5 301.341 339.941 298.191C342.964 296.08 346.418 294.664 350.055 294.046C353.691 293.429 357.42 293.625 360.971 294.62C367.246 296.427 372.896 300.74 379.425 300.825C387.61 300.931 394.252 294.461 401.968 291.73C406.113 290.314 410.55 289.967 414.865 290.723C419.18 291.479 423.234 293.312 426.65 296.053C428.796 297.813 430.691 299.949 433.183 301.171C435.675 302.394 439.086 302.399 440.834 300.245C441.68 299.201 442.015 297.81 442.889 296.79C446.461 292.617 454.24 298.131 458.571 294.751C459.574 293.912 460.271 292.766 460.553 291.49C461.639 287.167 458.921 282.61 455.197 280.154C451.474 277.698 446.938 276.879 442.543 276.113C431.918 274.264 421.151 272.407 410.405 273.315C402.584 273.976 394.957 276.09 387.172 277.088C376.098 278.507 364.879 277.653 353.72 277.287C329.816 276.507 305.891 277.984 282.265 281.701" fill="#F8F8FA"/>
<path opacity="0.1" d="M450.791 360.334V384.011C441.418 384.492 432.043 384.968 422.667 385.442C407.527 386.212 392.373 386.982 377.22 386.688C364.411 386.436 351.632 385.428 338.828 385.029C311.908 384.192 284.912 386.07 258.068 383.916C249.475 383.227 240.911 382.129 232.304 381.639C223.504 381.153 214.68 381.28 205.898 382.02V359.712C206.707 359.645 207.518 359.626 208.329 359.654C212.576 359.794 216.749 360.802 220.59 362.616C223.592 364.037 226.438 365.967 229.711 366.533C238.228 368.002 245.626 359.963 254.248 359.322C261.189 358.808 267.427 363.11 273.384 366.709C274.53 367.398 275.805 368.092 277.123 367.897C278.227 367.735 279.136 366.98 280.035 366.319C288.533 360.054 301.479 360.814 309.177 368.035C310.015 368.814 310.847 369.694 311.951 369.984C314.135 370.564 316.095 368.672 317.827 367.217C327.21 359.312 341.669 361.689 352.436 367.583C354.429 368.672 356.637 369.913 358.84 369.342C360.315 368.962 361.452 367.831 362.632 366.866C371.8 359.35 385.589 360.748 396.318 365.801C397.355 366.29 398.449 366.818 399.586 366.69C400.952 366.528 401.999 365.478 403.05 364.598C405.62 362.514 408.725 361.193 412.01 360.787C415.295 360.38 418.628 360.903 421.63 362.297C423.323 363.11 424.894 364.208 426.692 364.76C431.816 366.324 437.021 363.144 442.136 361.532C444.935 360.658 447.859 360.253 450.791 360.334Z" fill="black"/>
<path d="M476.597 383.65C458.622 384.567 440.645 385.482 422.667 386.393C407.527 387.163 392.373 387.933 377.22 387.638C364.411 387.386 351.632 386.379 338.828 385.979C311.908 385.143 284.912 387.02 258.068 384.867C249.475 384.178 240.911 383.08 232.304 382.59C222.619 382.06 212.907 382.265 203.253 383.203C201.188 383.398 198.009 384.43 196.011 384.026C193.856 383.588 194.679 383.341 195.383 381.302C195.593 380.695 195.771 380.078 195.916 379.453C196.506 376.957 196.615 374.438 196.858 371.847C197.172 368.539 197.657 364.898 200.398 362.649C202.553 360.876 205.536 360.515 208.329 360.605C212.576 360.745 216.749 361.753 220.59 363.567C223.592 364.988 226.438 366.918 229.711 367.483C238.228 368.952 245.626 360.914 254.247 360.272C261.189 359.759 267.427 364.061 273.384 367.659C274.53 368.349 275.805 369.043 277.123 368.848C278.227 368.686 279.136 367.93 280.035 367.27C288.533 361.004 301.479 361.765 309.177 368.986C310.015 369.765 310.847 370.645 311.951 370.934C314.135 371.514 316.095 369.623 317.827 368.168C327.209 360.263 341.669 362.64 352.436 368.534C354.429 369.623 356.637 370.863 358.84 370.293C360.315 369.912 361.452 368.781 362.632 367.816C371.8 360.301 385.589 361.698 396.318 366.751C397.355 367.241 398.449 367.769 399.586 367.64C400.952 367.479 401.998 366.428 403.05 365.549C405.62 363.465 408.725 362.144 412.01 361.737C415.295 361.331 418.628 361.854 421.63 363.248C423.323 364.061 424.893 365.159 426.692 365.71C431.816 367.274 437.021 364.094 442.136 362.483C448.819 360.375 456.062 360.972 462.309 364.145C468.555 367.319 473.305 372.816 475.536 379.453C476.008 380.819 476.363 382.223 476.597 383.65Z" fill="#F8F8FA"/>
<path opacity="0.1" d="M476.597 383.65C458.622 384.567 440.645 385.482 422.667 386.393C407.527 387.163 392.373 387.933 377.22 387.638C364.411 387.386 351.632 386.379 338.828 385.979C311.908 385.143 284.912 387.02 258.068 384.867C249.475 384.178 240.911 383.08 232.304 382.59C222.619 382.06 212.907 382.265 203.253 383.203C201.188 383.398 198.009 384.43 196.011 384.026C193.856 383.588 194.679 383.341 195.383 381.302C195.593 380.695 195.771 380.078 195.916 379.453H475.536C476.008 380.819 476.363 382.223 476.597 383.65Z" fill="black"/>
<path d="M188.974 379.928H479.748C482.263 379.928 484.674 380.926 486.452 382.703C488.231 384.479 489.23 386.889 489.23 389.401V390.624H179.492V389.401C179.492 386.889 180.491 384.479 182.269 382.703C184.047 380.926 186.459 379.928 188.974 379.928Z" fill="#D4D5E0"/>
<path d="M260.529 130.808L260.338 130.75C259.929 130.628 259.498 130.859 259.376 131.268L258.434 134.401C258.311 134.809 258.543 135.239 258.952 135.362L259.143 135.419C259.551 135.542 259.982 135.31 260.105 134.902L261.046 131.769C261.169 131.361 260.937 130.93 260.529 130.808Z" fill="#FB3957"/>
<path d="M235.165 200.585L234.974 200.528C234.566 200.405 234.135 200.637 234.012 201.045L233.071 204.178C232.948 204.586 233.18 205.017 233.588 205.139L233.779 205.196C234.188 205.319 234.619 205.087 234.741 204.679L235.683 201.546C235.806 201.138 235.574 200.708 235.165 200.585Z" fill="#FB3957"/>
<path d="M208.001 281.382L207.81 281.325C207.401 281.202 206.971 281.434 206.848 281.842L205.906 284.975C205.784 285.383 206.015 285.813 206.424 285.936L206.615 285.993C207.024 286.116 207.454 285.884 207.577 285.476L208.519 282.343C208.641 281.935 208.41 281.504 208.001 281.382Z" fill="#FB3957"/>
<path d="M275.922 286.749L275.732 286.692C275.323 286.569 274.892 286.801 274.769 287.209L273.828 290.342C273.705 290.75 273.937 291.181 274.346 291.303L274.536 291.361C274.945 291.483 275.376 291.252 275.499 290.843L276.44 287.71C276.563 287.302 276.331 286.872 275.922 286.749Z" fill="#FB3957"/>
<path d="M316.25 283.725L316.059 283.667C315.651 283.545 315.22 283.776 315.097 284.185L314.156 287.318C314.033 287.726 314.265 288.156 314.673 288.279L314.864 288.336C315.273 288.459 315.704 288.227 315.827 287.819L316.768 284.686C316.891 284.278 316.659 283.847 316.25 283.725Z" fill="#FB3957"/>
<path d="M373.098 289.854L372.907 289.797C372.498 289.675 372.068 289.906 371.945 290.314L371.003 293.447C370.881 293.856 371.112 294.286 371.521 294.409L371.712 294.466C372.121 294.589 372.551 294.357 372.674 293.949L373.616 290.816C373.739 290.407 373.507 289.977 373.098 289.854Z" fill="#FB3957"/>
<path d="M411.977 280.897L411.786 280.84C411.378 280.717 410.947 280.949 410.824 281.357L409.883 284.49C409.76 284.898 409.992 285.329 410.401 285.451L410.591 285.508C411 285.631 411.431 285.399 411.554 284.991L412.495 281.858C412.618 281.45 412.386 281.02 411.977 280.897Z" fill="#FB3957"/>
<path d="M241.22 284.72L241.029 284.663C240.62 284.54 240.189 284.772 240.067 285.18L239.125 288.313C239.002 288.722 239.234 289.152 239.643 289.274L239.834 289.332C240.242 289.454 240.673 289.223 240.796 288.814L241.737 285.681C241.86 285.273 241.628 284.843 241.22 284.72Z" fill="#FB3957"/>
<path d="M323.651 292.86L323.46 292.803C323.051 292.68 322.621 292.912 322.498 293.32L321.556 296.453C321.434 296.861 321.665 297.291 322.074 297.414L322.265 297.471C322.674 297.594 323.104 297.362 323.227 296.954L324.169 293.821C324.291 293.413 324.06 292.982 323.651 292.86Z" fill="#FB3957"/>
<path d="M357.665 283.725L357.474 283.667C357.065 283.545 356.635 283.776 356.512 284.185L355.57 287.318C355.448 287.726 355.679 288.156 356.088 288.279L356.279 288.336C356.688 288.459 357.119 288.227 357.241 287.819L358.183 284.686C358.306 284.278 358.074 283.847 357.665 283.725Z" fill="#FB3957"/>
<path d="M429.502 280.897L429.311 280.84C428.902 280.717 428.472 280.949 428.349 281.357L427.407 284.49C427.285 284.898 427.516 285.329 427.925 285.451L428.116 285.508C428.525 285.631 428.955 285.399 429.078 284.991L430.02 281.858C430.142 281.45 429.911 281.02 429.502 280.897Z" fill="#FB3957"/>
<path d="M347.028 130.618L346.91 130.778C346.657 131.122 346.731 131.605 347.074 131.858L349.713 133.796C350.057 134.048 350.54 133.975 350.793 133.631L350.911 133.471C351.164 133.127 351.09 132.644 350.747 132.391L348.108 130.453C347.764 130.2 347.281 130.274 347.028 130.618Z" fill="#FB3957"/>
<path d="M325.846 129.036L325.728 129.197C325.475 129.54 325.549 130.024 325.893 130.276L328.531 132.214C328.875 132.467 329.359 132.393 329.612 132.05L329.73 131.889C329.983 131.545 329.909 131.062 329.565 130.81L326.927 128.871C326.583 128.619 326.099 128.693 325.846 129.036Z" fill="#FB3957"/>
<path d="M291.454 129.036L291.336 129.197C291.083 129.54 291.157 130.024 291.501 130.276L294.139 132.214C294.483 132.467 294.967 132.393 295.219 132.05L295.338 131.889C295.59 131.545 295.517 131.062 295.173 130.81L292.534 128.871C292.191 128.619 291.707 128.693 291.454 129.036Z" fill="#FB3957"/>
<path d="M245.639 199.013L245.521 199.173C245.268 199.517 245.342 200 245.686 200.253L248.324 202.191C248.668 202.443 249.151 202.37 249.404 202.026L249.522 201.866C249.775 201.522 249.702 201.039 249.358 200.786L246.719 198.848C246.376 198.595 245.892 198.669 245.639 199.013Z" fill="#FB3957"/>
<path d="M248.251 206.082L248.133 206.243C247.88 206.586 247.954 207.07 248.298 207.322L250.936 209.26C251.28 209.513 251.764 209.439 252.016 209.095L252.135 208.935C252.387 208.591 252.314 208.108 251.97 207.856L249.331 205.917C248.988 205.665 248.504 205.739 248.251 206.082Z" fill="#FB3957"/>
<path d="M304.788 199.574L304.67 199.735C304.417 200.078 304.491 200.562 304.835 200.814L307.473 202.752C307.817 203.005 308.301 202.931 308.554 202.588L308.672 202.427C308.925 202.084 308.851 201.6 308.507 201.348L305.869 199.41C305.525 199.157 305.041 199.231 304.788 199.574Z" fill="#FB3957"/>
<path d="M282.362 291.577L282.244 291.737C281.991 292.081 282.065 292.564 282.409 292.817L285.047 294.755C285.391 295.007 285.874 294.934 286.127 294.59L286.245 294.43C286.498 294.086 286.425 293.603 286.081 293.35L283.442 291.412C283.098 291.159 282.615 291.233 282.362 291.577Z" fill="#FB3957"/>
<path d="M366.022 203.219L365.903 203.379C365.651 203.723 365.724 204.206 366.068 204.459L368.707 206.397C369.05 206.65 369.534 206.576 369.787 206.232L369.905 206.072C370.158 205.728 370.084 205.245 369.74 204.992L367.102 203.054C366.758 202.801 366.274 202.875 366.022 203.219Z" fill="#FB3957"/>
<path d="M391.206 206.558L391.087 206.718C390.835 207.062 390.908 207.545 391.252 207.798L393.891 209.736C394.234 209.988 394.718 209.915 394.971 209.571L395.089 209.411C395.342 209.067 395.268 208.584 394.924 208.331L392.286 206.393C391.942 206.14 391.458 206.214 391.206 206.558Z" fill="#FB3957"/>
<path d="M383.585 281.668L383.467 281.828C383.214 282.172 383.288 282.655 383.632 282.908L386.27 284.846C386.614 285.098 387.098 285.024 387.35 284.681L387.469 284.52C387.721 284.177 387.648 283.694 387.304 283.441L384.666 281.503C384.322 281.25 383.838 281.324 383.585 281.668Z" fill="#FB3957"/>
<path d="M435.487 290.608L435.368 290.769C435.116 291.112 435.189 291.595 435.533 291.848L438.172 293.786C438.515 294.039 438.999 293.965 439.252 293.621L439.37 293.461C439.623 293.117 439.549 292.634 439.205 292.381L436.567 290.443C436.223 290.191 435.739 290.264 435.487 290.608Z" fill="#FB3957"/>
<path d="M259.455 285.491L259.337 285.651C259.084 285.995 259.158 286.478 259.502 286.731L262.14 288.669C262.484 288.921 262.968 288.848 263.22 288.504L263.339 288.344C263.591 288 263.518 287.517 263.174 287.264L260.536 285.326C260.192 285.073 259.708 285.147 259.455 285.491Z" fill="#FB3957"/>
<path d="M221.663 282.152L221.545 282.313C221.292 282.657 221.366 283.14 221.71 283.392L224.348 285.331C224.692 285.583 225.176 285.509 225.429 285.166L225.547 285.005C225.8 284.662 225.726 284.178 225.382 283.926L222.744 281.988C222.4 281.735 221.916 281.809 221.663 282.152Z" fill="#FB3957"/>
<path d="M296.658 287.995L296.54 288.155C296.287 288.499 296.361 288.982 296.705 289.235L299.343 291.173C299.687 291.425 300.171 291.352 300.424 291.008L300.542 290.848C300.795 290.504 300.721 290.021 300.377 289.768L297.739 287.83C297.395 287.577 296.911 287.651 296.658 287.995Z" fill="#FB3957"/>
<path d="M337.123 285.491L337.005 285.651C336.752 285.995 336.826 286.478 337.17 286.731L339.808 288.669C340.152 288.921 340.636 288.848 340.889 288.504L341.007 288.344C341.26 288 341.186 287.517 340.842 287.264L338.204 285.326C337.86 285.073 337.376 285.147 337.123 285.491Z" fill="#FB3957"/>
<path d="M392.052 132.957L391.936 132.795C391.69 132.447 391.207 132.364 390.859 132.611L388.187 134.503C387.839 134.749 387.757 135.231 388.004 135.579L388.119 135.742C388.366 136.09 388.848 136.172 389.196 135.925L391.868 134.034C392.216 133.787 392.299 133.305 392.052 132.957Z" fill="#FB3957"/>
<path d="M347.421 139.517L347.306 139.355C347.059 139.007 346.577 138.924 346.229 139.171L343.557 141.063C343.208 141.309 343.126 141.791 343.373 142.139L343.488 142.302C343.735 142.65 344.217 142.732 344.566 142.485L347.238 140.594C347.586 140.347 347.668 139.865 347.421 139.517Z" fill="#FB3957"/>
<path d="M273.612 204.086L273.496 203.923C273.249 203.575 272.767 203.493 272.419 203.74L269.747 205.632C269.399 205.878 269.317 206.36 269.563 206.708L269.679 206.87C269.926 207.218 270.408 207.301 270.756 207.054L273.428 205.162C273.776 204.916 273.858 204.434 273.612 204.086Z" fill="#FB3957"/>
<path d="M295.928 206.278L295.813 206.116C295.566 205.768 295.084 205.686 294.736 205.932L292.064 207.824C291.716 208.07 291.633 208.552 291.88 208.9L291.995 209.063C292.242 209.411 292.725 209.493 293.073 209.246L295.745 207.355C296.093 207.108 296.175 206.626 295.928 206.278Z" fill="#FB3957"/>
<path d="M339.068 206.278L338.953 206.116C338.706 205.768 338.223 205.686 337.875 205.932L335.203 207.824C334.855 208.07 334.773 208.552 335.02 208.9L335.135 209.063C335.382 209.411 335.864 209.493 336.212 209.246L338.884 207.355C339.233 207.108 339.315 206.626 339.068 206.278Z" fill="#FB3957"/>
<path d="M352.554 201.706L352.439 201.544C352.192 201.196 351.71 201.113 351.362 201.36L348.69 203.252C348.342 203.498 348.26 203.98 348.506 204.328L348.622 204.491C348.868 204.839 349.351 204.921 349.699 204.674L352.371 202.783C352.719 202.536 352.801 202.054 352.554 201.706Z" fill="#FB3957"/>
<path d="M384.476 203.415L384.36 203.253C384.113 202.905 383.631 202.822 383.283 203.069L380.611 204.961C380.263 205.207 380.18 205.689 380.427 206.037L380.543 206.2C380.789 206.548 381.272 206.63 381.62 206.383L384.292 204.492C384.64 204.245 384.722 203.763 384.476 203.415Z" fill="#FB3957"/>
<path d="M407.767 199.77L407.652 199.608C407.405 199.26 406.923 199.177 406.574 199.424L403.903 201.316C403.554 201.562 403.472 202.044 403.719 202.392L403.834 202.555C404.081 202.902 404.563 202.985 404.912 202.738L407.583 200.847C407.932 200.6 408.014 200.118 407.767 199.77Z" fill="#FB3957"/>
<path d="M439.393 201.706L439.277 201.544C439.03 201.196 438.548 201.113 438.2 201.36L435.528 203.252C435.18 203.498 435.098 203.98 435.344 204.328L435.46 204.491C435.707 204.839 436.189 204.921 436.537 204.674L439.209 202.783C439.557 202.536 439.639 202.054 439.393 201.706Z" fill="#FB3957"/>
<path d="M341.108 127.27L340.917 127.213C340.509 127.09 340.078 127.322 339.955 127.73L339.014 130.863C338.891 131.271 339.123 131.702 339.532 131.824L339.722 131.882C340.131 132.004 340.562 131.773 340.685 131.364L341.626 128.231C341.749 127.823 341.517 127.393 341.108 127.27Z" fill="#FB3957"/>
<path d="M367.265 126.11L367.074 126.053C366.665 125.93 366.234 126.162 366.112 126.57L365.17 129.703C365.047 130.112 365.279 130.542 365.688 130.665L365.879 130.722C366.287 130.844 366.718 130.613 366.841 130.205L367.783 127.072C367.905 126.663 367.673 126.233 367.265 126.11Z" fill="#FB3957"/>
<path d="M331.356 136.676L331.165 136.619C330.756 136.496 330.325 136.728 330.203 137.136L329.261 140.269C329.138 140.678 329.37 141.108 329.779 141.231L329.97 141.288C330.378 141.41 330.809 141.179 330.932 140.771L331.874 137.638C331.996 137.229 331.764 136.799 331.356 136.676Z" fill="#FB3957"/>
<path d="M280.196 138.55L280.005 138.493C279.596 138.37 279.165 138.602 279.043 139.01L278.101 142.143C277.978 142.552 278.21 142.982 278.619 143.105L278.81 143.162C279.218 143.284 279.649 143.053 279.772 142.645L280.713 139.512C280.836 139.103 280.604 138.673 280.196 138.55Z" fill="#FB3957"/>
<path d="M371.277 134.333L371.086 134.276C370.678 134.154 370.247 134.385 370.124 134.793L369.182 137.926C369.06 138.335 369.292 138.765 369.7 138.888L369.891 138.945C370.3 139.068 370.731 138.836 370.853 138.428L371.795 135.295C371.918 134.886 371.686 134.456 371.277 134.333Z" fill="#FB3957"/>
<path d="M275.922 127.27L275.732 127.213C275.323 127.09 274.892 127.322 274.769 127.73L273.828 130.863C273.705 131.271 273.937 131.702 274.346 131.824L274.536 131.882C274.945 132.004 275.376 131.773 275.499 131.364L276.44 128.231C276.563 127.823 276.331 127.393 275.922 127.27Z" fill="#FB3957"/>
<path d="M302.795 131.99L302.605 131.933C302.196 131.81 301.765 132.042 301.642 132.45L300.701 135.583C300.578 135.992 300.81 136.422 301.219 136.544L301.41 136.602C301.818 136.724 302.249 136.493 302.372 136.084L303.313 132.951C303.436 132.543 303.204 132.113 302.795 131.99Z" fill="#FB3957"/>
<path d="M286.381 200.585L286.19 200.528C285.781 200.405 285.35 200.637 285.228 201.045L284.286 204.178C284.163 204.586 284.395 205.017 284.804 205.139L284.995 205.196C285.404 205.319 285.834 205.087 285.957 204.679L286.899 201.546C287.021 201.138 286.79 200.708 286.381 200.585Z" fill="#FB3957"/>
<path d="M326.53 200.584L326.34 200.527C325.931 200.405 325.5 200.636 325.377 201.044L324.436 204.177C324.313 204.586 324.545 205.016 324.954 205.139L325.145 205.196C325.553 205.319 325.984 205.087 326.107 204.679L327.048 201.546C327.171 201.137 326.939 200.707 326.53 200.584Z" fill="#FB3957"/>
<path d="M419.747 202.448L419.556 202.391C419.148 202.268 418.717 202.5 418.594 202.908L417.652 206.041C417.53 206.45 417.761 206.88 418.17 207.003L418.361 207.06C418.77 207.182 419.201 206.951 419.323 206.542L420.265 203.409C420.388 203.001 420.156 202.571 419.747 202.448Z" fill="#FB3957"/>
<path d="M429.505 202.448L429.314 202.39C428.905 202.268 428.475 202.499 428.352 202.908L427.41 206.041C427.288 206.449 427.519 206.879 427.928 207.002L428.119 207.059C428.528 207.182 428.958 206.95 429.081 206.542L430.023 203.409C430.145 203.001 429.914 202.57 429.505 202.448Z" fill="#FB3957"/>
<path d="M313.524 138.55L313.333 138.493C312.924 138.37 312.494 138.602 312.371 139.01L311.429 142.143C311.307 142.552 311.538 142.982 311.947 143.105L312.138 143.162C312.547 143.284 312.978 143.053 313.1 142.645L314.042 139.512C314.165 139.103 313.933 138.673 313.524 138.55Z" fill="#FB3957"/>
<path opacity="0.1" d="M243.491 437.608C298.521 437.608 343.132 433.599 343.132 428.654C343.132 423.709 298.521 419.7 243.491 419.7C188.46 419.7 143.85 423.709 143.85 428.654C143.85 433.599 188.46 437.608 243.491 437.608Z" fill="#FB3957"/>
<path opacity="0.1" d="M110.759 392.571C119.551 392.571 126.678 391.85 126.678 390.96C126.678 390.07 119.551 389.349 110.759 389.349C101.967 389.349 94.8394 390.07 94.8394 390.96C94.8394 391.85 101.967 392.571 110.759 392.571Z" fill="#FB3957"/>
<path opacity="0.1" d="M67.9117 432.901C76.7037 432.901 83.8309 432.18 83.8309 431.29C83.8309 430.401 76.7037 429.679 67.9117 429.679C59.1198 429.679 51.9925 430.401 51.9925 431.29C51.9925 432.18 59.1198 432.901 67.9117 432.901Z" fill="#FB3957"/>
<path opacity="0.1" d="M505.4 428.062C514.192 428.062 521.319 427.341 521.319 426.451C521.319 425.561 514.192 424.84 505.4 424.84C496.608 424.84 489.481 425.561 489.481 426.451C489.481 427.341 496.608 428.062 505.4 428.062Z" fill="#FB3957"/>
<path opacity="0.1" d="M466.71 445.13C475.502 445.13 482.629 444.409 482.629 443.519C482.629 442.629 475.502 441.908 466.71 441.908C457.918 441.908 450.791 442.629 450.791 443.519C450.791 444.409 457.918 445.13 466.71 445.13Z" fill="#FB3957"/>
<path opacity="0.1" d="M420.945 417.581C429.737 417.581 436.865 416.859 436.865 415.97C436.865 415.08 429.737 414.358 420.945 414.358C412.154 414.358 405.026 415.08 405.026 415.97C405.026 416.859 412.154 417.581 420.945 417.581Z" fill="#FB3957"/>
<path opacity="0.1" d="M348.91 455C357.702 455 364.829 454.279 364.829 453.389C364.829 452.499 357.702 451.778 348.91 451.778C340.118 451.778 332.991 452.499 332.991 453.389C332.991 454.279 340.118 455 348.91 455Z" fill="#FB3957"/>
<path d="M300.927 237.246L293.842 252.297C293.842 252.297 292.798 255.121 292.124 255.645C291.456 256.17 288.475 265.107 288.475 265.107L280.87 276.816V276.822L280.352 277.62L277.37 276.798L275.282 268.992L275.408 266.728L275.425 266.442C275.425 266.442 280.125 261.532 281.169 261.157C281.169 261.157 281.986 261.252 283.554 257.445C285.123 253.631 286.536 252.815 286.536 252.815L287.353 250.056L296.156 236.054C296.156 236.054 303.534 225.484 305.543 230.173C307.559 234.862 300.927 237.246 300.927 237.246Z" fill="#FFD2C6"/>
<path d="M215.219 253.065C214.838 253.864 214.561 254.71 214.396 255.58C214.348 255.8 214.301 256.032 214.247 256.271C213.758 258.779 213.424 261.937 213.257 263.767C213.173 264.69 213.132 265.28 213.132 265.28C213.132 265.28 195.335 264.088 198.418 261.109C199.209 260.282 199.77 259.263 200.047 258.154C200.136 257.838 200.214 257.516 200.279 257.188C200.424 256.445 200.518 255.692 200.56 254.936C200.571 254.745 200.577 254.555 200.583 254.364C200.62 253.134 200.56 251.903 200.405 250.682C200.405 250.682 206.196 250.646 210.555 251.146C213.489 251.486 215.78 252.064 215.219 253.065Z" fill="#D38884"/>
<path d="M271.489 344.152C271.467 344.408 271.386 344.655 271.251 344.873C270.434 346.065 265.811 370.417 265.811 370.417C266.181 372.062 265.143 375.339 264.47 376.829C263.796 378.318 262.305 386.064 262.305 386.064C262.305 386.064 261.935 402.748 260.969 405.352C259.997 407.956 261.279 413.545 261.279 413.545C261.183 416.113 262.728 418.83 263.647 420.212C263.712 420.302 263.772 420.391 263.825 420.469C264.124 420.898 264.32 421.142 264.32 421.142C264.574 421.64 264.929 422.078 265.364 422.429C265.43 422.483 265.501 422.536 265.573 422.59C266.841 423.439 268.26 424.038 269.754 424.354C269.801 424.365 269.849 424.371 269.897 424.383C270.493 424.514 270.881 424.568 270.881 424.568L271.251 426.582L267.302 427.398L259.776 427.917C259.776 427.917 250.902 428.59 252.917 424.64C253.057 424.37 253.178 424.091 253.281 423.805H253.287C253.359 423.615 253.43 423.418 253.49 423.215C254.701 419.42 253.884 414.808 253.884 414.808L252.166 401.33C249.339 388.817 254.396 374.886 254.396 374.886C254.396 374.886 253.955 373.772 254.927 370.942C255.899 368.111 254.927 361.932 254.927 361.932C254.927 361.932 254.408 353.96 253.734 350.015C253.47 348.357 253.38 346.676 253.466 344.998C253.498 344.015 253.588 343.034 253.734 342.061L270.732 339.809C270.732 339.809 271.692 342.579 271.489 344.152Z" fill="#FFD2C6"/>
<path opacity="0.1" d="M271.251 426.582L267.302 427.398L259.776 427.916C259.776 427.916 250.902 428.59 252.917 424.639C253.057 424.37 253.178 424.091 253.281 423.805H253.287C253.359 423.614 253.43 423.418 253.49 423.215C255.029 423.264 256.549 423.57 257.987 424.121C260.515 425.092 262.418 422.554 262.418 422.554L263.647 420.212L263.825 419.873C264.124 420.302 264.32 420.546 264.32 420.546C264.615 421.122 265.045 421.619 265.573 421.994L265.364 422.429L264.171 424.937C264.171 424.937 265.698 425.092 267.786 425.426C268.189 425.535 268.618 425.484 268.985 425.284C269.352 425.085 269.627 424.751 269.754 424.353C269.801 424.365 269.849 424.371 269.897 424.383C270.493 424.514 270.881 424.568 270.881 424.568L271.251 426.582Z" fill="black"/>
<path d="M274.907 428.441C274.608 429.782 266.295 430.193 266.295 430.193C266.295 430.193 261.672 429.746 260.372 430.825C259.066 431.903 255.261 431.647 255.112 431.647C254.963 431.647 252.953 431.569 252.166 427.965C251.402 424.449 253.192 423.835 253.281 423.805H253.287C254.895 423.828 256.487 424.136 257.987 424.717C260.515 425.688 262.418 423.15 262.418 423.15L263.825 420.469C264.124 420.898 264.32 421.142 264.32 421.142C264.615 421.718 265.045 422.215 265.573 422.59L264.171 425.533C264.171 425.533 265.698 425.688 267.786 426.022C269.455 426.29 269.819 424.932 269.897 424.383C269.907 424.308 269.913 424.233 269.915 424.157C269.915 424.157 271.215 424.532 272.819 424.979C273.537 425.192 274.149 425.665 274.536 426.305C274.922 426.946 275.054 427.708 274.907 428.441Z" fill="#626696"/>
<path d="M290.562 361.903C290.365 363.095 290.163 366.175 290.163 366.175C290.86 368.755 289.071 374.886 289.071 374.886L288.176 378.39C288.576 382.859 285.719 393.781 285.719 393.781C285.719 393.781 283.805 403.91 282.809 408.284C282.219 410.714 282.4 413.267 283.328 415.589C283.375 415.708 283.405 415.768 283.405 415.768C283.423 415.851 283.441 415.928 283.465 416.012C283.494 416.131 283.53 416.248 283.572 416.363C283.794 416.973 284.125 417.536 284.55 418.026C284.714 418.223 284.893 418.406 285.087 418.574C285.099 418.586 285.105 418.598 285.117 418.604C286.051 419.433 287.123 420.092 288.284 420.552H288.29L288.296 420.558C288.469 420.63 288.636 420.695 288.797 420.755C289.313 420.95 289.841 421.116 290.377 421.249H290.383C290.496 421.279 290.562 421.291 290.562 421.291L290.163 423.633L284.896 422.286L277.841 419.998L274.37 418.014C274.37 418.014 274.406 417.823 274.477 417.46C274.483 417.442 274.483 417.418 274.489 417.4C274.519 417.245 274.549 417.061 274.59 416.852C275.133 413.777 276.481 405.179 275.807 398.846C274.966 391.004 278.235 380.178 279.034 377.598C279.506 376.123 279.708 374.574 279.63 373.027C278.336 371.139 278.038 363.595 278.038 363.595C278.038 363.595 275.652 358.727 273.678 353.561C273.027 351.874 272.551 350.125 272.259 348.341C272.029 347.084 271.933 345.806 271.972 344.528C271.972 344.528 287.98 329.93 289.739 344.063C289.799 344.54 289.852 344.999 289.906 345.446C291.457 358.37 290.753 360.753 290.562 361.903Z" fill="#FFD2C6"/>
<path opacity="0.1" d="M290.562 421.291L290.162 423.632L284.896 422.286L277.841 419.998L274.37 418.013C274.37 418.013 274.406 417.823 274.477 417.459C274.483 417.441 274.483 417.418 274.489 417.4C274.519 417.245 274.549 417.06 274.59 416.852L275.085 416.804L275.127 416.798C276.129 416.703 277.139 416.84 278.079 417.197C279.23 417.626 280.733 418.121 281.044 417.912C281.575 417.683 282.153 417.581 282.731 417.614L283.465 416.011L283.572 415.767C283.794 416.376 284.125 416.94 284.55 417.43C284.724 417.637 284.913 417.83 285.117 418.008L285.087 418.574L285.045 419.378C285.834 419.88 286.686 420.272 287.58 420.546C287.811 420.605 288.052 420.607 288.284 420.552H288.29L288.296 420.558C288.469 420.629 288.636 420.695 288.797 420.754C289.313 420.95 289.841 421.115 290.377 421.249H290.383C290.496 421.279 290.562 421.291 290.562 421.291Z" fill="black"/>
<path d="M287.926 426.284C286.459 425.861 282.91 425.188 282.338 425.712C281.765 426.236 276.845 425.712 276.845 425.712C276.33 425.703 275.826 425.561 275.382 425.3C274.938 425.039 274.569 424.668 274.31 424.223C273.29 422.632 274.113 417.495 274.113 417.495L274.477 417.46L275.086 417.4L275.127 417.394C276.129 417.299 277.139 417.436 278.079 417.793C279.23 418.222 280.733 418.717 281.044 418.508C281.575 418.279 282.153 418.177 282.731 418.21L283.572 416.363C283.794 416.973 284.125 417.536 284.55 418.026C284.724 418.233 284.913 418.426 285.117 418.604L285.045 419.974C285.834 420.476 286.686 420.868 287.58 421.142C287.797 421.225 288.035 421.231 288.256 421.161C288.477 421.091 288.668 420.947 288.797 420.755C288.835 420.691 288.865 420.623 288.886 420.552L288.892 420.558C288.94 420.641 289.423 420.808 290.974 421.249H290.979C292.661 421.154 294.289 421.887 295.035 424.169C295.78 426.457 289.393 426.701 287.926 426.284Z" fill="#626696"/>
<path opacity="0.1" d="M271.489 344.152C271.161 344.248 270.863 344.337 270.583 344.426C269.866 344.643 269.131 344.799 268.388 344.891C263.682 345.553 255.929 345.153 253.466 344.998C253.498 344.015 253.588 343.034 253.734 342.061L270.732 339.809C270.732 339.809 271.692 342.579 271.489 344.152Z" fill="black"/>
<path d="M286.316 340.029C286.316 340.029 280.077 340.994 275.002 342.103C273.308 342.472 271.74 342.859 270.583 343.235C269.866 343.452 269.131 343.607 268.388 343.699C262.734 344.492 252.691 343.759 252.691 343.759C249.935 334.821 256.042 323.572 256.042 323.572C255.899 322.678 257.313 319.925 257.313 319.925L257.337 319.836L258.207 316.648H281.389L281.676 318.018L282.266 320.807L285.904 338.075L286.316 340.029Z" fill="#626696"/>
<path opacity="0.1" d="M289.906 345.446L289.769 345.505L287.055 346.709C284.121 348.061 275.33 348.318 272.259 348.341C272.029 347.084 271.933 345.806 271.972 344.528C271.972 344.528 287.98 329.93 289.739 344.063C289.799 344.54 289.852 344.999 289.906 345.446Z" fill="black"/>
<path d="M290.335 344.063L289.769 344.313L287.055 345.517C284.067 346.893 274.996 347.137 272.092 347.149C271.74 347.149 271.477 347.149 271.328 347.143C269.986 347.102 268.644 345.845 268.644 345.517C268.644 345.338 268.507 344.456 268.388 343.699C268.287 343.092 268.197 342.567 268.197 342.567C268.197 342.567 262.233 339.987 259.18 337.902C256.901 336.353 257.474 325.347 257.915 319.812C258.07 317.905 258.207 316.648 258.207 316.648L281.676 318.018L284.968 318.209L286.852 318.626L287.353 318.733C287.353 318.733 288.701 328.565 289.369 329.381C290.037 330.198 289.596 332.956 289.518 334.523C289.515 335.199 289.441 335.872 289.298 336.531C289.298 336.531 290.264 339.29 290.037 340.833C289.93 341.919 290.031 343.015 290.335 344.063Z" fill="#626696"/>
<path d="M184.403 337.676C178.338 337.473 182.811 324.865 183.509 323.161C184.206 321.457 182.471 317.316 182.471 317.316C182.471 317.316 180.425 305.297 180.425 304.505C180.32 302.867 180.089 301.239 179.733 299.637C179.435 298.546 179.829 295.966 180.527 294.87C181.224 293.78 181.123 289.412 181.123 289.412V283.751L182.471 281.964L185.93 285.229L186.89 286.135L188.578 292.463L187.981 301.526L187.683 310.362L189.771 322.577C189.771 322.577 190.468 337.872 184.403 337.676Z" fill="#D38884"/>
<path opacity="0.1" d="M186.293 286.731L181.123 284.591V283.751L182.471 281.963L185.93 285.229L186.293 286.731Z" fill="black"/>
<path d="M183.906 273.818C183.244 275.449 182.763 277.147 182.472 278.883C182.205 280.55 181.753 282.182 181.123 283.749L186.888 286.133L183.906 273.818Z" fill="#4C4981"/>
<path opacity="0.05" d="M183.906 273.818C183.244 275.449 182.763 277.147 182.472 278.883C182.205 280.55 181.753 282.182 181.123 283.749L186.888 286.133L183.906 273.818Z" fill="black"/>
<path d="M229.658 399.226L229.181 400.239C229.181 400.239 228.662 403.612 228.662 403.689C228.662 403.761 227.171 406.019 227.171 406.019L223.42 406.818L221.827 406.627C221.746 405.701 221.605 404.781 221.404 403.874C221.344 403.618 221.284 403.356 221.213 403.088C220.656 400.987 219.772 398.986 218.595 397.159C218.595 397.159 215.815 390.307 214.819 389.413C213.824 388.519 210.048 379.48 210.448 377.299C210.663 376.096 210.49 372.086 210.293 368.737C210.132 366.008 209.953 363.714 209.953 363.714L219.394 358.131L220.491 359.865C220.491 359.868 220.491 359.871 220.492 359.874C220.493 359.877 220.495 359.88 220.497 359.883L221.153 360.913C221.153 360.913 221.147 361.11 221.117 361.438C221.117 361.474 221.112 361.515 221.112 361.557C221.002 362.961 220.72 364.346 220.271 365.68C220.271 365.68 219.561 370.745 220.271 371.639C220.962 372.503 223.223 384.479 223.724 390.003C223.742 390.176 223.754 390.342 223.765 390.503C223.962 393.042 225.537 395.306 227.117 396.962L227.135 396.98C227.237 397.087 227.344 397.195 227.451 397.302C228.144 397.991 228.881 398.634 229.658 399.226Z" fill="#D38884"/>
<path opacity="0.1" d="M221.827 406.627L223.419 406.818L227.171 406.019C227.171 406.019 228.662 403.761 228.662 403.689C228.662 403.612 229.181 400.239 229.181 400.239L229.658 399.226L229.717 399.101C228.801 398.465 227.937 397.755 227.135 396.98L227.117 396.962C227.028 396.879 226.944 396.795 226.855 396.706C226.855 396.706 227.391 399.989 224.535 401.455C223.151 402.164 222.012 402.712 221.213 403.088L221.827 406.627Z" fill="black"/>
<path d="M230.314 399.697L229.777 400.835C229.777 400.835 229.258 404.208 229.258 404.285C229.258 404.357 227.767 406.615 227.767 406.615L224.016 407.413L221.863 407.157C221.839 406.722 221.791 406.108 221.678 405.364C221.612 404.911 221.523 404.41 221.404 403.874C222.203 403.505 223.491 402.891 225.131 402.051C227.988 400.585 227.451 397.302 227.451 397.302C228.07 397.92 228.725 398.501 229.413 399.042C229.807 399.346 230.123 399.566 230.314 399.697Z" fill="#CEDDF9"/>
<path opacity="0.1" d="M230.314 399.697L229.777 400.836C229.777 400.836 229.258 404.208 229.258 404.285C229.258 404.357 227.767 406.615 227.767 406.615L224.016 407.414L221.863 407.157C221.839 406.723 221.791 406.109 221.678 405.364C222.138 405.382 222.595 405.444 223.044 405.549C223.044 405.549 228.167 406.645 228.411 402.593C228.554 400.293 229.032 399.394 229.413 399.042C229.807 399.346 230.123 399.566 230.314 399.697Z" fill="black"/>
<path d="M229.937 399.431C229.937 399.431 228.661 399.145 228.412 403.192C228.164 407.239 223.045 406.146 223.045 406.146C223.045 406.146 220.535 405.526 220.51 406.569C220.593 407.532 220.819 408.477 221.181 409.374C221.181 409.374 221.33 411.782 221.802 412.353C222.274 412.924 221.976 415.059 221.976 415.059C221.976 415.059 222.175 416.648 226.126 415.059C226.126 415.059 229.659 414.333 232.587 409.945C232.687 409.796 232.239 409.349 234.799 408.431C237.358 407.512 244.689 401.628 244.117 398.748C244.063 398.272 243.87 397.822 243.562 397.455C243.253 397.089 242.843 396.821 242.384 396.685C242 396.581 241.6 396.555 241.207 396.608C240.813 396.661 240.434 396.791 240.092 396.992C239.4 397.364 238.687 397.694 237.955 397.978C236.979 398.373 235.95 398.619 234.901 398.706C234.097 398.774 233.303 398.926 232.531 399.161C231.67 399.419 230.571 399.656 229.937 399.431Z" fill="#CC8294"/>
<path d="M200.953 371.609C200.39 372.082 199.905 372.641 199.516 373.265C198.067 375.47 197.202 378.55 196.218 379.879C194.953 381.595 194.613 384.944 194.613 384.944C194.28 387.143 189.622 398.875 188.351 400.96C187.087 403.046 185.334 408.706 185.334 408.706C184.26 410.053 184.326 412.049 184.433 413.002C184.457 413.169 184.475 413.3 184.487 413.39C184.504 413.491 184.516 413.545 184.516 413.545L184.487 413.598L182.763 416.524L177.282 415.767L174.449 413.843C174.682 413.469 174.887 413.078 175.064 412.675C176.578 409.296 177.658 403.266 177.658 403.266C177.658 403.266 179.185 396.378 179.071 394.775C178.964 393.173 179.519 388.221 179.519 388.221C179.519 388.221 183.807 375.041 185.155 372.878C185.73 372.035 186.087 371.063 186.192 370.048C186.211 369.843 186.201 369.636 186.162 369.434L188.017 367.593C188.017 367.593 203.339 369.714 200.953 371.609Z" fill="#D38884"/>
<path opacity="0.1" d="M184.516 412.949C184.516 412.949 184.499 413.116 184.487 413.39V413.598L182.763 416.524L177.282 415.767L174.449 413.843C174.682 413.469 174.887 413.078 175.064 412.675C176.441 412.282 179.596 413.396 179.596 413.396C179.596 413.396 183.002 414.045 184.433 413.003C184.463 412.989 184.491 412.971 184.516 412.949Z" fill="black"/>
<path d="M183.175 420.767L177.616 422.113L172.511 418.347L172.773 416.226C173.13 415.995 173.446 415.707 173.71 415.374C174.083 414.935 174.337 414.408 174.449 413.843C174.747 412.282 179.596 413.992 179.596 413.992C179.596 413.992 183.139 414.665 184.516 413.545C184.421 414.573 184.509 415.61 184.779 416.607C184.91 417.093 185.197 417.522 185.596 417.829C187.015 418.794 183.175 420.767 183.175 420.767Z" fill="#CEDDF9"/>
<path opacity="0.1" d="M183.175 420.767L177.616 422.113L172.511 418.347L172.773 416.226C173.13 415.995 173.446 415.707 173.71 415.374C174.079 415.368 174.485 415.374 174.825 415.404C175.684 415.481 177.694 419.134 177.694 419.134C182.739 419.468 184.242 417.823 184.779 416.608C184.91 417.093 185.197 417.522 185.596 417.829C187.015 418.794 183.175 420.767 183.175 420.767Z" fill="black"/>
<path d="M177.694 419.727C177.694 419.727 175.681 416.077 174.824 416.003C174.103 415.962 173.382 415.962 172.662 416.003C172.662 416.003 170.425 421.291 169.605 421.775C168.785 422.259 167.592 424.754 167.592 424.754C167.592 424.754 173.497 430.452 179.211 429.372C181.031 429.398 182.821 429.844 184.44 430.676C187.087 432.054 198.12 431.011 199.462 428.59C200.469 426.775 200.867 425.454 199.981 424.486C199.717 424.211 199.391 424.004 199.03 423.881C198.669 423.759 198.283 423.725 197.906 423.783C196.518 423.973 193.403 423.933 190.665 420.583C190.665 420.583 185.633 415.974 185.223 415.97C184.813 415.966 185.559 420.248 177.694 419.727Z" fill="#CC8294"/>
<path opacity="0.1" d="M221.153 361.509C221.141 361.526 221.127 361.542 221.111 361.557C220.771 361.932 218.338 364.596 217.605 364.786C216.383 365.247 215.188 365.776 214.026 366.371C214.026 366.371 212.535 368.362 211.342 368.457C210.983 368.509 210.63 368.603 210.293 368.737C210.132 366.008 209.953 363.714 209.953 363.714L219.394 358.131L220.491 359.865C220.491 359.868 220.491 359.871 220.492 359.874C220.493 359.877 220.495 359.88 220.497 359.883C220.748 360.586 221.028 361.229 221.117 361.438L221.153 361.509Z" fill="black"/>
<path d="M186.789 323.158C186.789 323.158 183.111 327.941 186.789 334.297C190.467 340.653 194.343 343.831 194.343 343.831L206.867 369.75C206.867 369.75 210.148 367.962 211.34 367.863C212.533 367.764 214.024 365.778 214.024 365.778C215.187 365.182 216.381 364.652 217.603 364.189C218.398 363.99 221.153 360.912 221.153 360.912C221.153 360.912 219.789 357.932 220.088 357.138C220.386 356.343 219.193 354.357 219.193 354.357C218.829 353.359 218.563 352.328 218.398 351.279C218.398 350.484 217.106 348.597 217.106 348.597C217.106 348.597 215.813 346.611 215.813 345.519C215.813 344.426 213.925 340.156 213.925 340.156L213.428 321.288L186.789 323.158Z" fill="#CEDDF9"/>
<path opacity="0.05" d="M221.153 360.913C221.153 360.913 218.398 363.988 217.605 364.191C216.383 364.651 215.188 365.18 214.026 365.776C214.026 365.776 212.535 367.766 211.342 367.861C210.491 368.041 209.669 368.336 208.897 368.737C207.83 369.226 206.869 369.75 206.869 369.75L194.345 343.831C193.25 342.874 192.233 341.832 191.303 340.714C189.605 338.718 188.094 336.57 186.789 334.297C185.354 331.993 184.845 329.232 185.363 326.569C185.596 325.346 186.081 324.185 186.789 323.161L195.699 322.535L213.43 321.29L213.579 326.867L213.925 340.154C213.925 340.154 214.217 340.821 214.575 341.697C215.124 343.038 215.815 344.855 215.815 345.517C215.815 346.613 217.104 348.597 217.104 348.597C217.104 348.597 218.398 350.486 218.398 351.279C218.563 352.329 218.828 353.36 219.191 354.359C219.191 354.359 220.384 356.343 220.086 357.136C219.787 357.934 221.153 360.913 221.153 360.913Z" fill="black"/>
<path opacity="0.1" d="M200.953 371.609C200.39 372.082 199.905 372.641 199.516 373.266C194.107 373.653 187.82 370.829 186.192 370.048C186.211 369.843 186.201 369.637 186.162 369.434L188.017 367.593C188.017 367.593 203.339 369.714 200.953 371.609Z" fill="black"/>
<path d="M216.907 329.036C216.907 329.036 216.114 331.812 215.815 333.004C215.517 334.196 214.921 340.059 214.921 340.059L214.575 341.697L208.897 368.737L207.663 374.618C205.474 375.81 200.011 372.628 200.011 372.628C193.647 373.325 185.793 369.255 185.793 369.255C185.793 369.255 187.087 365.085 186.789 362.999C186.491 360.914 188.578 359.221 188.578 359.221C188.083 357.339 189.866 349.092 189.866 349.092C189.866 349.092 190.266 346.017 191.757 345.219C193.248 344.426 191.56 343.235 191.16 342.538C190.964 342.198 191.107 341.417 191.303 340.714C191.432 340.256 191.583 339.805 191.757 339.362C187.97 335.578 187.385 329.655 187.379 326.372C187.37 325.571 187.406 324.769 187.486 323.971L195.699 322.535L213.627 319.401L215.452 325.026V325.038L215.911 326.45L216.907 329.036Z" fill="#CEDDF9"/>
<path opacity="0.1" d="M215.219 253.065C214.838 253.864 214.561 254.71 214.396 255.58C214.348 255.8 214.301 256.032 214.247 256.271C212.517 257.391 211.448 257.4 209.235 257.4C208.472 257.4 208.049 255.943 207.327 255.794C207.327 255.794 206.244 251.896 205.934 255.182C203.853 254.753 202.057 256.378 200.583 254.96L200.56 254.936C200.571 254.745 200.577 254.555 200.583 254.364C200.62 253.134 200.56 251.903 200.405 250.682C200.405 250.682 206.196 250.646 210.555 251.146C213.489 251.486 215.78 252.064 215.219 253.065Z" fill="black"/>
<path d="M219.322 246.38C219.322 248.022 218.956 249.643 218.251 251.127C217.546 252.61 216.519 253.918 215.245 254.955C213.971 255.993 212.482 256.734 210.886 257.126C209.29 257.517 207.627 257.549 206.017 257.218C206.017 257.218 206.011 257.212 206.011 257.218C203.96 256.796 202.071 255.8 200.563 254.348C199.055 252.896 197.99 251.047 197.492 249.015C196.994 246.982 197.083 244.851 197.749 242.867C198.414 240.883 199.629 239.128 201.253 237.807C202.876 236.485 204.841 235.65 206.92 235.399C208.999 235.148 211.107 235.492 212.999 236.389C214.891 237.287 216.489 238.702 217.608 240.47C218.727 242.238 219.322 244.288 219.322 246.38Z" fill="#D38884"/>
<path opacity="0.1" d="M213.257 263.767C213.173 264.69 213.132 265.28 213.132 265.28C213.132 265.28 195.335 264.088 198.418 261.109C199.209 260.282 199.77 259.264 200.047 258.154L207.764 259.417C207.764 259.417 209.947 261.109 211.641 262.694C212.125 263.127 212.67 263.488 213.257 263.767Z" fill="black"/>
<path opacity="0.1" d="M215.911 327.046C215.129 327.146 214.336 327.085 213.579 326.867C213.247 326.767 212.929 326.627 212.631 326.45C211.14 325.556 206.172 326.652 206.172 326.652C206.172 326.652 192.651 327.546 192.055 326.652C191.715 326.14 189.335 326.217 187.379 326.372C186.586 326.438 185.858 326.515 185.363 326.569C185.596 325.346 186.081 324.185 186.789 323.161L195.699 322.535L213.627 319.401L215.452 325.026V325.038C215.66 326.188 215.911 327.046 215.911 327.046Z" fill="black"/>
<path d="M207.762 260.015L198.06 258.426C197.889 258.807 197.637 259.147 197.321 259.422C197.006 259.696 196.634 259.899 196.232 260.015C194.939 260.313 189.174 263.292 186.59 266.867L184.006 270.442C184.006 270.442 181.918 273.024 182.614 275.11C183.31 277.195 184.105 284.246 184.105 284.246L185.099 292.091C185.099 292.091 186.988 297.752 186.391 300.234C185.795 302.717 186.689 313.145 186.689 313.145L184.701 326.055C184.701 326.055 191.46 325.161 192.057 326.055C192.653 326.948 206.172 326.055 206.172 326.055C206.172 326.055 211.142 324.962 212.633 325.856C213.635 326.397 214.784 326.605 215.913 326.452C215.913 326.452 214.72 322.38 215.416 320.096C216.112 317.812 215.913 313.641 215.913 313.641C215.913 313.641 216.907 307.583 216.41 306.491C215.913 305.399 217.503 301.426 217.503 301.426L222.771 273.719C222.771 273.719 222.134 268.754 219.321 267.066C216.509 265.377 213.328 264.881 211.639 263.292C209.949 261.703 207.762 260.015 207.762 260.015Z" fill="#4C4981"/>
<path d="M212.235 287.324V290.601L215.302 298.844L216.41 306.491C216.41 306.491 218.398 311.952 218.398 313.839C218.398 315.726 223.268 324.863 223.268 324.863C223.268 324.863 224.596 327.941 223.932 328.537C223.268 329.133 217.503 342.241 224.759 341.844C232.016 341.447 229.729 327.742 229.729 327.742L228.735 321.784C228.735 321.784 227.344 306.888 227.344 305.795C227.344 305.795 225.555 299.44 225.356 298.049C225.157 296.659 223.865 289.608 223.865 289.608L222.771 285.04L212.235 287.324Z" fill="#D38884"/>
<path opacity="0.1" d="M208.781 297.652L197.971 303.834L194.617 308.899L199.089 304.356L208.781 297.652Z" fill="black"/>
<path opacity="0.1" d="M205.501 309.495C205.501 309.495 200.58 312.698 198.269 312.698C195.958 312.698 190.591 318.209 190.591 318.209C190.591 318.209 198.195 313.302 198.791 313.447C199.388 313.592 205.501 309.495 205.501 309.495Z" fill="black"/>
<path opacity="0.1" d="M192.902 311.208C192.902 311.208 188.28 315.379 189.473 315.826C190.665 316.273 196.853 311.208 196.853 311.208H192.902Z" fill="black"/>
<path opacity="0.1" d="M213.328 296.312C213.328 296.312 209.75 301.153 210.719 301.078C211.688 301.004 214.447 298.248 214.447 298.248L213.328 296.312Z" fill="black"/>
<path opacity="0.1" d="M213.85 301.08C213.85 301.08 209.974 305.473 210.123 306.59C210.272 307.708 213.85 301.08 213.85 301.08Z" fill="black"/>
<path opacity="0.1" d="M214.819 303.276C214.819 303.276 212.21 307.931 213.328 308.899C214.447 309.867 214.819 303.276 214.819 303.276Z" fill="black"/>
<path opacity="0.1" d="M211.465 291.321C211.465 291.321 209.526 294.598 210.943 294.822C212.359 295.045 212.5 294.822 212.5 294.822L211.465 291.321Z" fill="black"/>
<path opacity="0.1" d="M211.987 279.33C211.502 281.334 210.837 283.29 210.001 285.175C209.687 284.214 209.428 283.235 209.225 282.244C210.047 281.184 210.972 280.208 211.987 279.33Z" fill="black"/>
<path opacity="0.1" d="M217.903 240.964C217.709 241.383 217.456 241.772 217.151 242.12C216.643 242.579 216.19 243.097 215.803 243.663C215.386 244.455 215.464 245.409 215.32 246.296C215.177 247.178 214.617 248.161 213.722 248.191C213.263 248.147 212.817 248.014 212.41 247.798C212.207 247.691 211.98 247.639 211.751 247.646C211.522 247.653 211.299 247.72 211.104 247.84C210.844 248.102 210.695 248.454 210.686 248.823C210.574 249.592 210.53 250.37 210.555 251.147C210.561 251.456 210.579 251.76 210.609 252.07C210.704 253.065 210.901 254.138 210.43 255.026C210.003 255.71 209.355 256.229 208.593 256.497C207.767 256.843 206.902 257.085 206.017 257.218C206.017 257.218 206.011 257.212 206.011 257.218C204.325 257.426 202.625 257.482 200.929 257.385C200.775 257.389 200.622 257.364 200.476 257.314C200.404 257.283 200.337 257.241 200.279 257.189C200.461 256.257 200.562 255.313 200.583 254.364C199.434 253.264 198.536 251.929 197.95 250.45C197.365 248.971 197.105 247.384 197.188 245.796C197.272 244.208 197.698 242.656 198.436 241.247C199.174 239.838 200.208 238.605 201.466 237.631C202.725 236.658 204.178 235.966 205.729 235.605C207.279 235.243 208.889 235.22 210.448 235.536C212.008 235.852 213.482 236.501 214.768 237.437C216.055 238.374 217.124 239.577 217.903 240.964V240.964Z" fill="black"/>
<path d="M213.27 231.57C212.253 231.466 211.295 232.009 210.297 232.229C208.234 232.684 206.123 231.745 204.01 231.753C202.191 231.854 200.422 232.381 198.844 233.293C197.565 233.895 196.399 234.711 195.394 235.705C194.386 236.713 193.8 238.067 193.755 239.492C193.762 240.312 193.996 241.171 193.681 241.929C193.464 242.333 193.212 242.717 192.928 243.077C192.664 243.496 192.496 243.968 192.435 244.459C192.374 244.95 192.422 245.448 192.576 245.919C192.901 246.889 193.646 247.647 194.273 248.455C195.632 250.207 196.487 252.293 197.707 254.144C198.239 254.95 198.838 255.71 199.498 256.414C199.603 256.542 199.734 256.646 199.881 256.72C200.026 256.771 200.18 256.795 200.333 256.79C202.925 256.863 205.612 256.919 207.997 255.901C208.759 255.633 209.407 255.115 209.834 254.43C210.302 253.542 210.11 252.471 210.014 251.472C209.911 250.39 209.936 249.3 210.088 248.225C210.1 247.857 210.249 247.507 210.506 247.243C210.703 247.125 210.926 247.059 211.156 247.052C211.385 247.045 211.613 247.097 211.816 247.203C212.221 247.42 212.666 247.553 213.123 247.594C214.021 247.563 214.583 246.585 214.726 245.699C214.869 244.813 214.789 243.86 215.209 243.067C215.595 242.501 216.047 241.983 216.557 241.526C217.171 240.746 217.591 239.832 217.786 238.859C217.981 237.887 217.943 236.882 217.677 235.926C217.124 234.081 215.321 231.779 213.27 231.57Z" fill="#1E1637"/>
<path d="M265.215 262.423C270.526 262.423 274.832 258.121 274.832 252.815C274.832 247.508 270.526 243.207 265.215 243.207C259.904 243.207 255.598 247.508 255.598 252.815C255.598 258.121 259.904 262.423 265.215 262.423Z" fill="#FFD2C6"/>
<path d="M260.518 256.825C260.518 256.825 261.189 265.924 259.326 268.009C257.462 270.095 252.616 274.042 252.616 274.042L254.107 280.224L262.531 281.192L272.372 270.69L270.135 267.935C270.135 267.935 268.421 262.125 269.837 259.22C271.254 256.316 260.518 256.825 260.518 256.825Z" fill="#FFD2C6"/>
<path opacity="0.1" d="M280.87 276.815V276.821L280.352 277.62L277.37 276.797L275.282 268.992L275.408 266.728L276.022 265.846C276.022 265.846 279.302 265.923 279.159 268.902C279.022 271.524 280.513 275.82 280.87 276.815Z" fill="black"/>
<path opacity="0.1" d="M287.353 319.925C287.353 319.925 284.98 320.455 282.266 320.807C279.511 321.165 276.409 321.343 275.127 320.593C272.968 319.317 261.273 319.681 257.915 319.812C257.677 319.818 257.486 319.83 257.337 319.836L258.207 316.648H281.389L281.676 318.018L284.968 318.209L286.852 318.626C287.163 319.401 287.353 319.925 287.353 319.925Z" fill="black"/>
<path d="M275.428 266.445C275.428 266.445 278.709 266.519 278.559 269.499C278.41 272.478 280.349 277.617 280.349 277.617L279.603 279.33C279.603 279.33 278.559 283.501 279.38 284.544C280.2 285.586 283.182 285.586 281.467 294.152C281.467 294.152 281.096 300.557 281.99 302.643C282.883 304.728 282.883 309.718 284.225 311.804C285.567 313.889 287.356 318.731 287.356 318.731C287.356 318.731 277.665 320.89 275.13 319.401C272.595 317.911 257.015 318.656 257.015 318.656C257.015 318.656 257.089 316.049 257.015 315.751C256.946 315.426 256.943 315.09 257.007 314.764C257.071 314.437 257.201 314.127 257.387 313.852C257.909 313.144 258.729 311.953 258.282 310.91C257.835 309.867 259.4 308.334 258.58 306.717C257.76 305.101 256.76 304.781 256.962 303.898C257.164 303.015 256.642 301.825 256.045 301.079C255.449 300.334 251.423 292.463 251.423 292.463L250.752 288.789C250.752 288.789 245.564 284.991 245.661 283.203C245.758 281.416 247.621 278.939 247.621 278.939L252.616 274.042C252.616 274.042 255.375 277.021 258.058 275.978C260.742 274.936 266.508 269.945 266.508 269.945C266.508 269.945 268.57 268.828 268.719 268.009C268.868 267.19 270.135 267.934 270.135 267.934C270.135 267.934 271.999 266.913 272.372 267.275C272.745 267.637 274.385 267.934 274.385 267.934L275.428 266.445Z" fill="#FFCDE5"/>
<path d="M247.249 281.962L245.661 283.203C245.661 283.203 244.043 286.108 243.67 291.322C243.297 296.535 241.657 303.898 241.657 303.898L238.526 309.495C238.526 309.495 233.382 320.287 232.711 323.158C232.04 326.03 228.984 330.871 228.984 330.871C228.984 330.871 218.621 340.174 225.853 341.853C233.084 343.533 233.308 334.446 233.308 334.446C233.308 334.446 234.993 332.584 235.269 331.318C235.544 330.052 244.714 313.852 244.714 313.852C244.714 313.852 247.92 309.495 247.249 307.186C247.249 307.186 251.423 297.38 251.423 294.922C251.346 292.864 251.122 290.815 250.752 288.789L251.423 283.65L247.249 281.962Z" fill="#FFD2C6"/>
<path opacity="0.1" d="M268.719 302.494C268.719 302.494 261.413 306.314 259.997 306.516C258.58 306.717 266.184 305.696 266.184 305.696L268.719 302.494Z" fill="black"/>
<path opacity="0.1" d="M274.683 305.473C274.683 305.473 264.991 308.75 260.742 308.154C260.742 308.154 271.328 310.165 274.683 305.473Z" fill="black"/>
<path opacity="0.1" d="M275.279 306.542C275.279 306.542 266.556 312.027 261.412 311.134C261.412 311.134 273.416 313.517 275.279 312.251L269.912 310.761C269.912 310.761 275.876 307.611 275.279 306.542Z" fill="black"/>
<path opacity="0.1" d="M265.228 235.909C262.71 235.402 259.91 235.711 257.891 237.298C256.397 238.472 255.404 240.266 253.719 241.143C252.83 241.516 251.921 241.836 250.994 242.101C249.36 242.768 247.998 243.965 247.128 245.498C246.257 247.032 245.927 248.814 246.193 250.557C246.456 252.032 247.148 253.397 247.489 254.855C248.098 257.454 247.562 260.175 246.902 262.761C245.067 269.943 242.281 276.848 238.618 283.293C238.327 283.691 238.182 284.178 238.208 284.671C238.296 285.004 238.471 285.308 238.715 285.552C242.161 289.529 247.768 290.895 253.03 291.075C254.97 291.142 256.997 291.057 258.705 290.135C259.803 289.503 260.748 288.636 261.471 287.597C263.297 285.093 264.204 282.037 264.037 278.944C263.894 276.448 263.055 273.919 263.686 271.501C263.754 271.163 263.908 270.849 264.133 270.589C264.7 270.01 265.642 270.162 266.448 270.069C268.636 269.816 270.048 267.509 270.308 265.324C270.567 263.138 270.023 260.94 270.01 258.74C269.999 255.832 270.909 252.995 272.609 250.635C273.337 249.63 274.266 248.649 274.512 247.391C274.819 245.821 273.91 244.669 273.123 243.425C271.902 241.495 271.303 239.238 269.441 237.765C268.202 236.825 266.759 236.19 265.228 235.909Z" fill="black"/>
<path d="M264.632 235.314C262.113 234.806 259.314 235.116 257.294 236.702C255.801 237.876 254.808 239.67 253.122 240.548C252.234 240.92 251.324 241.24 250.398 241.505C248.764 242.172 247.402 243.369 246.531 244.903C245.66 246.436 245.331 248.218 245.596 249.962C245.86 251.436 246.551 252.801 246.893 254.259C247.501 256.858 246.966 259.579 246.306 262.165C244.471 269.347 241.685 276.252 238.022 282.697C237.73 283.096 237.585 283.582 237.612 284.075C237.699 284.409 237.874 284.713 238.119 284.956C241.565 288.934 247.171 290.299 252.434 290.48C254.373 290.546 256.401 290.461 258.108 289.54C259.207 288.907 260.151 288.041 260.875 287.001C262.701 284.497 263.607 281.441 263.44 278.348C263.297 275.853 262.458 273.323 263.09 270.905C263.157 270.567 263.311 270.253 263.537 269.993C264.104 269.415 265.046 269.567 265.851 269.473C268.039 269.22 269.452 266.913 269.711 264.728C269.97 262.543 269.427 260.344 269.413 258.144C269.403 255.236 270.313 252.399 272.013 250.039C272.74 249.035 273.67 248.053 273.916 246.796C274.223 245.226 273.313 244.074 272.526 242.83C271.305 240.899 270.706 238.642 268.845 237.169C267.605 236.23 266.162 235.594 264.632 235.314Z" fill="#985C7E"/>
<path opacity="0.1" d="M223.916 278.68C223.517 280.265 223.916 282.75 223.916 282.75C223.815 283.84 223.916 289.9 223.916 289.9C220.636 288.905 212.287 290.895 212.287 290.895L211.291 287.916C210.727 287.185 210.306 286.354 210.05 285.467C209.737 284.505 209.478 283.526 209.275 282.535C208.841 280.474 208.515 278.392 208.297 276.297C207.885 273.139 212.585 269.743 216.139 267.854C219.694 265.965 222.819 274.009 222.819 274.009C222.819 274.009 224.31 277.089 223.916 278.68Z" fill="black"/>
<path d="M223.916 278.085C223.517 279.669 223.916 282.154 223.916 282.154C223.815 283.245 223.916 289.304 223.916 289.304C220.636 288.309 212.287 290.299 212.287 290.299L211.291 287.32C210.727 286.589 210.306 285.758 210.05 284.871C209.737 283.909 209.478 282.931 209.275 281.94C208.841 279.878 208.515 277.796 208.297 275.701C207.885 272.543 212.585 269.147 216.139 267.258C219.694 265.369 222.819 273.413 222.819 273.413C222.819 273.413 224.31 276.494 223.916 278.085Z" fill="#4C4981"/>
<path opacity="0.1" d="M261.412 328.438C261.412 328.438 263.328 337.376 266.508 339.809L261.412 328.438Z" fill="black"/>
<path opacity="0.2" d="M217.607 235.926C217.431 235.365 217.184 234.829 216.871 234.331C216.923 234.467 216.971 234.602 217.011 234.734C217.277 235.69 217.314 236.695 217.119 237.668C216.925 238.641 216.504 239.554 215.89 240.334C215.381 240.792 214.928 241.309 214.543 241.875C214.122 242.668 214.203 243.621 214.059 244.507C213.916 245.394 213.355 246.371 212.457 246.402C211.999 246.361 211.555 246.228 211.15 246.011C210.946 245.905 210.719 245.853 210.489 245.86C210.26 245.867 210.036 245.933 209.839 246.051C209.583 246.315 209.433 246.665 209.421 247.033C209.269 248.109 209.244 249.199 209.348 250.28C209.443 251.279 209.635 252.35 209.168 253.238C208.74 253.923 208.092 254.441 207.33 254.709C204.946 255.727 202.259 255.671 199.667 255.598C199.513 255.603 199.359 255.58 199.214 255.528C199.067 255.454 198.936 255.35 198.832 255.223C198.171 254.518 197.572 253.759 197.041 252.953C195.821 251.101 194.965 249.016 193.607 247.264C193.234 246.784 192.822 246.321 192.479 245.822C192.489 245.854 192.495 245.887 192.506 245.919C192.831 246.889 193.576 247.647 194.203 248.455C195.562 250.207 196.417 252.293 197.637 254.144C198.168 254.95 198.768 255.71 199.428 256.414C199.533 256.542 199.663 256.646 199.811 256.72C199.956 256.771 200.109 256.795 200.263 256.79C202.855 256.863 205.542 256.919 207.926 255.901C208.688 255.633 209.336 255.115 209.764 254.43C210.232 253.542 210.04 252.471 209.944 251.472C209.841 250.39 209.865 249.3 210.017 248.225C210.03 247.857 210.179 247.507 210.436 247.243C210.632 247.125 210.856 247.059 211.086 247.052C211.315 247.045 211.543 247.097 211.746 247.203C212.151 247.42 212.595 247.553 213.053 247.594C213.951 247.563 214.512 246.585 214.656 245.699C214.799 244.813 214.718 243.86 215.139 243.067C215.525 242.501 215.977 241.983 216.487 241.526C217.1 240.746 217.521 239.832 217.716 238.859C217.91 237.887 217.873 236.882 217.607 235.926Z" fill="black"/>
<g opacity="0.1">
<path opacity="0.1" d="M246.163 251.964C246.062 251.613 245.947 251.267 245.827 250.921C245.928 251.272 246.042 251.619 246.163 251.964Z" fill="black"/>
<path opacity="0.1" d="M273.361 244.163C273.385 244.445 273.371 244.729 273.319 245.008C273.074 246.265 272.144 247.247 271.417 248.251C269.716 250.612 268.807 253.448 268.817 256.356C268.83 258.557 269.374 260.755 269.115 262.94C268.855 265.126 267.443 267.432 265.255 267.686C264.45 267.779 263.507 267.627 262.94 268.205C262.715 268.466 262.561 268.78 262.493 269.117C261.862 271.535 262.701 274.065 262.844 276.56C263.011 279.653 262.105 282.71 260.278 285.213C259.555 286.253 258.61 287.12 257.512 287.752C255.804 288.673 253.777 288.758 251.837 288.692C246.661 288.515 241.156 287.185 237.698 283.355C237.605 283.583 237.575 283.832 237.612 284.075C237.699 284.408 237.874 284.713 238.119 284.956C241.565 288.934 247.171 290.299 252.434 290.479C254.373 290.546 256.401 290.461 258.108 289.539C259.207 288.907 260.151 288.04 260.875 287.001C262.701 284.497 263.607 281.441 263.44 278.348C263.297 275.853 262.458 273.323 263.09 270.905C263.157 270.567 263.311 270.253 263.537 269.993C264.104 269.414 265.046 269.567 265.851 269.473C268.039 269.22 269.452 266.913 269.711 264.728C269.971 262.543 269.427 260.344 269.413 258.144C269.403 255.236 270.313 252.399 272.013 250.039C272.74 249.035 273.67 248.053 273.916 246.795C274.067 245.879 273.869 244.94 273.361 244.163Z" fill="black"/>
</g>
<path d="M73.4706 404.7C73.4706 404.7 52.7101 415.416 63.4355 428.041C63.4355 428.041 64.4443 430.799 67.3645 430.587C67.3645 430.587 66.7805 429.526 69.0105 428.677C69.8014 428.37 70.5532 427.97 71.2504 427.487C72.1938 426.835 72.8987 425.893 73.2582 424.805C73.2582 424.805 77.5059 419.129 74.2139 408.626C74.2139 408.626 74.6387 405.655 74.267 405.178L71.745 408.632C71.745 408.632 74.3533 410.383 74.652 412.949C74.652 412.949 71.9352 408.64 71.3467 409.13C71.2273 409.229 70.0924 411.019 70.0924 411.019C70.0924 411.019 74.6121 414.083 74.9506 418.061C74.9506 418.061 72.402 412.491 69.6543 411.696L68.1013 414.501C68.1013 414.501 73.0392 417.504 73.5967 422.02C73.5967 422.02 70.7295 416.291 67.8026 415.137L66.6478 418.101C66.6478 418.101 71.4065 421.125 71.8445 424.885C71.8445 424.885 67.8623 418.598 66.4287 418.797C66.4287 418.797 65.5328 421.582 65.6522 422.438C65.6522 422.438 69.0172 424.686 69.0769 426.894C69.0769 426.894 65.9708 422.975 65.4929 423.233C65.4929 423.233 65.2938 427.172 66.2495 429.221C66.2495 429.221 64.6168 426.297 64.8757 423.233C63.9132 424.084 63.2211 425.197 62.8846 426.436C62.8846 426.436 61.9886 424.268 64.9354 422.279C64.9354 422.279 65.2142 419.215 65.5526 418.837C65.5526 418.837 62.3669 420.389 61.013 422.299C61.013 422.299 61.5107 419.454 65.8314 418.042L66.9265 415.038C66.9265 415.038 62.6058 416.868 61.2718 418.479C61.2718 418.479 62.2298 415.656 67.265 414.302L68.7583 411.537C68.7583 411.537 64.9155 412.83 63.0439 414.302C63.0439 414.302 64.4974 411.875 69.2163 410.761L70.4308 409.03C70.4308 409.03 67.6433 410.025 66.8668 410.383C66.0902 410.741 65.931 410.562 65.931 410.562C67.3544 409.358 69.0846 408.573 70.9286 408.294C70.9286 408.294 73.663 404.886 73.4706 404.7Z" fill="#FB3957"/>
<path d="M424.518 390.278C424.518 390.278 403.757 400.994 414.482 413.619C414.482 413.619 415.491 416.377 418.412 416.165C418.412 416.165 417.827 415.104 420.057 414.256C420.848 413.948 421.6 413.548 422.297 413.065C423.241 412.413 423.946 411.471 424.305 410.383C424.305 410.383 428.553 404.707 425.261 394.204C425.261 394.204 425.686 391.233 425.314 390.756L422.792 394.21C422.792 394.21 425.4 395.961 425.699 398.527C425.699 398.527 422.982 394.218 422.394 394.708C422.274 394.807 421.139 396.598 421.139 396.598C421.139 396.598 425.659 399.661 425.998 403.64C425.998 403.64 423.449 398.07 420.701 397.274L419.148 400.079C419.148 400.079 424.086 403.083 424.644 407.598C424.644 407.598 421.776 401.869 418.85 400.715L417.695 403.679C417.695 403.679 422.453 406.703 422.892 410.463C422.892 410.463 418.909 404.177 417.476 404.376C417.476 404.376 416.58 407.161 416.699 408.016C416.699 408.016 420.064 410.264 420.124 412.472C420.124 412.472 417.018 408.553 416.54 408.812C416.54 408.812 416.341 412.75 417.297 414.799C417.297 414.799 415.664 411.875 415.923 408.812C414.96 409.662 414.268 410.775 413.932 412.014C413.932 412.014 413.036 409.846 415.982 407.857C415.982 407.857 416.261 404.793 416.6 404.415C416.6 404.415 413.414 405.967 412.06 407.877C412.06 407.877 412.558 405.032 416.878 403.62L417.974 400.616C417.974 400.616 413.653 402.446 412.319 404.057C412.319 404.057 413.277 401.234 418.312 399.88L419.805 397.115C419.805 397.115 415.962 398.408 414.091 399.88C414.091 399.88 415.544 397.453 420.263 396.339L421.478 394.608C421.478 394.608 418.69 395.603 417.914 395.961C417.137 396.319 416.978 396.14 416.978 396.14C418.401 394.936 420.132 394.151 421.976 393.872C421.976 393.872 424.71 390.464 424.518 390.278Z" fill="#FB3957"/>
<path d="M512.707 399.642C512.707 399.642 491.947 410.357 502.672 422.982C502.672 422.982 503.681 425.741 506.601 425.528C506.601 425.528 506.017 424.468 508.247 423.619C509.038 423.311 509.79 422.912 510.487 422.428C511.431 421.776 512.135 420.835 512.495 419.746C512.495 419.746 516.743 414.07 513.451 403.567C513.451 403.567 513.875 400.596 513.504 400.119L510.982 403.574C510.982 403.574 513.59 405.324 513.889 407.89C513.889 407.89 511.172 403.581 510.583 404.071C510.464 404.17 509.329 405.961 509.329 405.961C509.329 405.961 513.849 409.024 514.187 413.003C514.187 413.003 511.639 407.433 508.891 406.637L507.338 409.442C507.338 409.442 512.276 412.446 512.833 416.961C512.833 416.961 509.966 411.232 507.039 410.079L505.884 413.043C505.884 413.043 510.643 416.066 511.081 419.826C511.081 419.826 507.099 413.54 505.665 413.739C505.665 413.739 504.769 416.524 504.889 417.379C504.889 417.379 508.254 419.627 508.314 421.835C508.314 421.835 505.207 417.916 504.73 418.175C504.73 418.175 504.531 422.114 505.486 424.162C505.486 424.162 503.854 421.238 504.112 418.175C503.15 419.025 502.458 420.139 502.121 421.378C502.121 421.378 501.225 419.209 504.172 417.22C504.172 417.22 504.451 414.157 504.789 413.779C504.789 413.779 501.604 415.33 500.25 417.24C500.25 417.24 500.747 414.395 505.068 412.983L506.163 409.979C506.163 409.979 501.843 411.809 500.509 413.42C500.509 413.42 501.466 410.597 506.502 409.243L507.995 406.478C507.995 406.478 504.152 407.771 502.281 409.243C502.281 409.243 503.734 406.816 508.453 405.702L509.668 403.972C509.668 403.972 506.88 404.966 506.104 405.324C505.327 405.682 505.168 405.503 505.168 405.503C506.591 404.299 508.321 403.514 510.165 403.235C510.165 403.235 512.9 399.827 512.707 399.642Z" fill="#FB3957"/>
<path d="M361.618 283.256L360.481 281.871C362.72 280.035 362.826 268.681 361.706 262.524C360.929 258.253 360.811 254.59 361.345 251.327C362.195 246.13 364.686 242.283 368.751 239.891C377.183 234.93 382.238 221.319 382.288 221.183L383.972 221.797C383.759 222.38 378.65 236.145 369.66 241.434C363.685 244.951 361.602 251.938 363.47 262.204C364.35 267.042 365.091 280.407 361.618 283.256Z" fill="#D4D5E0"/>
<path d="M408.423 214.482C413.919 201.007 409.199 186.349 397.881 181.741C386.563 177.134 372.933 184.322 367.437 197.796C362.101 210.879 366.396 225.078 377.01 230.109C376.297 231.415 375.221 232.486 373.913 233.196C371.615 234.268 379.085 235.301 379.085 235.301C379.095 233.894 379.334 232.498 379.79 231.167C390.714 234.366 403.218 227.245 408.423 214.482Z" fill="#FB3957"/>
<path opacity="0.2" d="M369.619 210.305C369.872 204.488 373.388 199.871 377.593 199.665C377.412 199.64 377.228 199.623 377.043 199.615C372.597 199.422 368.78 204.187 368.516 210.258C368.26 216.152 371.449 221.109 375.704 221.568C375.628 222.009 369.364 216.19 369.619 210.305Z" fill="white"/>
<path d="M430.087 374.463L428.949 373.079C431.189 371.242 431.295 359.888 430.175 353.731C429.398 349.46 429.279 345.797 429.813 342.534C430.663 337.337 433.155 333.49 437.219 331.098C445.651 326.137 450.706 312.526 450.756 312.39L452.44 313.004C452.227 313.587 447.118 327.352 438.129 332.642C432.153 336.158 430.071 343.146 431.938 353.411C432.818 358.249 433.56 371.614 430.087 374.463Z" fill="#D4D5E0"/>
<path d="M476.892 305.689C482.387 292.214 477.667 277.556 466.349 272.948C455.031 268.341 441.401 275.529 435.905 289.003C430.569 302.086 434.864 316.285 445.478 321.316C444.765 322.622 443.69 323.693 442.382 324.403C440.083 325.475 447.553 326.508 447.553 326.508C447.564 325.101 447.802 323.705 448.259 322.374C459.183 325.573 471.686 318.452 476.892 305.689Z" fill="#FB3957"/>
<path opacity="0.2" d="M438.088 301.512C438.34 295.695 441.857 291.078 446.062 290.872C445.88 290.847 445.697 290.83 445.511 290.822C441.065 290.629 437.248 295.394 436.984 301.465C436.728 307.359 439.917 312.316 444.172 312.775C444.096 313.216 437.832 307.397 438.088 301.512Z" fill="white"/>
<path d="M325.436 198.166L324.298 196.782C326.538 194.945 326.644 183.592 325.524 177.435C324.747 173.163 324.628 169.501 325.162 166.237C326.012 161.041 328.504 157.194 332.568 154.802C341 149.84 346.056 136.23 346.106 136.093L347.789 136.707C347.576 137.291 342.468 151.055 333.478 156.345C327.503 159.861 325.42 166.849 327.287 177.115C328.167 181.952 328.909 195.317 325.436 198.166Z" fill="#D4D5E0"/>
<path d="M372.241 129.393C377.736 115.918 373.017 101.259 361.699 96.6518C350.38 92.0442 336.75 99.2324 331.255 112.707C325.919 125.79 330.214 139.988 340.827 145.02C340.114 146.325 339.039 147.397 337.731 148.106C335.432 149.179 342.902 150.212 342.902 150.212C342.913 148.805 343.151 147.409 343.608 146.078C354.532 149.277 367.035 142.156 372.241 129.393Z" fill="#FB3957"/>
<path opacity="0.2" d="M333.437 125.216C333.69 119.399 337.206 114.781 341.411 114.576C341.229 114.551 341.046 114.534 340.86 114.526C336.415 114.333 332.597 119.098 332.334 125.168C332.078 131.062 335.266 136.019 339.521 136.479C339.445 136.92 333.182 131.1 333.437 125.216Z" fill="white"/>
</g>
<defs>
<clipPath id="clip0">
<rect width="600" height="455" fill="white"/>
</clipPath>
</defs>
</svg>
