<svg width="363" height="261" viewBox="0 0 363 261" fill="none" xmlns="http://www.w3.org/2000/svg">
<g clip-path="url(#clip0)">
<path d="M318.437 127.131H315.206V254.223H318.437V127.131Z" fill="#3F3D56"/>
<path d="M348.258 143.328C348.464 187.769 317.063 223.94 317.063 223.94C317.063 223.94 285.33 188.058 285.124 143.617C284.918 99.1763 316.319 63.0049 316.319 63.0049C316.319 63.0049 348.052 98.8866 348.258 143.328Z" fill="#3F3D56"/>
<path d="M253.828 186.93H252.166V252.296H253.828V186.93Z" fill="#3F3D56"/>
<path d="M269.166 195.26C269.271 218.117 253.122 236.721 253.122 236.721C253.122 236.721 236.8 218.266 236.694 195.409C236.589 172.552 252.738 153.948 252.738 153.948C252.738 153.948 269.06 172.403 269.166 195.26Z" fill="#3F3D56"/>
<path d="M286.585 261C311.453 261 331.613 257.923 331.613 254.127C331.613 250.332 311.453 247.255 286.585 247.255C261.718 247.255 241.558 250.332 241.558 254.127C241.558 257.923 261.718 261 286.585 261Z" fill="#3F3D56"/>
<path d="M290.299 93.9517C286.484 87.5333 278.937 87.2342 278.937 87.2342C278.937 87.2342 271.583 86.2977 266.865 96.073C262.468 105.184 256.399 113.982 265.888 116.114L267.602 110.802L268.663 116.51C270.014 116.607 271.37 116.63 272.723 116.579C282.886 116.252 292.564 116.675 292.252 113.044C291.838 108.216 293.97 100.127 290.299 93.9517Z" fill="#2F2E41"/>
<path d="M276.561 106.039C276.561 106.039 281.491 112.912 278.533 118.475C275.575 124.039 285.435 129.93 285.435 129.93L292.666 114.221C292.666 114.221 284.12 108.657 286.421 103.421L276.561 106.039Z" fill="#FBBEBE"/>
<path d="M279.848 108.985C284.567 108.985 288.393 105.175 288.393 100.476C288.393 95.7764 284.567 91.9668 279.848 91.9668C275.128 91.9668 271.303 95.7764 271.303 100.476C271.303 105.175 275.128 108.985 279.848 108.985Z" fill="#FBBEBE"/>
<path d="M250.275 110.312L257.416 101.137C257.416 101.137 259.93 91.5206 263.572 92.0082C267.214 92.4957 262.134 103.541 262.134 103.541L255.038 113.696L250.275 110.312Z" fill="#FBBEBE"/>
<path d="M286.421 232.365L288.722 244.473L293.652 245.783L292.337 231.383L286.421 232.365Z" fill="#FBBEBE"/>
<path d="M336.05 219.273L344.924 231.382L348.539 233.019L351.497 228.11L342.623 216.655L336.05 219.273Z" fill="#FBBEBE"/>
<path d="M284.449 124.693L278.967 117.507C278.967 117.507 268.345 119.457 267.359 120.439C266.373 121.421 269.988 139.42 269.988 139.42C269.988 139.42 270.645 144.329 273.603 146.947L276.561 148.911L300.882 144.002L301.797 133.226C302.13 129.302 301.636 125.351 300.347 121.627C299.057 117.903 297.001 114.489 294.309 111.603L290.077 112.179L284.449 124.693Z" fill="#575A89"/>
<path d="M268.673 121.093L267.03 120.439L259.471 119.784C259.471 119.784 256.841 119.129 257.499 117.82C258.156 116.511 258.813 116.184 257.499 115.857C256.184 115.53 255.855 115.202 256.184 114.22C256.513 113.239 258.485 111.275 258.485 111.275L252.897 106.693C252.897 106.693 252.595 106.906 252.106 107.3C249.332 109.537 240.554 117.606 246.981 125.675C254.541 135.166 263.415 140.729 270.645 138.765L268.673 121.093Z" fill="#575A89"/>
<path d="M275.904 147.275V151.856C275.904 151.856 272.946 157.42 273.932 162.656C274.918 167.892 275.247 170.511 275.247 170.511C275.354 174.964 276.129 179.376 277.547 183.601C279.848 190.147 272.289 233.018 281.82 233.673C291.351 234.327 296.61 234.982 299.568 231.709C302.526 228.437 294.638 172.147 294.638 172.147C294.638 172.147 321.588 228.109 327.176 225.819C332.763 223.528 346.895 218.291 345.252 215.346C343.609 212.401 302.197 146.947 302.197 146.947L300.882 144.002L275.904 147.275Z" fill="#2F2E41"/>
<path d="M291.68 242.182C291.68 242.182 286.421 241.855 286.421 243.491C286.421 245.127 283.792 250.691 283.792 250.691C283.792 250.691 281.82 257.236 287.078 256.582C292.337 255.927 295.624 250.036 295.624 250.036L294.309 243.818L291.68 242.182Z" fill="#2F2E41"/>
<path d="M346.567 230.728C346.567 230.728 341.965 227.783 342.294 229.746C342.623 231.71 342.951 236.946 345.252 237.274C347.553 237.601 354.455 239.564 354.783 240.219C355.112 240.874 363 243.492 363 239.237C363 234.983 358.07 231.71 358.07 231.71L352.483 227.456C352.483 227.456 348.867 227.128 348.21 229.419C347.553 231.71 346.567 230.728 346.567 230.728Z" fill="#2F2E41"/>
<path d="M279.861 92.7007C282.875 92.7007 285.318 90.2679 285.318 87.2669C285.318 84.2658 282.875 81.833 279.861 81.833C276.847 81.833 274.404 84.2658 274.404 87.2669C274.404 90.2679 276.847 92.7007 279.861 92.7007Z" fill="#2F2E41"/>
<path d="M273.829 85.8372C273.829 84.4951 274.328 83.2006 275.23 82.203C276.131 81.2054 277.372 80.5752 278.712 80.4339C278.521 80.4137 278.329 80.4035 278.137 80.4033C276.69 80.4033 275.302 80.9758 274.279 81.9949C273.255 83.0139 272.68 84.396 272.68 85.8372C272.68 87.2783 273.255 88.6604 274.279 89.6795C275.302 90.6985 276.69 91.271 278.137 91.271C278.329 91.2708 278.521 91.2606 278.712 91.2405C277.372 91.0992 276.131 90.469 275.23 89.4714C274.328 88.4737 273.829 87.1792 273.829 85.8372Z" fill="#2F2E41"/>
<path d="M288.612 93.3336L281.156 89.4443L270.859 91.0355L268.729 100.404L274.032 100.201L275.514 96.7594V100.145L277.961 100.051L279.381 94.571L280.269 100.404L288.968 100.228L288.612 93.3336Z" fill="#2F2E41"/>
<path d="M288.166 148.033L276.667 148.343C276.667 148.343 266.855 150.244 267.406 146.3C267.956 142.357 277.528 143.736 277.528 143.736L288.006 142.145L288.166 148.033Z" fill="#FBBEBE"/>
<path d="M297.264 111.048C297.842 110.961 298.432 111.082 298.929 111.39C299.425 111.697 299.794 112.171 299.971 112.726C302.222 119.79 309.157 143.428 302.267 146.671C294.151 150.491 288.228 150.323 288.228 150.323L285.058 142.551L287.944 139.854L291.025 120.128L292.501 111.766L297.264 111.048Z" fill="#575A89"/>
<path opacity="0.4" d="M295.131 124.202L293.816 137.293L282.313 142.202L295.131 139.256V124.202Z" fill="black"/>
<path d="M233.094 80.9863C236.799 81.9639 240.004 84.2826 242.084 87.489L243.159 89.1468L243.213 89.2154L262.073 94.7106C262.419 94.8114 262.711 95.0432 262.887 95.3563C263.063 95.6693 263.108 96.0386 263.013 96.3847L261.549 101.731C261.501 101.905 261.42 102.068 261.308 102.21C261.197 102.353 261.059 102.472 260.901 102.561C260.743 102.65 260.57 102.707 260.39 102.729C260.21 102.751 260.027 102.737 259.853 102.689L240.988 97.4381L240.987 97.4387L239.092 98.1519C235.604 99.4653 231.777 99.5949 228.206 98.5203L233.094 80.9863Z" fill="#3F3D56"/>
<path d="M252.956 96.4899C253.135 95.882 252.351 95.1189 251.207 94.7853C250.062 94.4518 248.989 94.6743 248.811 95.2821C248.632 95.89 249.415 96.6532 250.56 96.9867C251.705 97.3202 252.777 97.0978 252.956 96.4899Z" fill="#575A89"/>
<path d="M251.993 97.0505C252.43 97.0505 252.784 96.6975 252.784 96.2621C252.784 95.8266 252.43 95.4736 251.993 95.4736C251.555 95.4736 251.201 95.8266 251.201 96.2621C251.201 96.6975 251.555 97.0505 251.993 97.0505Z" fill="#3F3D56"/>
<path d="M234.671 91.1118C236.243 86.2821 235.74 81.7929 233.547 81.0847C231.353 80.3765 228.3 83.7176 226.728 88.5472C225.155 93.3768 225.658 97.8661 227.851 98.5743C230.045 99.2825 233.098 95.9414 234.671 91.1118Z" fill="#FB3957"/>
<path opacity="0.4" d="M234.084 90.941C235.6 86.2874 235.188 81.9503 233.193 81.0068C233.313 81.0217 233.432 81.0478 233.547 81.0847C235.74 81.7929 236.243 86.2822 234.671 91.1119C233.098 95.9415 230.045 99.2826 227.851 98.5744C227.772 98.5485 227.694 98.5174 227.619 98.4815C229.776 98.755 232.594 95.5163 234.084 90.941Z" fill="black"/>
<path d="M233.342 81.0034L190.537 47.9412C182.968 42.0525 175.704 35.7843 168.775 29.1609C156.573 17.5796 140.009 8.32027 120.723 3.39049C73.8685 -8.58669 36.7499 12.6503 19.8673 43.8335C-5.93105 91.4848 -25.7021 168.81 88.6878 127.65C113.705 118.648 139.028 117.691 158.229 112.95L227.754 98.6758L233.342 81.0034Z" fill="#FB3957"/>
<path d="M104.834 25.3679C106.104 25.3679 107.134 24.3422 107.134 23.077C107.134 21.8118 106.104 20.7861 104.834 20.7861C103.563 20.7861 102.533 21.8118 102.533 23.077C102.533 24.3422 103.563 25.3679 104.834 25.3679Z" fill="#F2F2F2"/>
<path d="M149.526 28.3722H148.927V27.7759H148.81V28.3722H148.211V28.4887H148.81V29.0849H148.927V28.4887H149.526V28.3722Z" fill="#F2F2F2"/>
<path d="M209.671 78.1168H209.073V77.5205H208.956V78.1168H208.357V78.2333H208.956V78.8296H209.073V78.2333H209.671V78.1168Z" fill="#F2F2F2"/>
<path d="M205.399 93.4986H204.8V92.9023H204.683V93.4986H204.084V93.6151H204.683V94.2114H204.8V93.6151H205.399V93.4986Z" fill="#F2F2F2"/>
<path d="M21.6751 106.589H21.0763V105.993H20.9593V106.589H20.3605V106.706H20.9593V107.302H21.0763V106.706H21.6751V106.589Z" fill="#F2F2F2"/>
<path d="M47.9683 35.2447H47.3695V34.6484H47.2525V35.2447H46.6536V35.3612H47.2525V35.9575H47.3695V35.3612H47.9683V35.2447Z" fill="#F2F2F2"/>
<path d="M150.183 96.1168H149.584V95.5205H149.467V96.1168H148.868V96.2333H149.467V96.8296H149.584V96.2333H150.183V96.1168Z" fill="#F2F2F2"/>
<path d="M87.4081 14.2999H86.8093V13.7036H86.6923V14.2999H86.0934V14.4164H86.6923V15.0127H86.8093V14.4164H87.4081V14.2999Z" fill="#F2F2F2"/>
<path d="M87.6382 61.4189L86.8922 61.5335C87.1255 63.0193 87.3096 64.5378 87.4443 66.0399L88.197 65.9745C88.0622 64.4527 87.8749 62.9211 87.6382 61.4189Z" fill="#E6E6E6"/>
<path d="M85.5972 52.4717L84.8741 52.6909C85.3113 54.1309 85.7024 55.6069 86.0343 57.0763L86.7738 56.9094C86.4353 55.4236 86.0376 53.9313 85.5972 52.4717Z" fill="#E6E6E6"/>
<path d="M82.3402 43.8906L81.6533 44.2048C82.2843 45.5761 82.8759 46.9833 83.4116 48.3905L84.1183 48.1255C83.576 46.7018 82.9811 45.275 82.3402 43.8906Z" fill="#E6E6E6"/>
<path d="M77.9361 35.8467L77.2985 36.2492C78.1103 37.519 78.8892 38.8346 79.6123 40.1535L80.2762 39.7935C79.5465 38.4583 78.7577 37.1296 77.9361 35.8467Z" fill="#E6E6E6"/>
<path d="M72.4605 28.4731L71.8854 28.9608C72.8648 30.1062 73.8179 31.304 74.7185 32.5149L75.3232 32.0665C74.4161 30.8425 73.4531 29.6317 72.4605 28.4731Z" fill="#E6E6E6"/>
<path d="M66.0252 21.9082L65.5223 22.4678C66.6529 23.4725 67.7605 24.5296 68.8156 25.6063L69.3579 25.0794C68.2897 23.9896 67.1689 22.9227 66.0252 21.9082Z" fill="#E6E6E6"/>
<path d="M58.7552 16.2725L58.3312 16.8943C59.5867 17.7353 60.829 18.6321 62.0221 19.5582L62.4888 18.9658C61.2793 18.0299 60.0238 17.1234 58.7552 16.2725Z" fill="#E6E6E6"/>
<path d="M52.1392 12.3584V13.2093C52.9247 13.6184 53.7036 14.0471 54.4661 14.4856L54.8441 13.8344C53.9567 13.3238 53.055 12.8318 52.1392 12.3584Z" fill="#E6E6E6"/>
<path d="M87.6891 70.6826L88.4446 70.6689C88.4585 71.4286 88.4596 72.1922 88.4477 72.9389L87.6923 72.9271C87.7038 72.189 87.7028 71.4338 87.6891 70.6826Z" fill="#E6E6E6"/>
<path d="M43.2685 125.891L42.5224 126.005C42.7558 127.491 42.9398 129.009 43.0746 130.512L43.8272 130.446C43.6924 128.924 43.5051 127.393 43.2685 125.891Z" fill="#E6E6E6"/>
<path d="M41.2275 116.943L40.5044 117.163C40.9415 118.603 41.3326 120.079 41.6646 121.548L42.4041 121.381C42.0655 119.895 41.6679 118.403 41.2275 116.943Z" fill="#E6E6E6"/>
<path d="M37.9704 108.362L37.2835 108.676C37.9145 110.048 38.5061 111.455 39.0419 112.862L39.7485 112.597C39.2062 111.174 38.6113 109.747 37.9704 108.362Z" fill="#E6E6E6"/>
<path d="M33.5663 100.318L32.9286 100.721C33.7405 101.991 34.5194 103.306 35.2425 104.625L35.9064 104.265C35.1767 102.93 34.3879 101.601 33.5663 100.318Z" fill="#E6E6E6"/>
<path d="M28.0908 92.9443L27.5156 93.432C28.495 94.5774 29.4482 95.7752 30.3487 96.9861L30.9535 96.5377C30.0463 95.3137 29.0833 94.1029 28.0908 92.9443Z" fill="#E6E6E6"/>
<path d="M21.6554 86.3799L21.1526 86.9395C22.2832 87.9442 23.3908 89.0013 24.4458 90.078L24.9881 89.5511C23.92 88.4613 22.7992 87.3944 21.6554 86.3799Z" fill="#E6E6E6"/>
<path d="M14.3854 80.7441L13.9614 81.3659C15.2169 82.207 16.4593 83.1037 17.6523 84.0299L18.119 83.4375C16.9095 82.5016 15.654 81.595 14.3854 80.7441Z" fill="#E6E6E6"/>
<path d="M7.76941 76.8301V77.681C8.55492 78.09 9.33385 78.5188 10.0964 78.9573L10.4743 78.306C9.58692 77.7955 8.68528 77.3035 7.76941 76.8301Z" fill="#E6E6E6"/>
<path d="M43.3194 135.154L44.0749 135.141C44.0888 135.9 44.0898 136.664 44.078 137.411L43.3226 137.399C43.334 136.661 43.3331 135.905 43.3194 135.154Z" fill="#E6E6E6"/>
<path d="M195.112 93.4912L194.366 93.6058C194.599 95.0915 194.783 96.6101 194.918 98.1122L195.67 98.0468C195.536 96.525 195.348 94.9934 195.112 93.4912Z" fill="#E6E6E6"/>
<path d="M193.071 84.5439L192.348 84.7632C192.785 86.2032 193.176 87.6792 193.508 89.1486L194.247 88.9817C193.909 87.4959 193.511 86.0036 193.071 84.5439Z" fill="#E6E6E6"/>
<path d="M189.814 75.9629L189.127 76.2771C189.758 77.6483 190.349 79.0556 190.885 80.4628L191.592 80.1977C191.049 78.7741 190.454 77.3472 189.814 75.9629Z" fill="#E6E6E6"/>
<path d="M185.409 67.9185L184.772 68.321C185.584 69.5908 186.363 70.9064 187.086 72.2253L187.75 71.8653C187.02 70.5301 186.231 69.2013 185.409 67.9185Z" fill="#E6E6E6"/>
<path d="M179.934 60.5454L179.359 61.033C180.338 62.1785 181.291 63.3763 182.192 64.5871L182.797 64.1388C181.889 62.9148 180.926 61.7039 179.934 60.5454Z" fill="#E6E6E6"/>
<path d="M173.499 53.9805L172.996 54.5401C174.126 55.5448 175.234 56.6019 176.289 57.6786L176.831 57.1517C175.763 56.0619 174.642 54.995 173.499 53.9805Z" fill="#E6E6E6"/>
<path d="M166.229 48.3447L165.805 48.9665C167.06 49.8076 168.302 50.7043 169.495 51.6305L169.962 51.0381C168.753 50.1021 167.497 49.1956 166.229 48.3447Z" fill="#E6E6E6"/>
<path d="M159.613 44.4307V45.2816C160.398 45.6906 161.177 46.1194 161.94 46.5579L162.317 45.9066C161.43 45.3961 160.528 44.9041 159.613 44.4307Z" fill="#E6E6E6"/>
<path d="M195.163 102.755L195.918 102.741C195.932 103.501 195.933 104.264 195.921 105.011L195.166 104.999C195.177 104.261 195.176 103.506 195.163 102.755Z" fill="#E6E6E6"/>
<path d="M49.068 65.4188H48.5109V64.8638H48.4021V65.4188H47.8447V65.5268H48.4021V66.0818H48.5109V65.5268H49.068V65.4188Z" fill="#F2F2F2"/>
<path d="M42.6456 98.9174H42.0885V98.3623H41.9797V98.9174H41.4223V99.0257H41.9797V99.5804H42.0885V99.0257H42.6456V98.9174Z" fill="#F2F2F2"/>
<path d="M23.8009 128.275H23.2435V127.721H23.1347V128.275H22.5776V128.384H23.1347V128.939H23.2435V128.384H23.8009V128.275Z" fill="#F2F2F2"/>
<path d="M76.2235 91.0401C70.8356 83.0652 68.4962 73.4317 69.6295 63.8866C70.7628 54.3415 75.2938 45.5169 82.4009 39.013C89.5079 32.5091 98.7204 28.7566 108.368 28.436C118.015 28.1154 127.458 31.2479 134.985 37.2655C142.512 43.2831 147.623 51.7873 149.393 61.2359C151.163 70.6845 149.474 80.4518 144.632 88.7667C139.79 97.0815 132.116 103.393 123.001 106.557C113.887 109.721 103.935 109.528 94.9514 106.013C94.369 108.083 93.2801 109.977 91.7824 111.525C90.2846 113.073 88.4246 114.228 86.3689 114.885C84.3133 115.542 82.1261 115.681 80.0032 115.29C77.8804 114.898 75.888 113.989 74.2046 112.643C72.5211 111.297 71.1991 109.557 70.3569 107.577C69.5147 105.598 69.1786 103.441 69.3786 101.301C69.5787 99.1604 70.3086 97.1027 71.5032 95.312C72.6977 93.5213 74.3196 92.0535 76.2235 91.0401Z" fill="#3F3D56"/>
<path d="M109.488 45.6328C118.741 45.6328 125.107 50.7434 125.107 58.09C125.107 62.9549 122.738 66.321 118.173 68.9992C113.88 71.4808 112.424 73.299 112.424 76.444C112.424 76.6989 112.373 76.9513 112.275 77.1868C112.178 77.4223 112.034 77.6363 111.853 77.8165C111.672 77.9968 111.457 78.1397 111.221 78.2373C110.984 78.3348 110.731 78.385 110.475 78.385H105.744C105.239 78.385 104.753 78.1897 104.39 77.8402C104.026 77.4908 103.814 77.0144 103.796 76.5117L103.788 76.272C103.368 71.2105 105.145 68.0655 109.611 65.4611C113.781 62.9795 115.533 61.407 115.533 58.3602C115.533 55.3135 112.572 53.0776 108.895 53.0776C106.101 53.0776 103.889 54.4321 102.875 56.6434C102.518 57.392 101.954 58.0232 101.249 58.4624C100.543 58.9017 99.7261 59.1305 98.8941 59.1219C95.689 59.1219 93.5716 55.728 95.0706 52.907C97.4417 48.4445 102.445 45.6328 109.488 45.6328ZM102.998 87.7463C102.998 84.9207 105.367 82.6848 108.278 82.6848C111.215 82.6848 113.584 84.8962 113.584 87.7463C113.584 90.5965 111.215 92.8078 108.278 92.8078C105.342 92.8078 102.998 90.5965 102.998 87.7463Z" fill="#FB3957"/>
</g>
<defs>
<clipPath id="clip0">
<rect width="363" height="261" fill="white"/>
</clipPath>
</defs>
</svg>
