<svg width="64" height="64" viewBox="0 0 64 64" fill="none" xmlns="http://www.w3.org/2000/svg">
<path d="M54.0056 56.9236H9.99438C9.76501 56.9236 9.54502 56.8325 9.38283 56.6703C9.22064 56.5081 9.12952 56.2881 9.12952 56.0588V37.1969C9.12952 36.9675 9.22064 36.7475 9.38283 36.5853C9.54502 36.4232 9.76501 36.332 9.99438 36.332C10.2238 36.332 10.4437 36.4232 10.6059 36.5853C10.7681 36.7475 10.8592 36.9675 10.8592 37.1969V55.1939H53.1408V37.1969C53.1408 36.9675 53.2319 36.7475 53.3941 36.5853C53.5563 36.4232 53.7762 36.332 54.0056 36.332C54.235 36.332 54.455 36.4232 54.6172 36.5853C54.7794 36.7475 54.8705 36.9675 54.8705 37.1969V56.0588C54.8705 56.2881 54.7794 56.5081 54.6172 56.6703C54.455 56.8325 54.235 56.9236 54.0056 56.9236Z" fill="#626696"/>
<path d="M34.7511 25.4874C34.5217 25.4874 34.3017 25.3963 34.1396 25.2341C33.9774 25.0719 33.8862 24.8519 33.8862 24.6225V13.746H30.1137V24.6225C30.1137 24.8519 30.0226 25.0719 29.8604 25.2341C29.6982 25.3963 29.4782 25.4874 29.2488 25.4874C29.0195 25.4874 28.7995 25.3963 28.6373 25.2341C28.4751 25.0719 28.384 24.8519 28.384 24.6225V13.6647C28.3844 13.227 28.5585 12.8073 28.8681 12.4978C29.1776 12.1882 29.5973 12.0141 30.035 12.0137H33.9641C34.402 12.0139 34.8219 12.1879 35.1316 12.4974C35.4413 12.807 35.6155 13.2268 35.616 13.6647V24.6225C35.616 24.8519 35.5249 25.0719 35.3627 25.2341C35.2005 25.3963 34.9805 25.4874 34.7511 25.4874Z" fill="#626696"/>
<path d="M32 11.3409C31.1598 11.34 30.3543 11.0059 29.7603 10.4118C29.1662 9.81772 28.832 9.01224 28.8311 8.17208C28.8311 6.7883 30.6724 3.22246 31.2363 2.16127C31.3172 2.03169 31.4298 1.92483 31.5634 1.85075C31.697 1.77666 31.8472 1.73779 32 1.73779C32.1527 1.73779 32.303 1.77666 32.4366 1.85075C32.5702 1.92483 32.6827 2.03169 32.7637 2.16127C33.3275 3.22246 35.1688 6.79176 35.1688 8.17208C35.1679 9.01224 34.8338 9.81772 34.2397 10.4118C33.6456 11.0059 32.8401 11.34 32 11.3409ZM32 4.47824C31.362 5.64184 30.8782 6.88356 30.5608 8.17208C30.5608 8.55376 30.7125 8.91981 30.9824 9.1897C31.2523 9.45959 31.6183 9.61122 32 9.61122C32.3817 9.61122 32.7477 9.45959 33.0176 9.1897C33.2875 8.91981 33.4391 8.55376 33.4391 8.17208C33.1218 6.88356 32.638 5.64184 32 4.47824Z" fill="#626696"/>
<path d="M32 13.7514C31.7706 13.7514 31.5506 13.6603 31.3884 13.4981C31.2263 13.3359 31.1351 13.1159 31.1351 12.8866V10.4762C31.1351 10.2468 31.2263 10.0268 31.3884 9.86464C31.5506 9.70245 31.7706 9.61133 32 9.61133C32.2294 9.61133 32.4494 9.70245 32.6116 9.86464C32.7737 10.0268 32.8649 10.2468 32.8649 10.4762V12.8866C32.8649 13.1159 32.7737 13.3359 32.6116 13.4981C32.4494 13.6603 32.2294 13.7514 32 13.7514Z" fill="#626696"/>
<path d="M40.3892 38.0618C38.6576 38.0811 36.9801 37.4595 35.6792 36.3165C34.6682 35.4154 33.3612 34.9174 32.0069 34.9174C30.6527 34.9174 29.3457 35.4154 28.3347 36.3165C27.0233 37.4426 25.3519 38.0617 23.6234 38.0617C21.8948 38.0617 20.2234 37.4426 18.912 36.3165C17.9 35.4149 16.5918 34.9167 15.2363 34.9167C13.8809 34.9167 12.5727 35.4149 11.5607 36.3165C10.8045 36.9435 9.94214 37.43 9.01451 37.7531C8.66371 37.8628 8.29206 37.8886 7.92945 37.8285C7.56684 37.7684 7.22339 37.6241 6.92672 37.4071C6.63354 37.1937 6.39531 36.9137 6.2317 36.59C6.06809 36.2664 5.98379 35.9085 5.98575 35.5459V28.5518C5.98735 27.2807 6.49306 26.0621 7.39194 25.1634C8.29082 24.2647 9.50947 23.7592 10.7806 23.7578H53.2195C54.4906 23.7592 55.7092 24.2647 56.6081 25.1634C57.507 26.0621 58.0127 27.2807 58.0143 28.5518V35.5459C58.016 35.9089 57.9314 36.2671 57.7673 36.5909C57.6032 36.9146 57.3645 37.1947 57.0707 37.408C56.7752 37.6269 56.4318 37.7724 56.069 37.8325C55.7061 37.8926 55.3342 37.8657 54.9838 37.7539C54.0574 37.4309 53.1962 36.9447 52.4411 36.3183C51.4306 35.4175 50.1243 34.9198 48.7706 34.9198C47.417 34.9198 46.1106 35.4175 45.1001 36.3183C43.7988 37.4608 42.1209 38.0818 40.3892 38.0618ZM32.0061 33.1883C33.7377 33.169 35.4152 33.7906 36.7161 34.9336C37.7273 35.8346 39.0344 36.3325 40.3888 36.3325C41.7432 36.3325 43.0503 35.8346 44.0614 34.9336C45.3719 33.8076 47.0424 33.1884 48.7702 33.1884C50.4979 33.1884 52.1685 33.8076 53.4789 34.9336C54.0794 35.4401 54.7649 35.836 55.5036 36.1029C55.5946 36.1325 55.6914 36.1402 55.786 36.1251C55.8806 36.1101 55.9702 36.0728 56.0476 36.0164C56.1218 35.9633 56.1821 35.893 56.2234 35.8115C56.2646 35.73 56.2856 35.6398 56.2846 35.5485V28.5518C56.2834 27.7393 55.9601 26.9604 55.3855 26.386C54.8109 25.8116 54.032 25.4885 53.2195 25.4875H10.7806C9.96808 25.4885 9.18913 25.8116 8.61454 26.386C8.03995 26.9604 7.71662 27.7393 7.71548 28.5518V35.5459C7.71467 35.637 7.73569 35.7269 7.77676 35.8081C7.81784 35.8894 7.87779 35.9596 7.95159 36.013C8.02916 36.0696 8.11912 36.1071 8.21401 36.1221C8.30891 36.1371 8.40602 36.1294 8.49732 36.0994C9.23732 35.8326 9.92403 35.4364 10.5254 34.9293C11.8269 33.7861 13.5051 33.1645 15.2372 33.184C16.9693 33.1645 18.6475 33.7861 19.949 34.9293C20.9603 35.8304 22.2676 36.3283 23.6221 36.3283C24.9766 36.3283 26.2839 35.8304 27.2952 34.9293C28.597 33.7878 30.2748 33.1678 32.0061 33.1883Z" fill="#626696"/>
<path d="M54.0057 48.6721C52.2169 48.697 50.4777 48.0837 49.1001 46.9423C48.0049 46.0305 46.6247 45.5312 45.1996 45.5312C43.7744 45.5312 42.3943 46.0305 41.2991 46.9423C39.9107 48.0637 38.1799 48.6753 36.3953 48.6753C34.6106 48.6753 32.8799 48.0637 31.4915 46.9423C30.3971 46.0307 29.0178 45.5316 27.5935 45.5316C26.1692 45.5316 24.79 46.0307 23.6956 46.9423C22.3185 48.0834 20.58 48.6966 18.7918 48.6721C17.004 48.6971 15.2659 48.0838 13.8898 46.9423C12.8073 46.0108 11.4206 45.5089 9.99267 45.5317C9.7633 45.5317 9.54331 45.4406 9.38112 45.2784C9.21893 45.1162 9.12781 44.8962 9.12781 44.6669C9.12781 44.4375 9.21893 44.2175 9.38112 44.0553C9.54331 43.8931 9.7633 43.802 9.99267 43.802C11.7804 43.777 13.5185 44.3903 14.8947 45.5317C15.9891 46.4433 17.3684 46.9425 18.7927 46.9425C20.217 46.9425 21.5962 46.4433 22.6906 45.5317C24.0787 44.4105 25.8092 43.799 27.5935 43.799C29.3779 43.799 31.1084 44.4105 32.4965 45.5317C33.5912 46.4433 34.9707 46.9424 36.3953 46.9424C37.8198 46.9424 39.1994 46.4433 40.2941 45.5317C41.6831 44.4104 43.4144 43.7988 45.1996 43.7988C46.9848 43.7988 48.7161 44.4104 50.1051 45.5317C51.1887 46.4638 52.5766 46.9657 54.0057 46.9423C54.235 46.9423 54.455 47.0335 54.6172 47.1956C54.7794 47.3578 54.8705 47.5778 54.8705 47.8072C54.8705 48.0366 54.7794 48.2566 54.6172 48.4188C54.455 48.5809 54.235 48.6721 54.0057 48.6721Z" fill="#626696"/>
<path d="M57.8404 62.2702H6.15954C5.93017 62.2702 5.71018 62.179 5.54799 62.0169C5.3858 61.8547 5.29468 61.6347 5.29468 61.4053V57.8412C5.29536 57.1393 5.5745 56.4663 6.07083 55.97C6.56715 55.4737 7.24012 55.1945 7.94203 55.1938H56.0579C56.7598 55.1945 57.4328 55.4737 57.9291 55.97C58.4254 56.4663 58.7046 57.1393 58.7053 57.8412V61.4053C58.7053 61.6347 58.6141 61.8547 58.4519 62.0169C58.2898 62.179 58.0698 62.2702 57.8404 62.2702ZM7.02441 60.5404H56.9755V57.8412C56.9753 57.5979 56.8786 57.3646 56.7065 57.1926C56.5345 57.0206 56.3012 56.9238 56.0579 56.9236H7.94203C7.69873 56.9238 7.46546 57.0206 7.29342 57.1926C7.12139 57.3646 7.02464 57.5979 7.02441 57.8412V60.5404Z" fill="#626696"/>
</svg>
