<svg width="64" height="64" viewBox="0 0 64 64" fill="none" xmlns="http://www.w3.org/2000/svg">
<path d="M38 13H35V10C35 9.73478 34.8946 9.48043 34.7071 9.29289C34.5196 9.10536 34.2652 9 34 9H30C29.7348 9 29.4804 9.10536 29.2929 9.29289C29.1054 9.48043 29 9.73478 29 10V13H26C25.7348 13 25.4804 13.1054 25.2929 13.2929C25.1054 13.4804 25 13.7348 25 14V18C25 18.2652 25.1054 18.5196 25.2929 18.7071C25.4804 18.8946 25.7348 19 26 19H29V22C29 22.2652 29.1054 22.5196 29.2929 22.7071C29.4804 22.8946 29.7348 23 30 23H34C34.2652 23 34.5196 22.8946 34.7071 22.7071C34.8946 22.5196 35 22.2652 35 22V19H38C38.2652 19 38.5196 18.8946 38.7071 18.7071C38.8946 18.5196 39 18.2652 39 18V14C39 13.7348 38.8946 13.4804 38.7071 13.2929C38.5196 13.1054 38.2652 13 38 13ZM37 17H34C33.7348 17 33.4804 17.1054 33.2929 17.2929C33.1054 17.4804 33 17.7348 33 18V21H31V18C31 17.7348 30.8946 17.4804 30.7071 17.2929C30.5196 17.1054 30.2652 17 30 17H27V15H30C30.2652 15 30.5196 14.8946 30.7071 14.7071C30.8946 14.5196 31 14.2652 31 14V11H33V14C33 14.2652 33.1054 14.5196 33.2929 14.7071C33.4804 14.8946 33.7348 15 34 15H37V17Z" fill="#626696"/>
<path d="M59.73 18.36C59.7502 18.184 59.7603 18.0071 59.76 17.83C59.7552 16.9133 59.4372 16.0259 58.8588 15.3148C58.2804 14.6036 57.4764 14.1115 56.58 13.92C55.566 13.727 54.5166 13.9263 53.644 14.4777C52.7715 15.0291 52.1409 15.8913 51.88 16.89L47.48 29.55C47.4148 29.5758 47.3513 29.6059 47.29 29.64L38.45 34.82C37.0973 35.6145 35.9753 36.7483 35.1949 38.1092C34.4144 39.4702 34.0026 41.0112 34 42.58V52C33.7348 52 33.4804 52.1053 33.2929 52.2929C33.1054 52.4804 33 52.7347 33 53V61C33 61.2652 33.1054 61.5195 33.2929 61.7071C33.4804 61.8946 33.7348 62 34 62H48C48.2652 62 48.5196 61.8946 48.7071 61.7071C48.8946 61.5195 49 61.2652 49 61V53C49 52.7347 48.8946 52.4804 48.7071 52.2929C48.5196 52.1053 48.2652 52 48 52V49.8C48.0019 49.3776 48.0918 48.9603 48.2639 48.5746C48.4361 48.1889 48.6868 47.8433 49 47.56L55.76 41.55C56.4994 40.903 57.0287 40.0498 57.28 39.1L61.62 22.87C61.7127 22.5311 61.7597 22.1813 61.76 21.83C61.7561 21.1243 61.5664 20.432 61.2101 19.8229C60.8537 19.2138 60.3432 18.7092 59.73 18.36ZM53.79 17.48C53.9128 16.9628 54.2259 16.5109 54.667 16.2144C55.1081 15.9178 55.6448 15.7984 56.17 15.88C56.6182 15.9738 57.0207 16.2187 57.3101 16.5736C57.5994 16.9285 57.7583 17.372 57.76 17.83V17.85C56.8668 17.8665 56.0034 18.1744 55.3012 18.7268C54.599 19.2791 54.0965 20.0457 53.87 20.91L51.08 29.52C50.6576 29.3196 50.2047 29.1912 49.74 29.14L53.79 17.48ZM47 60H35V54H47V60ZM59.69 22.35L55.34 38.59C55.1895 39.1543 54.8765 39.662 54.44 40.05L47.67 46.06C47.1461 46.5324 46.7269 47.1092 46.4393 47.7533C46.1517 48.3974 46.0021 49.0946 46 49.8V52H36V42.58C36.005 41.3599 36.3264 40.162 36.9328 39.1033C37.5393 38.0446 38.4101 37.1614 39.46 36.54L48.29 31.37C48.5177 31.2373 48.7693 31.151 49.0305 31.1159C49.2916 31.0808 49.5571 31.0976 49.8117 31.1655C50.0663 31.2333 50.305 31.3508 50.5141 31.5111C50.7232 31.6715 50.8985 31.8716 51.03 32.1C51.2897 32.562 51.3614 33.1064 51.23 33.62C51.1605 33.8735 51.0418 34.1109 50.8805 34.3186C50.7192 34.5262 50.5185 34.7 50.29 34.83L44.56 38.14C44.3423 38.2783 44.1866 38.4955 44.1252 38.746C44.0638 38.9965 44.1016 39.261 44.2307 39.4843C44.3598 39.7076 44.5701 39.8724 44.8179 39.9443C45.0656 40.0161 45.3315 39.9895 45.56 39.87L51.29 36.56C51.748 36.3001 52.1494 35.9512 52.4705 35.5339C52.7917 35.1166 53.0261 34.6392 53.16 34.13C53.4322 33.1068 53.2884 32.0175 52.76 31.1L52.7 31.01L55.79 21.48C55.9128 20.9628 56.2259 20.5109 56.667 20.2144C57.1081 19.9178 57.6448 19.7984 58.17 19.88C58.6182 19.9738 59.0207 20.2187 59.3101 20.5736C59.5994 20.9285 59.7583 21.372 59.76 21.83C59.7634 22.0059 59.7398 22.1812 59.69 22.35Z" fill="#626696"/>
<path d="M30 51.9999V42.58C29.9974 41.0111 29.5855 39.4701 28.8051 38.1092C28.0247 36.7483 26.9027 35.6145 25.55 34.8199L16.71 29.6299C16.65 29.5999 16.58 29.5799 16.52 29.5499L12.15 16.9599C11.896 15.9467 11.2655 15.0684 10.3868 14.5036C9.50805 13.9389 8.44716 13.7301 7.41999 13.9199C6.52358 14.1115 5.71955 14.6036 5.14118 15.3147C4.56281 16.0259 4.24484 16.9133 4.23999 17.8299C4.23973 18.007 4.24975 18.184 4.26999 18.3599C3.65676 18.7092 3.14629 19.2138 2.78994 19.8229C2.43359 20.432 2.24391 21.1242 2.23999 21.8299C2.24193 22.1805 2.28557 22.5297 2.36999 22.8699L6.71999 39.0899C6.96857 40.0438 7.49816 40.9009 8.23999 41.5499L14.99 47.5599C15.3063 47.8414 15.5598 48.1863 15.7338 48.5723C15.9078 48.9582 15.9985 49.3766 16 49.7999V51.9999C15.7348 51.9999 15.4804 52.1053 15.2929 52.2928C15.1053 52.4804 15 52.7347 15 52.9999V60.9999C15 61.2652 15.1053 61.5195 15.2929 61.7071C15.4804 61.8946 15.7348 62 16 62H30C30.2652 62 30.5196 61.8946 30.7071 61.7071C30.8946 61.5195 31 61.2652 31 60.9999V52.9999C31 52.7347 30.8946 52.4804 30.7071 52.2928C30.5196 52.1053 30.2652 51.9999 30 51.9999ZM6.23999 17.8299C6.24122 17.3734 6.39863 16.931 6.68605 16.5763C6.97347 16.2215 7.37361 15.9758 7.81999 15.8799C8.35965 15.8016 8.90897 15.9302 9.35779 16.2399C9.80661 16.5496 10.1217 17.0176 10.24 17.5499L14.26 29.1399C13.7953 29.1911 13.3424 29.3196 12.92 29.5199L10.15 20.9599C9.92456 20.0872 9.42103 19.3116 8.71557 18.7505C8.01011 18.1893 7.1411 17.8732 6.23999 17.8499V17.8299ZM16.32 46.0599L9.55999 40.0499C9.12104 39.6599 8.8078 39.1483 8.65999 38.58L4.29999 22.3499C4.2586 22.1798 4.23844 22.0051 4.23999 21.8299C4.24122 21.3734 4.39863 20.931 4.68605 20.5763C4.97347 20.2215 5.37361 19.9758 5.81999 19.8799C6.35585 19.7995 6.90229 19.925 7.34941 20.2311C7.79652 20.5372 8.11114 21.0013 8.22999 21.5299L11.3 31.0099L11.24 31.0999C10.7116 32.0174 10.5678 33.1068 10.84 34.1299C10.9739 34.6392 11.2083 35.1166 11.5294 35.5339C11.8506 35.9512 12.252 36.3001 12.71 36.5599L18.44 39.8699C18.6685 39.9895 18.9344 40.0161 19.1821 39.9443C19.4298 39.8724 19.6402 39.7076 19.7693 39.4843C19.8984 39.261 19.9362 38.9965 19.8748 38.746C19.8134 38.4954 19.6577 38.2783 19.44 38.1399L13.71 34.8299C13.4815 34.6999 13.2808 34.5262 13.1195 34.3185C12.9582 34.1109 12.8395 33.8735 12.77 33.6199C12.6386 33.1064 12.7102 32.562 12.97 32.0999C13.1006 31.8721 13.2749 31.6722 13.4828 31.5117C13.6907 31.3512 13.9282 31.2332 14.1817 31.1645C14.4352 31.0958 14.6998 31.0777 14.9603 31.1112C15.2208 31.1448 15.4721 31.2293 15.7 31.3599L24.54 36.5399C25.5899 37.1614 26.4607 38.0446 27.0672 39.1033C27.6736 40.162 27.995 41.3599 28 42.58V51.9999H18V49.7999C17.9983 49.0935 17.8478 48.3954 17.5583 47.751C17.2689 47.1066 16.8469 46.5304 16.32 46.0599ZM29 59.9999H17V53.9999H29V59.9999Z" fill="#626696"/>
<path d="M46.147 5.13209C45.2186 4.20212 44.116 3.46436 42.9022 2.96102C41.6884 2.45767 40.3873 2.19864 39.0733 2.19873C37.7593 2.19882 36.4582 2.45804 35.2444 2.96156C34.0307 3.46507 32.9282 4.20299 32 5.13309C31.0719 4.20297 29.9694 3.46504 28.7557 2.96155C27.542 2.45806 26.241 2.1989 24.927 2.1989C23.613 2.1989 22.3119 2.45806 21.0983 2.96155C19.8846 3.46504 18.7821 4.20297 17.854 5.13309C15.9823 7.00877 14.9312 9.55032 14.9312 12.2001C14.9312 14.8499 15.9823 17.3914 17.854 19.2671L31.294 32.7071C31.4815 32.8946 31.7358 32.9999 32.001 32.9999C32.2661 32.9999 32.5205 32.8946 32.708 32.7071L46.148 19.2671C48.0196 17.3911 49.0706 14.8493 49.0704 12.1994C49.0702 9.54945 48.0188 7.00781 46.147 5.13209ZM32 30.5861L19.267 17.8531C18.1491 16.7337 17.3882 15.308 17.0805 13.7562C16.7728 12.2045 16.932 10.5963 17.5381 9.13504C18.1442 7.67378 19.17 6.42501 20.4857 5.54662C21.8014 4.66822 23.348 4.19963 24.93 4.20009C25.9809 4.19648 27.0219 4.40215 27.9925 4.80511C28.9631 5.20806 29.8437 5.80023 30.583 6.54709L31.293 7.25709C31.4805 7.44456 31.7348 7.54988 32 7.54988C32.2651 7.54988 32.5195 7.44456 32.707 7.25709L33.419 6.54509C34.1614 5.80134 35.0432 5.21129 36.0139 4.8087C36.9846 4.40612 38.0251 4.19889 39.076 4.19889C40.1269 4.19889 41.1674 4.40612 42.1381 4.8087C43.1088 5.21129 43.9906 5.80134 44.733 6.54509C46.2309 8.04507 47.0723 10.0782 47.0723 12.1981C47.0723 14.3179 46.2309 16.3511 44.733 17.8511L32 30.5861Z" fill="#626696"/>
</svg>
