<svg width="64" height="64" viewBox="0 0 64 64" fill="none" xmlns="http://www.w3.org/2000/svg">
<g clip-path="url(#clip0)">
<path d="M63.2805 43.9145C62.7654 43.3206 62.0501 42.9626 61.2663 42.9065C60.4825 42.8503 59.7228 43.1034 59.1288 43.6186C57.4829 45.0456 55.5666 46.3197 53.4441 47.4252C52.179 44.3662 48.7414 34.8171 50.6479 25.3366L56.9494 29.5375C58.2049 30.3744 59.8234 30.4753 61.173 29.8004C62.9209 28.9265 63.8347 26.9861 63.3953 25.0821L61.2927 15.9705C61.0417 14.883 60.4919 13.891 59.7026 13.1017L58.99 12.3891L58.9913 9.77247C58.9915 9.02077 58.9917 8.26921 58.9914 7.70538L58.9904 6.82995C58.9874 6.09416 58.4267 5.82715 58.0505 5.82715C55.2011 5.82715 53.7926 8.15399 53.2898 9.86126C50.7577 10.0417 48.5769 11.1517 46.4802 13.3139C44.3751 15.4847 42.3961 18.6742 40.2123 22.3139C40.1033 22.4954 39.9927 22.6776 39.8812 22.8598H25.2419C22.4601 22.8598 19.4925 22.44 16.1698 21.5766C12.9485 20.7395 7.09086 20.7902 4.05203 30.5328C3.93681 30.9021 4.05992 31.3043 4.362 31.546L9.37161 35.5537C9.63211 35.7621 9.98365 35.8165 10.2951 35.6971C10.6066 35.5773 10.8313 35.3016 10.8853 34.9723C11.147 33.377 12.337 28.9559 14.6693 27.6744C15.319 27.3172 16.0209 27.2267 16.7978 27.4025L10.4454 47.3672C8.3668 46.275 6.4887 45.0201 4.87135 43.6176C4.27721 43.1024 3.51775 42.8492 2.7335 42.9056C1.94962 42.9618 1.23437 43.3197 0.719511 43.9133C0.204523 44.5072 -0.0483365 45.2663 0.00764588 46.0505C0.0636283 46.8347 0.421439 47.5501 1.01545 48.065C8.42379 54.4889 19.7176 58.1729 32.0005 58.1729C44.2826 58.1729 55.5759 54.4891 62.9847 48.0659C63.5786 47.5509 63.9365 46.8354 63.9924 46.0514C64.0483 45.2674 63.7956 44.5083 63.2805 43.9145ZM38.6648 24.7384C36.7393 27.5102 34.3578 29.8733 30.9986 29.8733C29.5358 29.8733 28.1291 29.4895 26.9305 28.7635C25.3419 27.8012 24.2964 26.3296 24.0069 24.7121C24.4222 24.729 24.834 24.7384 25.2419 24.7384H38.6648ZM18.8687 27.0897C19.0155 26.6283 18.7875 26.131 18.3422 25.941C16.6914 25.2366 15.1512 25.2659 13.7644 26.028C11.2064 27.4336 9.91715 31.0624 9.3686 33.1458L6.04285 30.4853C7.17214 27.1639 8.73877 24.9393 10.7045 23.8681C12.1643 23.0727 13.8441 22.9134 15.6971 23.395C17.9622 23.9836 20.0754 24.374 22.087 24.5756C22.3441 26.907 23.7496 29.0332 25.957 30.3703C27.4493 31.2742 29.1925 31.752 30.9985 31.752C36.7403 31.752 40.0468 26.2412 41.8231 23.2806C43.946 19.7425 45.8631 16.6488 47.8287 14.6218C49.7791 12.6104 51.6955 11.7136 54.0427 11.7136C54.5029 11.7136 54.8959 11.3767 54.9702 10.9224C54.9716 10.9137 55.1188 10.038 55.6158 9.19912C56.0182 8.51994 56.5125 8.07671 57.1127 7.86067C57.1129 9.11646 57.112 11.2172 57.1109 12.7775C57.1108 13.0268 57.2097 13.2659 57.3861 13.4423L58.374 14.4302C58.914 14.9702 59.2902 15.6489 59.4619 16.393L61.5646 25.5046C61.8082 26.5602 61.3016 27.6359 60.3327 28.1203C59.5847 28.4944 58.6874 28.4386 57.9914 27.9745L50.556 23.0176C50.3025 22.8484 49.9826 22.8131 49.6983 22.9222C49.4139 23.0314 49.2 23.2717 49.1247 23.5669C46.4495 34.0538 50.363 44.8976 51.7341 48.2048L49.2689 49.2319C48.4856 47.8014 46.9673 45.3915 44.6267 43.157C40.965 39.6612 36.7168 37.8886 32.0001 37.8886C27.2835 37.8886 23.0353 39.6612 19.3737 43.157C17.0103 45.4133 15.486 47.8475 14.7095 49.2725C13.8313 48.9416 12.9773 48.5854 12.1498 48.2051L18.8687 27.0897ZM47.4923 49.9044C42.7695 51.4453 37.4616 52.2869 32.0005 52.2869C26.5395 52.2869 21.2315 51.4453 16.5088 49.9044C18.1866 46.9384 23.1588 39.7673 32.0005 39.7673C40.8428 39.7673 45.8148 46.9385 47.4923 49.9044ZM62.1186 45.9179C62.0984 46.2016 61.9689 46.4605 61.7541 46.6467C54.6819 52.7781 43.8372 56.2944 32.0006 56.2944C20.1631 56.2944 9.318 52.7776 2.24619 46.6458C1.80259 46.2611 1.7545 45.5874 2.13898 45.1441C2.32522 44.9293 2.58409 44.7996 2.86776 44.7794C2.89381 44.7775 2.91961 44.7766 2.94541 44.7766C3.20115 44.7766 3.44561 44.8675 3.64074 45.0369C10.2329 50.7528 20.8348 54.1654 32.0006 54.1654C43.166 54.1654 53.7675 50.7532 60.3598 45.0377C60.5746 44.8514 60.8483 44.7604 61.1325 44.7802C61.4161 44.8005 61.6749 44.93 61.8614 45.1451C62.0474 45.3599 62.1388 45.6344 62.1186 45.9179Z" fill="white"/>
<path d="M56.0466 20.1003C56.5653 20.1003 56.9859 19.6797 56.9859 19.161V18.159C56.9859 17.6403 56.5653 17.2197 56.0466 17.2197C55.5279 17.2197 55.1073 17.6403 55.1073 18.159V19.161C55.1073 19.6797 55.5279 20.1003 56.0466 20.1003Z" fill="white"/>
</g>
<defs>
<clipPath id="clip0">
<rect width="64" height="64" fill="white"/>
</clipPath>
</defs>
</svg>
