<svg width="62" height="56" viewBox="0 0 62 56" fill="none" xmlns="http://www.w3.org/2000/svg">
<path d="M45.1818 0C38.4055 0 32.8088 6.29402 30.5454 9.26457C28.2821 6.29402 22.6853 0 15.909 0C7.13677 0 0 8.06518 0 17.9773C0 23.3851 2.14653 28.425 5.90374 31.8741C5.95838 31.9686 6.02556 32.0556 6.10383 32.1339L29.6468 55.6283C29.8954 55.8757 30.2198 56 30.5454 56C30.871 56 31.1966 55.8757 31.4453 55.6271L55.7713 31.3099L56.0223 31.0662C56.2212 30.8785 56.4176 30.6884 56.6375 30.4448C56.7295 30.3541 56.8053 30.2521 56.8637 30.1415C59.5919 26.8006 61.0908 22.4914 61.0908 17.9773C61.0908 8.06518 53.9542 0 45.1818 0ZM54.7458 28.7097C54.711 28.7507 54.6787 28.7942 54.6502 28.8389C54.5308 28.9757 54.4003 29.0962 54.2711 29.2193L30.5442 52.9288L8.19321 30.6225C8.12114 30.4807 8.02044 30.3515 7.89742 30.2434C4.49555 27.2729 2.54541 22.8021 2.54541 17.9773C2.54541 9.46836 8.53995 2.54553 15.909 2.54553C23.1949 2.54553 29.4131 12.0487 29.4753 12.1444C29.9451 12.8702 31.1457 12.8702 31.6156 12.1444C31.6777 12.0487 37.8959 2.54553 45.1818 2.54553C52.5509 2.54553 58.5454 9.46848 58.5454 17.9773C58.5454 21.9868 57.1956 25.7988 54.7458 28.7097Z" fill="#626696"/>
</svg>
