<svg width="64" height="64" viewBox="0 0 64 64" fill="none" xmlns="http://www.w3.org/2000/svg">
<g clip-path="url(#clip0)">
<path d="M59.0039 40.1809C58.8925 39.944 58.6875 39.7645 58.438 39.6856C58.0134 39.5514 47.9623 36.4351 41.2383 39.5945C37.1333 41.5234 35.4571 46.9784 35.9484 49.9062C34.8681 50.6642 33.9443 51.3693 33.1988 51.9673C33.5397 50.3034 33.8647 48.4849 34.1477 46.5277C34.6676 42.9332 34.9767 39.3244 35.0768 35.7373C35.1616 35.3335 35.7976 32.651 38.1257 30.1456C38.7315 30.6551 39.5377 31.1142 40.4346 31.4377C41.3207 31.7573 42.205 31.9168 43.0492 31.9168C43.9407 31.9168 44.7875 31.7388 45.5441 31.3833C50.1601 29.2143 52.8975 22.5862 53.0119 22.3051C53.1104 22.0627 53.103 21.7902 52.9919 21.5533C52.8805 21.3164 52.6755 21.1369 52.426 21.0581C52.1367 20.9667 45.2866 18.8432 40.671 21.0119C37.5387 22.4838 36.5026 26.6103 37.0223 28.5761C36.2266 29.3828 35.5918 30.2127 35.0869 31.0051C35.0681 30.2245 35.0396 29.4455 35.0003 28.6688C34.7924 24.5571 34.2966 20.5013 33.5199 16.5359C35.2886 15.3804 37.3441 12.2216 36.5362 9.14092C35.2423 4.20779 29.2218 0.311154 28.9662 0.147653C28.7456 0.00677801 28.4758 -0.0357221 28.2234 0.0306531C27.9703 0.0970282 27.7564 0.266153 27.6336 0.497154C27.4909 0.765029 24.1579 7.11479 25.4518 12.0479C26.2588 15.1247 29.5928 16.8678 31.7014 17.0106C32.4119 20.6659 32.8771 24.4007 33.0941 28.1857C32.3678 27.1625 31.5957 26.2527 30.8177 25.4492C31.4233 23.4517 30.8211 19.5341 28.0321 17.7738C23.719 15.0518 16.6597 16.3138 16.3613 16.3688C16.1039 16.4163 15.8782 16.5692 15.7385 16.7904C15.5989 17.0118 15.5582 17.2813 15.626 17.5339C15.7048 17.8271 17.6033 24.7425 21.9162 27.4643C22.9293 28.1038 24.075 28.3602 25.198 28.3602C26.9411 28.3601 28.6272 27.7416 29.6726 26.9782C30.9643 28.345 32.2259 30.0272 33.2314 32.06C33.2802 35.8805 33.0803 39.7421 32.6362 43.5982C32.1797 42.9349 31.6279 42.3072 30.9829 41.716C31.4436 38.6945 28.7417 32.4848 23.7467 31.006C20.5 30.0447 16.4229 30.2446 11.6282 31.5998C8.10389 32.596 5.53801 33.851 5.43051 33.904C5.19576 34.0196 5.02001 34.228 4.94576 34.4788C4.87139 34.7297 4.90551 35.0002 5.03939 35.2251C5.10076 35.328 6.56977 37.7776 8.98377 40.532C12.2678 44.2792 15.5793 46.6665 18.8257 47.6277C19.6439 47.87 20.4495 47.9694 21.2217 47.9692C23.467 47.9691 25.4242 47.1282 26.5492 46.5172C28.0562 45.6987 29.3563 44.6047 30.1524 43.5346C31.1159 44.528 31.8373 45.6895 32.1746 47.045C31.7678 49.6902 31.2704 52.1375 30.7579 54.2935C30.7547 54.3069 30.7513 54.3201 30.7486 54.3335C29.7973 58.3271 28.7961 61.3166 28.2292 62.7078C28.0334 63.1871 28.2633 63.7344 28.7427 63.9301C28.8587 63.9775 28.9787 64 29.0967 64C29.4663 64 29.8167 63.78 29.9649 63.4166C30.0401 63.2328 31.2766 60.1689 32.5218 55.006C33.0419 54.534 34.5254 53.2333 36.7456 51.6567C38.1331 53.319 41.3642 54.9716 44.6235 54.9716C45.8135 54.9716 47.0073 54.7511 48.1157 54.2304C54.8397 51.071 58.8564 41.3447 59.0241 40.9322C59.1225 40.6902 59.1151 40.4177 59.0039 40.1809ZM41.4682 22.7091C42.7296 22.1164 44.2385 21.9143 45.7107 21.9143C47.732 21.9143 49.6836 22.2954 50.8279 22.5702C49.9311 24.3958 47.7397 28.2802 44.7467 29.6865C43.3706 30.333 41.8531 29.9562 41.0707 29.674C40.4248 29.441 39.8971 29.1391 39.5162 28.856C39.8562 28.584 40.219 28.3193 40.6107 28.0673C41.0461 27.7872 41.172 27.2071 40.8918 26.7717C40.6117 26.3362 40.0315 26.2106 39.5961 26.4906C39.3123 26.6731 39.0417 26.861 38.7821 27.0527C38.9325 25.6457 39.7486 23.5171 41.4682 22.7091ZM22.9773 22.0949C23.0187 22.1121 25.5467 23.1811 28.3072 25.6503C27.1174 26.3523 24.6517 26.9741 22.9167 25.8791C20.1202 24.1142 18.4248 19.9888 17.7602 18.0667C19.7815 17.8394 24.2347 17.5947 27.0312 19.3596C28.5964 20.3474 29.1569 22.4743 29.1622 23.8914C26.3589 21.4876 23.8694 20.4347 23.6932 20.3619C23.2147 20.1643 22.6664 20.3921 22.4688 20.8706C22.271 21.3491 22.4988 21.8973 22.9773 22.0949ZM33.0891 14.4846C32.5507 12.0612 31.9086 9.67367 31.1588 7.33179C31.0008 6.83867 30.4729 6.56679 29.9802 6.72479C29.4871 6.88267 29.2153 7.41042 29.3732 7.90354C30.1239 10.2489 30.7648 12.6416 31.2988 15.0712C29.9448 14.7486 27.7779 13.5266 27.2654 11.5723C26.4264 8.37367 28.0034 4.20166 28.8298 2.34328C30.4622 3.55691 33.8836 6.41791 34.7224 9.61655C35.2079 11.4677 34.0777 13.4742 33.0891 14.4846ZM18.7047 38.3771C21.566 38.9464 25.7474 40.1002 28.7336 42.3051C28.1876 43.0881 27.1017 44.0839 25.6542 44.87C24.3973 45.5526 21.9082 46.5855 19.3578 45.8302C13.6658 44.1451 8.83139 37.5598 7.22052 35.1525C9.88102 34.009 17.5139 31.1166 23.2143 32.8043C25.7643 33.5593 27.2903 35.7807 27.9729 37.0376C28.6084 38.2077 28.9704 39.3631 29.1031 40.2675C28.7164 40.0147 28.3086 39.7707 27.8793 39.5355C25.5119 38.2385 22.5482 37.23 19.0703 36.5381C18.5624 36.437 18.0688 36.7668 17.968 37.2747C17.8669 37.7826 18.1968 38.2761 18.7047 38.3771ZM47.3182 52.5338C46.4661 52.9343 45.5447 53.1004 44.6222 53.1004C41.9765 53.1003 39.3258 51.7323 38.2936 50.5969C41.5588 48.4407 45.9677 46.0269 51.0285 44.5485C51.5255 44.4032 51.8106 43.8827 51.6655 43.3857C51.5204 42.8887 50.9997 42.6036 50.5026 42.7487C45.4402 44.2276 41.0528 46.5609 37.7286 48.7077C37.7819 46.4465 39.1048 42.6689 42.0358 41.2916C43.9826 40.3769 46.3037 40.0659 48.561 40.0659C51.9811 40.0659 55.255 40.7804 56.8549 41.1914C55.6866 43.6709 52.2226 50.2294 47.3182 52.5338Z" fill="#626696"/>
</g>
<defs>
<clipPath id="clip0">
<rect width="64" height="64" fill="white"/>
</clipPath>
</defs>
</svg>
